<mxfile host="Electron" modified="2023-05-03T02:54:15.356Z" agent="Mozilla/5.0 (Windows NT 10.0; Win64; x64) AppleWebKit/537.36 (KHTML, like Gecko) draw.io/21.1.2 Chrome/106.0.5249.199 Electron/21.4.3 Safari/537.36" etag="ouyDT9MZ1AsJmD7_Vb6i" version="21.1.2" type="device">
  <diagram name="Page-1" id="pSEM8EYhs6kFBuwnBdB8">
    <mxGraphModel dx="1418" dy="820" grid="1" gridSize="10" guides="1" tooltips="1" connect="1" arrows="1" fold="1" page="1" pageScale="1" pageWidth="850" pageHeight="1100" math="0" shadow="0">
      <root>
        <mxCell id="0" />
        <object label="shared-only" id="1">
          <mxCell parent="0" />
        </object>
        <mxCell id="bC0aUjiaJx9NKDZwFzf8-1" value="" style="shape=image;verticalLabelPosition=bottom;labelBackgroundColor=default;verticalAlign=top;aspect=fixed;imageAspect=0;image=data:image/png,iVBORw0KGgoAAAANSUhEUgAAAy8AAAKrCAYAAAD4e7JKAAAAAXNSR0IArs4c6QAAAARnQU1BAACxjwv8YQUAAAAJcEhZcwAAFxEAABcRAcom8z8AAP+lSURBVHhe7J0FmFzl2YZfJC6b7G7WfWYjlCq0UKHU6E+xlpYatKUtTqFACxSneHG34m4NDsGKJEhISICQkBA0ISFG3G33f+/Zc7Ynw8ysZDasPPd1PddmZ77znTOzsHueec2EEEIIIYQQQgghhBBCCCGEEEIIIYQQQgghhBBCCCGEEEIIIYQQQgghhBBCCCGEEEIIIYQQQgghhBBCCCGEEEIIIYQQQgghhBBCCCGEEEIIIYQQQgghhBBCCCGEEEIIIYQQQgghhBBCCCGEEEIIIYQQQgghhBBCCCGEEEIIIYQQQgghhBBCCCGEEEIIIYQQQgghhBBCCCGEEEIIIYQQQgghhBBCCCGEEEIIIYQQQgghhBBCCCGEEEIIIYQQQgghhBBCCCGEEEIIIYQQQgghhBBCCCGEEEIIIYQQQgghhNiE9HVt5zrM9XfXLq4tXRvDQNcQV2Hiu+zANQ117ez6vWtv13ddxa6WkOPa1vUz176uvVxfc/VzNReuhdfHtezj+o1rR1c2X68QQgghhBAiiVLXya4VrnrX3a5ertawmavGdYjrMtfBrgEuHt8Ycl17uK5yjXMtcX3qesZ1kusbru6uTGzuirkOct3nes+1zDXNdZfrAFelq6lrHeTC+FzpGu9a4JrjetZ1vAsj1M0lhBBCCCGEyDKYl1Ndq12Yl3tdrTUvw1xnu6a7MAYjXER1tnC1FiIlmKBXXZiWVa71rnWula6FLgzXd1yZzkPU5kLX+67lrjUu9lnr4lpnuE5zVbvSkec61PW6K7wWriO8lvmu21y8ZsySEEIIIYQQIouUuE5wLXJhXm53tca8fNl1sWumi33qXJiKbVytvZHnOn7lwrhgNN5yneMibYwIyq0ujANRo1tcpHKlosyFQfvYhUnDVJEixz58fcHFNfM832OYkiGyQ4rYBBdr33Rh1NgDQ4NpWRro36501yKEEEIIIYRoJRtrXkizIuJyiWuuiz2IYlznoiaEaEVrYN8vuR52sScRkwNdpJCF8DwGiUgKaWSHu0hTi4Lp+LVrqot9nnB9zxWmh/H1ly7MCM9jlH7kihouIjpbu4a7WMNeydfyRRdmCpM1y4W5akkdjRBCCCGEEKIJNta8UCdyrusTF8djXIiObOXaGPq7SBejnoQUL6IZRa4omIrdXK+4iPQ87dreFYU0sGtdXBuvkT2TI0HUsRzjmu0iheyi4LEQGhAc5frIRZSHeh7S7ZL5hYvIDNf7oOubLiGEEEIIIUSW2BjzQnrV/i6K3jmWtKuzXINdTRW+NwWRDiIZ1JVgCEjZSgXdxm5wcX6MB4X3PVwhP3WNdWEoHnCRxpYKambecLHPaFfUBFEv85iLFDXW/NyVqig/7rrGRR3NYhcd3IQQQgghhBBZYmPMy06usF6EWg8iHLWubEAUg8J/0rDucX3VlQqiL8e6MDlcB0X55S6gpTFRIIrrKaY/0ZWunTEm6H4Xe3Be2iiH7wPpbx+6eA4Tg5lJRU/XX11h8wO6o7U2bU4IIYQQQgiRRGvNCzflpIsRZeC4J13UkmQDDMnRLvZFGBKuMx3UrFATw7X8x0XrZKAmJaxTIa3tD650r623C6ND/Qy1O3Qew+hggKhfoSVy+P4k19VEocEAe7CWSA91ORsbhRJCCCGEEEI4rTEv3NDv6opGXaglydZNOulopJ+xNzrF1ceVDkwT9S5EX15yESkB0teecrEH0RSuOR2kmjGfBhNE+hkNB6iXofaGOTikgREFwkhlasn8Qxd1P5zzv8H3vF9CCCGEEEKIjaQ15oUCdoraucknykB0gwhDtqC18aWu0LwQhclkjJiYT9cxzAvDJ5l4DzweGizSvpiCnw66knEcgycxKY+6aDpQ4OK1YtCYKUMr5UxwTgwU5xzjIv2tqQGaQgghhBBCiGbQUvOCiaAtMBPlWU+LYqbN7+2iTuRvLjp3/dH1bVdraj7Cwnf2R0e4MsGMmZtc1JqQ3kXRPuzgCo0EEZVM3b8owGdy/ssu1tPBjDobuorR6QyjRvQm3DsdvDcPucK5NMyB4f1kf2pxMESI9tJfcHHtnAcxnT/8tyRJkiRJkiS1RtxT0qSKe0466GbKGupwtNS8UJS+p2uii/VEJMYFoq0xjyGGVdIumKgJN/QtiT4w4JG0rXAv5rdkgs5k17swL7Qy/osLSCfDhLAHEZmwFiYVmIvdXaNcrKer2NddGA6MEeblA9efXZnAkFB3Q2eyyS5MHPU0/IfzOxd1Nf9yneE634VJu9l1p4voEc0JJEmSJEmSJGljdJ+Ljrx0Bo7OJuzwtNS85LuIhHAjz3rmq3BjT0oVojYEQ4OJII2LyAyRC9xfc2tiks0LHbwyEZoXzkdnMWpXOFeyednOlQ7Myx6uF12sf83FNWNebnSRHsecl/1cmeBaQvPytosmAZgX5uGQcoZBudfFRH6iVxg+3nuiOlNc70iSJEmSJEnSRop7de4xaapFVlOnoaXmhXoUogbhUEo6c3FDzhBH6jsoiieFjKgCN+OsIZWLAvwqV3OIua52cSxi70yQehXOhGHQ5J9cQNpaaEZIG+P7dBAZ4vqZsM96amWo4yFtjOgIBo3XjDHKBNdCO2VMHVP7eS94P2k4QAMB5scgokAnuXj/MFY0JaDRwE8kSZIkSZIkaSPEPSX3oNyTUkJBZlCnoaXmpcZ1hYv1RFnucH3LlXxMhYuUsTBCw6BJWhonT7dPBTNXLnZxHPqHK1PHLiIqNA3AvBDtwIQAOX9hbQ5Rkx+40oF5oT6F66TlMvsRAaJgHyNGRIfoC+9VJqirCYddUj/DkMx0KXMYvakujJKm8QshhBBCiGxBVtGZLjrydmnzQvSANCrSwjAmRCKiE+2jhOlfRC1WumgznGnvkL4u3uzQvJzuon1yOhiWiVGg5gWzQntiwGiFrZKZ/o+RSGeeqOUhwkOtDqbschcpY1zL8a7w/eFx/mNIB26XgZisfcJF04B0RVJ7uYi64Ih/zANCCCGEEEJkAT6Av8DV5c0LKV1hGhU33nTfSmdeaKl8pGuWi71pP9yc7mPUq9C1jNSr0DBkSjmjroSULupMqCUhdQsYJkn9CXuQTkbBUj9XKpjncpmLPbhepvZT3ITZoUh/not9KIDiP4Z0EL3BqLH2LhdmLx1EokLz8n88IIQQQgghRBZg2DqBgy5vXqh5oX6Fm3nqNbjJTzdAEkOAuQmHNhIVoetWc6DzF62GMRN0LUuXVkXEhMhMOOmff4fnIOLBgEmulWYCXDfpbKnAlIVRGgwFqWdhhIVITpj+xpqvuFJFcDBrx7nWuFiL26VYPx0yL0IIIYQQoi2QeQnAkBDBmObCWFDzwh6pIEJxmos0Km7oaTmcLvKRTK2LCA+pYNSrMME/FUQ2qE/h2omY/NoVTdMipYyifaI4z7tI40oGI7Kbi/oT9qErQ/SHzLXc7+Ja6N7APJtUdSzU2BDpYcYL3cOIwmRC5kUIIYQQQrQFMi8B3OgTBRnpYj0RCSbTJ0dfiFr8yPWMi3Xvuki/CgvvMRikZZEORqQkuSCfWhPSwTAuHE+vagY7RqEOhjbK7I1hwEgxjCcKdStEQIjMkM51ogsDFoV96W5Gi2eiNDQIiJos1tMiGXPDeZjJwuyaKERYaCFN+hqNA651JV9vMjIvQgghhBCiLZB5iUAtCa19uVHnZp435beuIhcRCZ6ns9ctLm7k2ZdWxkNdIdUu5p4w8+SfrmTTQd0LURX2IGpDVOVsF6YBA4Xx+ZWLeSxEgDAWRF2Srx2TRFevsS6ug/WYKK6V5zBPvBbSynie6fhMJY3CtZBWxmtgDelypKDxHwLPYb64llEung87nmUq7AeZFyGEEEII0RbIvCTBm0C0gs5cHMfEfdK3MBvMfaH7Fx3JeI46EfpNR1OtmDZPxISICClWx7iSzxtGb0jjIu0L08BeTKSncJ45KuyPicKA8ENKBUaHqfukfLGer1wr+zzsosMYj492YShSNSDA6NBJ7DkXaxkuSTcxUuGICtFimcfpakZ3MsxRU8i8CCGEEEKItqDTmpdw6CQ33oji+ExF5lG2dZGSNd4VmphQ1IdMdmEyuOlPNiakhGFewvUYHua7JIOR+JmLCA11NtFzMHuFSArGhbbImWBvOp8xU4WhmdF9MC8YJIb5EDVKB+/Lni6iM6muZYwLI8g0/eYg8yKEEEIIIdqCTmteeGGHuohiUL/CcEg6eDUXJtAzr+Rc1+MubuB5k4jKYFCY9RItoA+Ju7jRx+Bw809bYYxUKojA0P4Y80ErZNKziMAwPHIPV7qISzLUyFDAT8oXJo19KMSnYxp1PM2JOGGmKMynvoXaF5oA0AKaa9nFle9qLjIvQgghhBCiLei05gVjQIoT5oBaD2pAUrUBzgQRCSIbdOXizcGwYEQydRbD0ISpZ6R9MWMl03pqS8ICfwrhqYfhnC0xWkDqGq8X88Q+1LIweyaVwUoH10JbZOp2qOPhdXMt6ebdpEPmRQghhBBCtAWd1rx8nnDTT43MCBc38piCroTMixBCCCGEaAtkXrIMtSU/dV3nYpBlc1O/OhMyL0IIIYQQoi2QeckypJbRTpguZF3RuIDMixBCCCGEaAtkXrIMgx+pPUkebtmVkHkRQgghhBBtgcyLyDoyL0IIIYQQoi2QeRFZR+ZFCCGEEEK0BTIvIuvIvAghhBBCiLZA5kVkHZkXIYQQQgjRFsi8iKwj8yKEEEIIIdoCmReRdWRehBBCCCFEW5DvOs/1pGsYDwixsci8CCGEEEKItqCg72Z20cDN7ZnuZlsFjwmxUci8CCGEEEKIrNPN7Cun5NrDNxXaG3/sazsEDwuxUci8CCGEEEKIbFN4XYGd8n6Nfbx2sC2YUG5XXJyr1DGx8ci8CCGEEEKIrLFdHyu8It/+OqPG3q4fZvX1Q6x+adyWjSuzS47IsyHBMiFahcyLEEIIIYTIFgXXFNrhs2psytohth7jEmpZzBa8UWlXfMdscLBWiBYj8yKEEEIIIbJBwa2F9tfpNTYpYViGugZH5N8vrbW5Y8vtioP7KQIjWofMixBCCCGE2Cj6uHG5zo3Lh9U2IWFaMC9R4xIxMEtitnh0mV1yfq46kImWI/MihBBCCCFazdZ9rPCyQjtsZo1NWh81LrWBkg2MP784ZsvGVtglv+6nFDLRMmRehBBCCCFEaxl0PTUuMZu8dojVNaaKhcYlNC9RE4O5cS2P27w3yu3y75rVBnsJ0SQyL0IIIYQQojUMusWNy4cxeythWpKNS2hWoo9FH/f1i2M2b0y5Xfa3vjY02FOIjMi8CCGEEEKIFlFoVnB1oR2WqHEJ2iF/xqiE32d63A3M0lpb/HKZXXJBngyMaBqZFyGEEEII0Wyq3btcOsj+Mitmk9YOtbrP1LikMi5RRZ8PUsgWx2zpuAq7ZPseFg9OI0RKZF6EEEIIIURzGXRjoR02o8Ymr8N4pKtxaUrRtYGBWRa3OePL7bIfy8CIDMi8CCGEEEKIptj82z2t4s5iO/KDsB0yCg1IaEbC75tSqrW+35KYfUoNzJ0l9lU/55YNpxbif8i8CCGEEEKIjGxj1vuwfvaHKVU2sX4rNxpES6ImpLmmJao0BmZZ3FY/VGz/ZHZMcHohGpF5EUIIIYQQGdk3xwZcOcj+MbXaPtqgQD8b5iV6rO+9stbWPlhil+d31wwY8VlkXoQQQgghREZONet+Z4F96YliO+/dKpsR1qlkNCKZlGq9G5elcVv2QrnddlGB/ajSbEBweiEakXkRQgghhBDNYv9+NvjBIjv7o2qbUYfh2NiCfYQJ8n0W1tqCV8rs1l/0s+38VJs3nFGIDZF5EUIIIYQQzebIHKu5r8jOnV5t01ZFIzBRQ5JsVqKKrgmMy/K4LXmxzG7ZaUsZF5EZmRchhBBCCNEiTs2xqgeK7JwPqmxaXdTAJJuTqMLHo8+5cVldayufK7Wb9+1n2/vW6jAmMiLzIoQQQgghWszfB1jlq6V2/pwam78eI5LKwIRGJfl7NMzql8Rt6Ytlduvh/exbvuUWDTsLkR6ZFyGEEEII0Rq6vVBiR8+usXktMi9BqtjiWlswutRu/0UvpYqJ5iPzIoQQQgghWkq3QwbYrm9X2jPrh1hdwqCE6WOhiYkaFhRZs7LWllPjsnuvRKqYjItoNjIvQgghhBCiRfyhj33p9Qq7e0Xclocdx+pCkxKal1TytauocSmzm//YkCqmGhfRImRehBBCCCFEs7m50L4wodKud+MyP2FUMC/+9ZNqe+jlMrv1wyqb3vh41LhsZfWL47bkpVK7/cB+9k3fShEX0WJkXoQQQgghRLO4NNfKXim385fGbWXCnLjWDLG6WTX2+q2DbOc+Zls/WGRnfVxt09diYEL5uiWDbeGYcrt9D9W4iI1A5kUIIYQQQjTJ3jk28JkSO3Fatc0IU8DWDrW6GTX29iV5drAvyWXdP3Ks6r4iO8/XfdxocGpt5cgyu2XPhhqXzVgnRGuQeRFCCCGEEBm5tth6P1JqR75bae+swbgE0ZT3a+yD24rs5Aqz4mBpgr/nWPWDJXbZ9BpbtrbWlpBOdohqXEQWkHkRQgghhBBp+ZFZzs0F9tsplfbGCozLsAbz8nG1zXm42C74Wg+LBUs34HduVi4fZP+9o9AmHTbAdvWHlComNhqZFyGEEEIIkY4tzhtoO48us1FL47Y2TANbGLOVI4rt5hNy7GvBulTkFW9hFwztZs/WdrdhwWNCbBQyL0IIIYQQIiVf6W1ffrbM/r281taExmVx3NZPqrDnbyywnXxJpqn4+a7zXU+5ZF5EVpB5EUIIIYQQn6Gkuw1+vtwuX1BrcxLGZYjVr6u1+ulV9tKDhbbr3wutT7A0HYWuC11Pu77AA0JsLDIvQgghhBBiA77Vy0oeLrXTF8VtVljjgj6sskmPl9i+vqQ5HcNkXkTWkXkRQgghhBCN/GOg5QwvtL98WmPvJ0xLEHWZU2MzRpTY33zJgIaVTSLzIrKOzIsQQgghhGjkuTL7zYfV9tbawVaXMC7DrH55rS14tMTO2qmHVQfLmoPMi8g6Mi9CCCGEEJ2cs/raoAvybJ+L8u3A0/OtNng4mS2eKrKfv1tpI1fXBqliblwWxG3206V2+V59batgXXPptOall+uLrt+4fu/6jitT54KWQN9pbspxiRvbW5rjK13fdNGr+ieur7ryXC2B4iY6LnzPtbvrh64hLt6H5sK1VLgY9sN18BppVTfQ1RJkXoQQQgghOjE7muXfX2SHjKmw10aX25THS+2MfXOsKng6ZLOjB9q3Xy+3JxbHA+MyNGFcVr9Savds3y1xr95SOq15KXEd55rvWue61dWSG/l0YCrOdr3q+q2rm6u19HV933WO6znXDNcHrvtdh7v4gTRluChs4rVi0q53jXN94nrLdY3r1y5+yE2R4/qBi9fGtXzomup6wHWoCyPUXKMm8yKEEEII0Un5c571u77ADni90sbVMWDSDcm71fbBPYX2zxN6/28q/pED7QuPldj1s2tsQVjjsiJu68aW2/MX5dpevqQ5BfrJdFrzUur6pwvjUu/6j2tjzQvH/8n1kWuu6w+uLV2tobeLiNCzrgWu8DrRKhcGBDOyjSvTD5boz2muia6lrnAPtMT1jusYF+9HOvq76PAwyoXZW++KXgum6mrXl1zNQeZFCCGEEKITspNZn+sK7KCJlfba8sG2LoymrPKvH1bZ+/cU2Sm/6WOFftNcekeRnT0nZrPXBaliS+NW93qFjb270H7jN4t8iN8aOnXk5QTXIhc34be7Nsa8dHeR1vWMi/3muIh2tCYVrYdrN9fzLowCN/qYg6NcXPODrtB8XOVKV8TEDw9j8r4L8/Oi6ywX+/D1NRf7vOs6xJXqPxLM189dRJLCtZzzSNdJrodcq10LXRe7alxNIfMihBBCCNHJ2Mos98YC29+Ny7gltUHhPZGXIPqy3r9+UGXvvVBqZ75QZhdOr7GPQnOzpuG5d28vsoMPHJjI+GktMi/NAINCTcpw1zIX+xEZ+ZWrNeaF2pR7XBiX6S7MRmOIzdnO9bCLqMcs1wGufq4omI6fuSa4uB6MEOYKkwUYJKIppH7x/AuuHVzR1C/+TTrYnS7WEFHCtESv5Ruu+1x1rmmuP7qIGmVC5kUIIYQQohOxW1/Lv82Ny5sVNn4lhfdR4xIKo+Jfp1fbvLnVtjjxfWBeZtXYrCdK7JSD+1hBsGVrkXlpBlu7iEZE07JmulpjXoh+/NmF+cG8UItDkXwUDAh5gEROWPOIi/SxKBxzmQtTsdyF6QiNSwjvwSmuea7FLupZcl0huF4iMhgNoiv/diVHeUhZ29s1xcWau13J15KMzIsQQgghRCfhd2Z9biiwA9+otNfWhB3DQsPC9+G/owoeXz/Y6lbEbeE7lXbJN3pZWbDlxiDz0gTsc6qLWpDQuGyMeRnqus5FVGWyixqaVPDDvcXFuXgNrIs2B6Ab2Msu0sVGuIjWpILuYxTvsw9pZVHjQUs7CvLXuqiZIQ0uVQMCrvlGF+f61HWgKxMyL0IIIYQQnYBvmfX7d74dMLHSxi4La1wQ5iSqqHGJmJvVcVvxVrld5nsMDrbcWGReMkCU5DAXHcDY4xUX9SX8u7VpYz91cWOPEaCJwLauVJAWxvWvcXG+81y8JuCcFOlTh0KxP+YqmuoVBRNEChp7kPa1j6unC37kCl8PBoj/AFI1ByBNjNQ2Ii+svdyVaQqqzIsQQgghRAdn+6DGZUK5jVuKQQlTxZJNS/L3odzErIrZ6oeL7BLfLlPzqJYg85IGakb2dL3uIjXrv679XRSwsx+1KC01L6zFBHA84geZKXxGK2bqUIiMUCMTGh2Mw72u8Doy1aEw/+V8F5Eemgyc7CLXkGvh9YQRJepeMs2W4VpWuFhL7Q+pdOm6oMm8CCGEEEJ0YH7c33JvLbT9Xq+w8aswJdEal1RmJfl75OZlvT82pcqm3l9gJ/6lV+MH8RuDzEsKuCn/rutxFxGSMa5fuJgAepeL/Wa7WmpeaEl8povjERGTTG3imLtCK2WMB22Mf+yCuOtJF3tQ8E/nsnRgwv7iwgRRs3OtiwFCNAA40UUtDOYMI5Wp7fNOLowS5+Q/FubTpFuP6aNrGWlqDMsUQgghhBAdBL+x7H1Nvh3oxuW11YNtfTQNLKVJiSrFc2uG2Pr3q+y92wvs1GM23sBQv01GksxLBOaZ3OSiEJ5hjaSOYTKKXHTeYr/WmBfCZZgEjke0Oc40+PHrLiIsmBe6hnE+oG6F7mLswfVR15IOiviJmrzhwogROaLbGdEXXCuGBgNzrCsTXEvYTpmvGJTkBgEhmCmud6SLDmdCCCGEEKJj0PuaAtt/UoWNWVzrxoWIS3KNS5I5+YyS1/keboJolfz+PQV28l69NiqFjGwjBrzLvASQxnWui+MoTj8jeAx4oylwZ7/WmJeYi3kuHI+OcGXiy66bXdSacC2kecF3XKRksQc1K7RxTgcF+BgN6nVYz3FfdfFaiMLQ+vljV1NF+F90UTtDlIYGAHQg4/2k1obOaERxSEnjPb/DxfWyL//mPUSnS5IkSZIkSe1Sp23f0064s8jOcePy+jLMR6oal6gpSadUa4O93quyD0YU25U/72vH+TkZKN/Se8SLXNzXPueiqVSnoTXmZaDrby7qNTAnRCaibYypCYnWmuzuagnMVKHTGMejw12ZoK6EKfuYF6JApH8BkZbQjHCtzGJJB+aF6yTtjPXU8FA7U+6igxjmhYYEtG/OBM6WBgNEb+iS9gcXzpfXdIFrvIu9uS5SxqiP4brnukhZo1kAKW6SJEmSJElS+9PMX/W1tRMr3WQQaUmVKhY1I00p1fpg31nVVn/MQKv3m1Tut1t6j0jHXwa5k+GTrQ5m7YKWmhdqQEivCgv0H3NR90JnLqIrmABqTcLp97zZRB94ntqPdMXrUZLNy19dmQjNC2ljpHcd6uI8yeYlXZtk4Lr3cFF/wvpxLtLOQvMSpsbt58oE1xKal7ddNAng/eT1E8mhMJ+anG+7cND8h4WJwdjwvv7exTGSJEmSJElS+xEfSKODrxlkjy2MucEIU8WixqO1ihqYwLzU+WOPFtvYks3taD8v94icP9W1RcUaBrBz/0ztN820KIXoNLTEvHCDz9wUHBw356ynZuM+F0Mk6cSFqBchFYrnV7owBBTwMwiSIvimwPxc4+J4xGDJTJA2xqwXzAsRjDA6QtpYaEZIG/uWKx3UpfzcNdrFel4j+0bTxjAaB7syQR0QwzIxdkz1/50r3ftJGhmmCoNF1If3l8YBGB1JkiRJkiSp/Yh7NNTvlVLbbnKlXbc8bssbU8aiJiQ5kpJJqda7cVnrj02vskeeLbVd/YaR4vvw/KmuLapwDVlRl7q6dM0LISciHKGpaKlIi8pUdxLCNUUL9imSz1QzQzoY0Q7MCxPuaUEMRE7I82MPoiZ0/koH5oXZLm+6MGbU7JAfGBbsE3YjqkPeYSaI7hC14ZwYoZ+5+I8oFXRmw7yo25gQQgghRAfi+IG29Rvldt2yWluwgYHZWPPixmVl3NZMrbLHbylIzBpsLRgexoB0afNCDcgVLqbMU8+BMAvvuIjAhKI2hBt99sMIMKiSx4nK0Ea5KUhNO8vF8YgiJdonp4MfLJESzMsLwfdABOcpF3sQCSItLF3aGg6VxgCsw6hc5cKxcl6K7MP3BwebqVUyaWHzXKwlVLejK53xis55Cds7CyGEEEKIDsAufW3YpEq7blWtLfpM+lhzDEwK47K61la+X2lPnJuT+NA9U7fdpgg/gO/S5oU2yJUuDEgmYR54o9iPbloU91MLQsoYJqEp+EHRHpnjEVGYaEOAZIiYUJjEkEoMErUlQGOBsOsZjQP+5Eo3LwbDRFcGJvVTp8N7ku/CeBzg4nWwD+lvmYZUUt9DqhxraVqQKcdQQyqFEEIIIToum5000L7wZoVdlUgha4mBSfHcOn/s3Up79IycxAxDygk2Bg2pbAEYgbtd7EfUhTqZlkLbYiI6612khDE/JRWke1FLg+ngfGe7+GEBERKK4he6FriI4KTrl42xYtgmexA5+rUrnM+CsaDDA8894Uo3NZ8oDQVV4bVgungv0iHzIoQQQgjRwTndDcxr5XbZqlqbl9LARI1K8vdoqNWv8cfeqbRH7ixIDDxvyYiRdMi8tACiM/e72K81c16AiAVdvmgjTMpZuhbFNa7QKBEdoUA+mta1i4thkaSvkUKWquYGI4J5IA2OfaiToVg/hNqXR12YkkkuuoKlcsPMeCHyg+HidTfVmUzmRQghhBCig3NIjg0cXmQnL4vZ3BabF1+/stZWv1dpT1y7cTUuyci8tIDmmBdSw/q4SM0iOpGc00cUg2GTM1zsc5sLoxKFFDDWYCjo7jXcFTUdUO263IWhoA6HFLbk18dQTH64RGjQqa4BrhD+zewYIjKYqRtcyf2yidIwwJIIDWvofpZ8LcnIvAghhBBCdGDiZj1GVtjv3q+2KaviVhc1JY3/RsmmBfmaNXFb/aEblyBVLFNddUuReWkBzTEvTOM/yMU8l7+7KK6PQjSEN5q6EYwJNS1cJ0YDuMZdXaNc1LpgGuhpnVzTQoSEFshMu+d66OyFachxAcVMGBpqYnieIvvtXdG0MIwVkaBw8CaG6ngXxggwYUR4wuYAtGWm9iVdl7EQmRchhBBCiA7MmQNs99fK7emVg924hIYllVFJofW+5t0qe/TcvETX2bBcIVvIvLSA5pgXakroWkaHMIY0MkU/uZifm386hNFJjL3oBMZMGQY6Xu162cXjpIud68IQpYIfHu2WadXMegZs0vKZHygREswGj9MmOZyInwwmiNbGpKCxFjN1j4tr+bcrHIY5x3Wmi+GWTSHzIoQQQgjRAfGbzl4X5tsuo8vssTkxW5Fol+xaHk8Yklcml9tty2P26WfmwCB/bLUbl6kV9vgdxYl7wI3pKpaOTmteuOE/3cWNN6I7V6qb95ZARIIIBvvReYs6lGTzQg1LWASP7nDxJidDVIPjKZTHGITr0QoXrZoxEHQ5ywQF+RT2M4MlbOMcCvOD+SDta5ArHaSyMd30eRemLLoH10LNDCYqOaUsHTIvQgghhBAdkL/3s+1GldmjC2K2qn6YG5IhVr8sbnXvVtromwvst/v1sS9NrLCr3cwsSERkwqiMf11Va6veq7SnrspN1LikG+OxsXRa81LkOsrFEMf5LibbN6edcSaIOjBxn/0wFwxqTDYvmI1zXJyXm3+K7tNFKzBT33ZRi8L0eiI2Y1yknGFsiPQ05wfPD5EUMmbVMA+GfSjOZ6YMc1bCVLJMUJ+zgwsjNMJFtIZUNK7lNy7MYHP/I5R5EUIIIYToWGz2xe425IFiO29p3BaGERc3JHQLG/dosf3Wb/ASKWB7dLet3q6065fX2sqEefF1a2tt7UeV9sRZOW2SKhal05oXUrOIlDAIh9ZstAHe2NAV5odidfZjSCNvXvINPWlYX3GRvsVQR9LAMpkHrqnYRUcvOobROpk6mUytiFNBShyv92su9mEmDIajJb20w2v5kov6GCb5cy1EiVqCzIsQQgghRAci32zw425cFsZtZmNExU3Joph9OLLIfnd47oaD1a8eZF9+o9KuWxa3daz9oMoeu7yhHXJbGhfotObl84TuYXTuetZFOlZb5Pu1Z2RehBBCCCE6DgOeLrV/zonZx2GqGJrvxmV0qR1/aJph6Gfn2nZjyuyqN8vttlsLEhlJbZUqFkXmJcvww6VbGAXzR7rSFdt3ZmRehBBCCCE6APvkWv/hJfan5XGbGjUui2P2yeiyRDkBpRjpINOpwsUH9y3NGmotMi9ZZoiLLmTUoFDrsikcaHtD5kUIIYQQop2zjVnvB924zK6xt+uGBC2R6RgWt+Wvlttp+/ROlBO0N2Reskyui0L75hTJd1ZkXoQQQggh2jlvVdmvZ1bbxLqgWxiRl2W1tmxkqd305z6JevH2iMyLyDoyL0IIIYQQ7ZfN/lNo359ebc+G0Ra0sNY+fbncbv1NL9vO12RzKn42kXkRWUfmRQghhBBiE/NMgRVempuot07b8es1s263FNmOE8rt8QU1tjY0LssG27pXy+2+7zUYl/Zc9iDzIrKOzIsQQgghxCbk4EIrGFtmZz9UYtf9sY/9wB9KaWBGltp2b1XZ4wsZQhlEXVbVWt3YCht7VZ7t7Uvaa8QlROZFZB2ZFyGEEEKITcQBva34uRI7eWa1fTyj1ha/UWEPHtxgYDYwIof2sS88X2pXJYwLEZdhVr8kbuter7Axtwyyfffqa4OCpe0ZmReRdWRehBBCCCE2AaSJ/bfUjv+oyqavp/B+K6tfWWtrRpfb/cc0TLtPcFI/q32s2C56v9o+aaxz8a/vV9qUG/JtvyGbrtXxxiLzIrKOzIsQQgghRBtzeT/Le7bETnTj8vG62gYzUo+BcWOyZrDVvVJh9+7bz7Y/ur/F7i+yc6dV26zQtKx3fVxtc8aU2xnX53UY4wIyLyLryLwIIYQQQrQhu/W1/BdK7GQ3JB+uDVsd8zX8t2t5rS2dUGEPDi+0C2dU29R1PI558TUf19i8F8vs7AfLrSTYsqMg8yKyjsyLEEIIIUQbcWRvK36mxE7EuCRSxULjQvQFhSZmmNUvjdnq6dU2a22t1SWMi2t53Fa+Xm7nX1WQmIzf0ZB5EVlH5kUIIYQQog24Ps9Kni21f5AqtoFxSWVewucja1bW2uwPK+3WJ8osHmzZ0ZB5EVlH5kUIIYQQIssc1d9yny+1E6ZV2bR1oTEJTUrUtCQbmIj82Gf+2M++FWzZEZF5EVlH5kUIIYQQIovsZpb/bLmdOL3a3t+gxiVVtCV8PPmxoYnuYi9+awv7frBtR0TmRWQdmRchhBBCiCxxakOq2AluXD6sw4QkG5d05iX5OTcvi2tt7vgyu+eYnISBae8DKVMh8yKyjsyLEEIIIUQWuCbfip8tbkGNS1SpnncDs7rW1r5SZvcemZN+En87RuZFZB2ZFyGEEEKIjWOzH1Pj0jDHZVpK4xL+uylF17KHa/VgW/Vaud23Tx/7np+rIxkYmReRdWRehBBCCCE2gn/lWtlzJXby9KpIjQtKFU1pjpINzFCrXzrYlrxeYcMPa4jA9G44c7tH5kVkHZkXIYQQQojW0+uSQfbLj6ttGiYjYTaiJqS15iX52K2sfnHc6h8tsdvPzbMhwbnbOzIvIuvIvAghhBBCtJ6ciwpsn5k1Nn71EFufMDDJJiT8viWKHhtEcj6N2fI3K+yul8ps6+Dc7R2ZF5F1ZF6EEEIIIVrPFvsOsqJL823/D6rttbpo9CU0IC01MMnrfb95MVvxRrndcV+RbfthpfUMzt3ekXkRWUfmRQghhBBi4xl4Zb7tN6XGXk1EX1BoQlpiYqJrAhM0p8ZWjS+3Wx8osa8E5+ooyLyIrCPzIoQQQgiRHQZcXWj7Tau28WuHWF1jCllrzEuQKja/xpaOr7Tb7ii0bwTn6EjIvIisI/MihBBCCJE9Bp4/yP40vdrGrhxiKzYwJZkMTPJzblw+deMyrsLuvD7fvhrs3dGQeRFZR+ZFCCGEECK75F89yI5+v8beblYHsiTTwte5MVs5vtxuvyInkSq2ecO2HQ6ZF5F1ZF6EEEIIIbJLz+fK7F+fxmxWmP7VaE5QaGCSjUywdm51UONSbNsE+3VUZF5E1pF5EUIIIYTIEgcOtJznSu33i2I2tdG08DVdF7LQvATGhRqXceV253Uds8YlGZkXkXVkXoQQQgghssCpldbzgWLbe2qVvb4i/r+C/eUxW7W81havqbW1jQYmWf74pzW2DONyVcetcUlG5kVkHZkXIYQQQogs8GCx7flmub24PG7rEybFzcvimM1/vMT+c02Bnf1hlY38TA0M/3YF7ZBvv2JQosZls4YdOzwyLyLryLwIIYQQQmwcm5+Rb98dV26PzMe4YFBcc2O27OVyu++wAbaDr6n6d5H94d0qGxsam9C4zGsozr91eJF9vWG7ToPMi8g6Mi9CCCGEEK1ns/362JeeKbU7Z8dsSf2wBmOyarDVjym3Z88eaLsE6yD3snzb7+Nqe30Nc2B87fxYQ43LjZ3PuIDMi8g6Mi9CCCGEEK3kK92t9s4iO8dNyJy6IJqyqtbq3qu0KY8X24FbmXUPliYoMcu70A3MzBp7c1nclo2rsHuCGpeO2g45EzIvIuvIvAghhBBCtI6Ke4rslLk1NjNMFVtda/UfVtmkp9243FBkg4J1G1BkNujmIjvo4RI7+sq8ThlxCZF5EVlH5kUIIYQQouX0HF5kR82gJXKQKoZmV9sn9xba8T81GxCsS0eeK6fhn50WmReRdWRehBBCCCFawE5mfa4fZL9YFLdxjcZlsNWviNmcNyrsoi+ZVQdLuzoyLyLryLwIIYQQQjSf7jcU2J4zquzV9YNtXcK4DEm0RF46utQuOCTHanxNZ2l1vLHIvIisI/MihBBCCNFMHim1702qsmdXMRkf4zLM6lfW2roXSu3eP/bv1PUrrUHmRWQdmRchhBBCCLMewde0PFZk275dYXcvrrW6xIwWNy7Lam3J6xX20NE59iNf0rNhpQiQeRFZR+ZFCCGEEF2WMrNeF+ba9pcOsr1+39Mqgoc/w7ED7Qtjyu32eTFbERbnrxhs698qt6f36WM/9CXdGlaKCDIvIuvIvAghhBCiy3J+nu0+vtyemV1jk24ttH/4Q8UNz/yP83Os+tESu2RGtc0NjQsF+m9V2sQbBtkhvmSDWS6iEZkXkXVkXoQQQgjRFdn8/Hz7yavl9tgC0sDckHwSs6m3Fdnf/LlGA3NQP6t9sNhO/7jaZqwNUsXWuHGZWmXv3+9r/9DLSoOl4rPIvIisI/MihBBCiK5GrysG2c4vldvjn8ZsdWM0xY3JhzU26bYCO8LXFLly7iq0w6ZW24dEWhJtkd3AfFxjs4cX22nH5DEwX2RA5kVkHZkXIYQQQnQZ4mY9Lsu3n4wqtRFL4rYyTAFrlBuUuTF76+JBdswROXbAu9X2ZGINURfXnBpbNLrMrj6jv8WCLUV6ZF5E1pF5EUIIIUSX4ex82+3lcnssYVwCQ7KBeXGjsq7W1i+I2cx5NfbR6rgtC83LwpitnVJhN1ydb7XBdiIznda89HfRpeFM1wWuvV3N6dgwyLWt62cuiqVOch3v+oPr264BrmzSy7WN67euv7sIKe7hYhhRSyhw/cC1n+sY18GuHV35rubCtXzNxXt1pOtw109dla6WIPMihBBCiK7AFhcOtJ1fKbdH54URl6hxYW4L4t88TopYJOLiJmbtmxX2wN0Ftn2wn2iaTmteKHQ6zVXnqncNd/V2pYMb92+5TnY96JroWuriWPSRi8cpuPqSawvXxsI17uu62/W+i/OscY1zXeyit3ema4YtXV92YbCecc1zsc8i1xOu41xbuTZ3ZaLc9WfXXa4PXOtcK13jXZi/77ma22dc5kUIIYQQnZ1elw+y/3upzB6fH7NVCVMSmpZU5iUqNy4r47ZicqW9cFFu4n5PNJ9ObV4wIitc3MxjEDAo6SC68C/Xu675rk+DrwtdGIFlrtUuzMF1LiIUG2NgiJTQOm+yi2vkHAtcnG+Ja5UL8/ETV7pWeRgSruN61xwX18jx4T7LXYtdl7owMOmgMAzzg4HiGK4lfO0YOK7vEVdz+43LvAghhBCi07KN3w9dnG8/eaHcHk9Z4xI1LeG/oybG138aszl3F9mlP+qudLEW0mnNCzfkJ7i4Ece83O7KZF74D+cM1w0uUsX2ce3q4ub7F65zXBgN9sIcXOaqdrWGfi7Su95yrXVxk09EZycX6WpEXTANRGHudxFZSQVFXfzw5rowPHe6fudin9+7HnZxvRiuf7pSpZDxnpBiFkZ+RrmOcvEpAK8b48P+mCmiMl9xNYXMixBCCCE6Lefk264vl9mji+LBcMnkVLHw39HHogbG168abCs/qbaJ1xcm0vS5IRfNQ+YlINf1DRcpYQN5IIky119d4U0+X7lJbyqtK5nNXJyHFC/2meSi3qWPKyTuIrpD1ASR+pVsPEjh+qNruot9SIujVicKURsMBM+/6drdRZpZCP/mmMddrJngSr4Wam+ucmGkiEZRC8N7lQmZFyGEEEJ0RrpdPND+D+MyN0wVSzYuzTEviGNdH8bsrdsLEh8cy8A0D5mXFsBwoZtd3MiTXnWuq6XRF4wRBoDoDelYlwSPJfN91/Murv1l13ddUYa4bnHx/GwXDQWSyXEd6prpon7lGld0wmueiyjTJy5MEmlzNCxIZhfXGBdRIv5Dof4lEzIvQgghhOhUlPl95KWD7Mcjy+3xBZlqXJIfiyrZwGB8hln99BqbdG2+HbFV78QcGJEZmZcW8hcX0Q7SqO5zJUc7muKrrntdHP+ai9SsVGAirnZx7aw9zBW9/l+53nBhSkgXI2KUiu1cnId9KL7fwRWytYsIEE0NxrpIk4tGZkKqXJgszAuGixQ3IkjpkHkRQgghRGdhs3u3su6X5NsuI8vs0cYal+ZEXFIpXBuu933WDrW62TU25ap8++v2DdP1s9EYqrMi89JCaB3MjT7Rl/+6aEfcEn7jooZkvYtr+qIrFRTjE0IkwsP1R2tsKJrnh8ZzpHId60oVMQEaA9zjYo8Zrv1dYVoYaWRh2hn1MaSrpYKGAURwaFjA2n+7MoU2ZV6EEEII0Sk4sNh63zDI9hpbYSPmJ9e4tMS0RJV8XLDnrGqben+xHec3ZBpWmR6ZlxZCdOJFFzfyRC1aYl4wHXQY43rQea5MJmBPF00CMEq0af6mCzAqfM8epIQxl6WHKxW85tNdFPRjdM5ykTrGtRBFoqMY+5CCRiOBdBAhopsZazE6dDlLF32ReRFCCCFEp2A3Ny//zLUjplbbzPovNJiMtCakuUp1XDAD5plSu7mqoTxApEbmpYXQxesdF+lTRDQYMNlcqG2hroTrQdSbZLom6lxGuEgbe9VF7QkMc/EDY49prp1d6cDUHOCa6uKab3JRhM+wTTqQUevCTBfqdzLNgqEGh1k3nPM5Fx3NUqWYAaaLltOYPAZnCiGEEEJ0WH7Z274yvtKuXTPE5qZMGYuakOYo2bz4fnVDbNX8Ghs3qizxoXS6MRmi4X6aAIDMSzPgZp3Bl0RdaGXMDT/1IM2FQZCkf4Xm5WhXptoRjBHtiTEvH7r4jxnoVjbSxR4MlEwu5o/Cf/y/djH4ktoWOovxg8a1UsfC62CmC00EMsG1vODinNTQ7OUKoz28hqioxwkjLxgrTJEkSZIkSVKHFMX6+/Sz7Z8utetX1QapY5nMSCalWTuzyibcXGR/OLtfoqESNS8pr0VKZBBd5JJ5aQYMssRMsB8RCybSt2RPZslc6+J4ROvlTFCET6QEs0R610EuoOgeY8AemITtXekgPYw6HTqWsZ4IDilfFIPRjplUMKI31MJkguJ+UtWo1ZnoIgLFayfV7OuuPQJhVogu0cFsiguzx+PMryEiI0mSJEmS1NG0m+tnX+thp99XYuOW1G5Et7Hkx4ZY/eQq++TvOYl71X1djLrQfVN6cf/9qOtZF9lInYZsm5cwgsFgSdKsRrvo5NUSyF/EMITmhaFEmcAwsB7zQsoXHceAFK5XXKF5IRKTDswLhfmjXKynQxlmgygQxoiif6I3/IeQCZztfS5eO3U4/M/FjBtMELUzTPlHRJZwwpgtDMxDrgtcDLu8XJIkSZIkqYOKT/sv3KaH3X5Xsb35SdwWfcaItMS8BKlnb1bY4iMH2FO+Nxkx1HJwL5Xq/F1dvC+I+1c+SGekyFBXpyHb5oWuD2EUZJaLwZGE9VpCsnlpKvKCecEQkDZGpIdJ+KRlMWclal4ymSjMC5EP6k9YT6c0UsAwLze6MC/UsjQn8sIgTMzL2y4iL5gX0s9IZzszEHU8mByaAzDIk3bPmBteK6lpkiRJkiRJHVFHuOi+euh3etvlz5TZ5IQBida/oFQGhseSjMvawbZ+RrW9f+pAu3Fzs7/7vnxIrful9OL9R6e4+FCeyIvMSxr6uhgCGRas0yKZeS3k3bWEcFo9eyDmpWTiK67bXJgXohhEO+BbrjCSQtTk2650EDGiPoUhk6znB006Gu8PxoK0MYZcYjAywbU84aJuhugNk/iZ8o85Yvo/ZggRicFkUaPDOWkNTbtmTI4kSZIkSVJHFvc8xX/JsSPHlNuk0Ig0mpJQUbOSbFyQH/NJjb1x+yD74//1SNRP00k2vF9iUGXyeaX/iTEjDF6n6+9Wrk5DNs0LaVaPudiHSAfpXty4txT+YyQcyD7oeBc3/+mgNTJ1JpgX0tXI8wOMBAaKPTBUP3Klg6J6TA/hNVou0yFtsIv/SWg4QAtlBl3iYjOBQZrk4pxEcUhFS9cJg+foNobBamoavxBCCCFEh+G+IvvJ25X28MK4LQiNSKL+JVoDExqWZOPCWtfMahs7vMT+5NvxAbloGdRbU1+tgv000I7tVBc1J0QpqN8Ih0W2FNKsmLkSmpczXOyfDorfiV6QqsYPKDQCNA4gN5I9PnZhatJNYsVkHeOa4+K9IJ+yzMWgSoZbhu8PUZhMbfmYbxPOhKFjGdGfdJEnzXkRQgghRKdiiN80XzPIfj66wl5YEre1ibksbkSWxGzdxzX20aJYE22U/fH1/tWNy4THGozLxpQzdGWIvmjOSxqIipD2RJthDATDGTOlaDUHchmJgHBNpJBlmqBKEX04jZ/6lPAHhOOk6xkpXJgSupDluFLBPBdCa6wl9YxUNQwTtTOkws1zcS3UqdB6LhWs/aOLCBBr73CRApcOmRchhBBCdBp2NutxxSDba3S5Pbe81o1LEGlZFrNVb1XYyEvy7Ljny+zqVbW2PIyuNJqWwLisG2zrP6m2ifcOsj9spYjLxiDzkgaiCtu6HnFRpI6B+bmrNeliUbiZp2iePYlgpJvRQmSEkBjGhes/2RVGabg2ZsTQOIBC/kzRIAqZGCrJHgzXpHg/jNLs6OIxniMNja5lqaIppJiRVhaarrNd6Sb6g8yLEEIIIToLW14yyH45rtz+uzhuq0PjsiRu9ZMr7YW7i2yX7fyG+s/9bdtny+3GFRgYojJJ5mVWjb1+5yDb12+++GBZtB6ZlzRQPEU7NupBZrqoc0kX3WgJmAxSt9iXSAjdE1IZBoqRME5cO3UtpIZF12E8KL7neWa3/NCVDEM1Kdan6xfriBxR7xLCtfC+kBJH4T+F9qnMGd3MqPnBSGF2GEKZCZkXIYQQQnQGel0+yH4xttyenR+migXG5e0Ke+6h4sQsvfD+bLM/9bPtXiqzmxcPtkVhWhmaXW2vPV6SyKhRxGXjkXlJQa6L9CrqSUjLojaFepXmQKoZNSUU1WOAkutI2Ieb+6kurgtTQOtiUrNCiHSc6JruWuv6tyvuikLxP9dFKhdRHKIhHBeFYZS87tAoYcCir4P/gegaRjE/18JMluSZMXw6wPvIFH5MDj3OM6WMgcyLEEIIITo01Lj8u8D2fKV8wxqXZf5vIi6PFDc2Uoqy2Q972ddfrbBbFtXakrWD3bjU2NtPqMYlm8i8JEE6FLUgE1yYAtqw0T2LqEv/4GuySPEKzQeTPs9ykYZF5IbUs6gxAQrur3AtdS1wUSxP+hhpYRgDaliIcBDpeN3FVNdkE8SeP3ARfWEdgyNJJSNNjPkzmCeMBrU6GCBef6oppBgtam9Yw/Vc6aKuB9NS6yIaQ2tkamZId2Pqa6pIURSZFyGEEEJ0WLYx60aqWKLGBeNCBKUh4rLOjcvI+wtttwPTd4zd/Be9bLuR5Xb7rBob7ybngD0a6pVFduj05oWaEMwLReZNmRf+I8SoYFi4Wee4GS4meD7qGpFGDGfE2ACF7URMOJ5i+H+6MDdRqDnZ3nWfC3PBNVJTQwexF1ykcHFu2g1T4J+uIxn/IzAskmPDa6WNMfswxJJoCY8/6aJzGWlkyWBEdnDRkpm1mL3XXBwz0hXOtpniOsRFVKopZF6EEEII0d5I/jA5HVteGNS4LEpR4zK80Hb1m7im7inZ48vPl9tOu/VNzIYR2aPTmhciCpgKbrwR9R6ZUr+4KaeWgxvu8JjmionzYacubtyJ2oTP3eticGMyGBgiJ3QC4/iwMB9hejBQpHlhwjJBlAXDhPkgNSzcA2F+6EpGm+NkAxWFqA41Mze5uJboHlwLZgjjwn8szUHmRQghhBDtgsP72qCHimzfR4vsqJsGJTJTMtGHdshjyu25BZEal8VBjcuIDWtcxOdDpzUv1H+QX0haFbNSmK+SqUMWZufvLtK9iDxwTCjSpXgsnS53YSIAo8K0+vEuDMmdwWPpoFUyQyQvdg13ESFieCUzXcJoTlNQZE9RPdd/vet+F3UyB7i2dqWbAROF/xFJEyNljtdDVAgzw7V8x5XJ/CQj8yKEEEKIz51zcmzgs6V20NQqm+xaNK7UrnBzknJMxY5mfa8dZL8YXW7PL40YF/6docZFbHo6rXnhhp2bf0xJhQtzkSlcSMoYhocie2pSOKa5KnCFBoFz0NELAzDNRRvjpor9eZ7rowifHwh1NKlSvDIRvl5eA/vwNVqL01yi18Lr4lqaY36iyLwIIYQQ4nPFb+Z6jiixg9+rsklraq2+rqHr1/xXS+3yU3M+03xo80sH2V5jyu3ZFXFbE6lxWf92pY16qNB2O7Vyo8dliOzQac3L58lWLiIoREBI2WqpgejoyLwIIYQQ4vOkz1MYl0p7cyVT7gMzwlc3MPNGl9plF+QlmhzBFpfl2s9fK7dnFoY1Lr5uqR9HxOU/JbY7RihYKz5/ZF6yDBEPZqvQaYzp/OmK7TszMi9CCCGE+Fw4JMcGjii2/d24TFwdGpfIsMiEgamx+a+W23nX5Nn3aYc8psyeaqxx8ecXx61uSqU9/7hSxdojMi9ZhpQxOpbRwaurTlCVeRFCCCHEJufSXOv/ZLHtR6rYqmTjEjUw/nVWjc0aWWLPjSm3F5bHbVljxKWhxmXUgzIu7RWZlyxD6zxMS6bmAJ0dmRchhBBCbGp6UOPybqW9tbLW6j5jXDAzKDAw6/3rkpitXR6zNYnHgxqXyVU26oES2/2oMg2VbKfIvIisI/MihBBCiE1Jn8dL7UA3Lm82Rlyi5iU0LdF/83wQbeGxRXFbObXKRgwvsT18v678IXR7R+ZFZB2ZFyGEEEJsEo7LsYGPlNif36+ytz5T45JsWJL/HXlsWpUtGlGcGBEh2jcyLyLryLwIIYQQos25tdD6PF5s+71TZZMau4olmZJ0ZqXx38Exs2tsyavldsVfeybGYIj2i8yLyDoyL0IIIYRoa3o8XdyQKpYwLqSAhYYEpTMuoZKeXz3Y1rmB+Xh0mV1yYv/UgyxFu0DmRWQdmRchhBBCtBlDzPo9VmwHZKxxyWRcULgmXBfswRyYV8rs4mv/NwdGtC9kXkTWkXkRQgghRJtwT66VPlNm+79XZRPTtkNuyriEipoXFBiYmdW2cKwbmFcqbZjf1HQPTi3aBzIvIuvIvAghhBCiTbi/yH43pcLeTlmcn2xGmqtkA+NfZ9bYolGlduFefRMDyEX7QeZFZB2ZFyGEEEK0CQ+X2KFTq2xBwmRE61xaY1pCJZsX1/yY1Y8qs9t+2duKglOL9oHMi8g6Mi9CCCGEaBMeLravjamwi2bX2NzQaHzGgLREHBceG+y3MGbrJlfZYy+V2G6/K7Q+walF+0DmRWQdmRchhBBCtBmn5ljVS2V28cxqm1OXbGBaYmJSGJfFMVv1VoWNGF5sOwWnE+0LmReRdWRehBBCCNGm/HWgVWBgPqmxeesGW12jgQlNSfjvdEo2On78wpitnVRlI+4utO8faNYtOJVoX8i8iKwj8yKEEEKINueuQRZ7tcLOnlVjM9YEBiStOYkqybSgBXGrn1hhj93uxsW33rLhDKIdIvMiso7MixBCCCE2CRfm244TKu2Nz0zYb455Yf1Qq18Us7VvVdjjjylVrCMg8yKyjsyLEEIIIdqcq3Js4DPFdsSH1fZ+Y+vkUKFJiRqY6PfBOmpcJlbaE3cNsh8H24r2jcyLyDoyL0IIIYRoU3LN+j9XYkd/VG1TVsdtdaNBSaXQtESNjBsXuopNqrAn7iy0H/jNi4ZRdgxkXkTWkXkRQgghRJvx4/6W+1SJ/f3DKnsnUevCvBfXzBqbPb7CpsyotsXrA4OygYkJH3MFNS6P31VgP/Qtt2jYWXQAZF5E1pF5EUIIIUSbcFYfK3yq1I5w4/LeOszIsAYzMqfGFj5balddU2AHjyq3S2fV2MzQqCQbl8UxWzOpwkY8Uqz7lA6IzIvIOjIvQgghhMg6F+fYgKdL7agPquyDtaSABRGXeW5cnii2m07Ns2192WbH5lrZ6Aq7hDbKjXNgAi2K2eqJFfbk3QX2o4ZdRQdD5kVkHZkXIYQQQmSVit5W/ESpHfdhlU1dExqXYVY/q8YWPVlst5yTY9v4ssYWx1cXWtUrZXaRG5gFiaiLr18Qt/VhjcvOZj2CpaJjIfMiso7MixBCCCGyxt/62tAJFXbR7JoNIy4zYrbov6V286n9ExGXz3B9ng0Z48dhYObErX5ylY14sCQRcdmsYYXogMi8iKwj8yKEEEKIdBDxaHZnr0tzbavR5XbZkpgtC00L6V/zYrbQjctNx/WzbwZLU3KVG5iR5XbBK+V2+8MltnvwsOi4yLyIrCPzIoQQQohUdP97nv3g5Dzb/aBeVho8lpY9+tmQ8eV2ecK4hHUrbl4wLiNK7Jaz+9vXfVlTUZQtdu5rg/boZSXbmPUOHhMdF5kXkXVkXoQQQgiRzBa/7GvfmVBlw+fW2MRRpXbeqb2sLHjuM/ykuw1+vcKuWh63T0PTgmbFbNHTJXbrBfkb1riILoPMi8g6Mi9CCCGEiLLFYQNshzEVds+yWltOoT0zWUaV2FkXFVhNsKaRk3Jt2Nhyu2JJ3OaHaWJ89WMWP0eNS659I1gquh4yLyLryLwIIYQQIqTbEQPsuy+W252ram11oxkZbPUzqmzOS2V25vDS/0VgLsuzodS4LI3b0saIi3+dXW0zniyx605uosZFdHpkXkTWkXkRQgghBGxOqtjL5XbX6sG2KmFGAuPC1zoMTI3NHlNup+/ay0p37WE1r5fbpYkal2DNejcvc2rso5sK7JSfdbfBvqem4XdtZF5E1pF5EUIIIcTmv+hp3xpXYfcsGWyLoxGXRmFgXJ9U2dQ3yu3GdyvtvoUx+ySxDg2z+o9rbPKthfaP7/e0ymBf0bWReRFZR+ZFCCGE6NpsceQA22F0ud21NKhxSZgVZrREFRgYhk7Or7G1q2PBYxgd1/SYTbmz0I71/UoathVC5kVkH5kXIYQQouvSbf++tsPIUrtjdVjjEkZaUpmXFHIzs2JejU26scD+5vs12VJZdClkXkTWkXkRQgghuiab/6ynfWd0hd29kohLNFUslWFJZWD8GGpcbsy3k+KWvpWy6LLIvIisI/MihBBCdD0237uvfXtsco1LaFpSGRWU/JwfN7fGFj5QaFdRxB/sLUSIzIvIOjIvQgghRNdiy2MG2A50FVteaysaa1yi5qS55oUaGP86u9qmvVRqp/270KqDcwgBMi8i68i8CCGEEF2Hbr/va98ZVW63r661NWlrXMLH0inJwPCVNspuYM48N08F+6IRmReRdWRehBBCiK5BN2pcxlYkIi5Lm50qlk7RY3yf9f51ZrXNfLnMzjkqVylkIoHMi8g6Mi9CCCFE56f3qXn2gwmV9p9l1LiQKhZETFplXEIlGRi+zqyy2ePL7OKXim1ocG7RdZF5EVlH5kUIIYTo/PQ5K99+M7vGPt7AuCQbkJYq+VjfmwjMqDJ79o5c+0ZwbtF1kXkRWUfmRQghhOj8bHZSvtWOrbAb3MAszop5CY8Lj/U91w619TNqbNL5eXZwsVl+cG7RdZF5EVlH5kUIIYToAhxo1u26Ihv2aoVdM6vGliYMTLKJCf/dlKKmBbHPMKt/v9pev7LADv5Bn8RN6+YNZxZdGJkXkXVkXoQQQoguxO0F9sWxFXbVnJgtrAuNR9SQZDIxqdYEhf/v19j46wbZIX4KRVxEiMyLyDoyL0IIIUQX4/ISG/xKuV2+KGZzPxN9aYl5ceOyZojVzaiyt4i4+NYyLiKKzIvIOjIvQgghRNdjsyvz7Ptza2zMBuYlalCij0UfD5/z49YOtbqPq23ChXl2UJHZoGBvIUJkXkTWkXkRQgghuhin97PaF8vs0oUxm/MZ8xIqamCipgVxzFCrf6/aXr9ikB3SVxEXkZpOa178v3n7luso1/GuPVxbulpCgYs99nEd4Pq566uuPq5s0c21lWs3159d+7p+4GrpIKYBru1ce7n2d/3G9XVXjqu5cC3DXFzLH12/d/3QVeRqCTIvQgghRNdh8zuK7TsTKu36OTW2kLbGCSMSVdSwRP8dfh/UuHzgxiWocclr2FqIz9BpzQs3/6e4VrnqXfe6ermaQ3fXl1zHuh5zzXGxDzfkd7q4qS92bSx8ooAhus71pmu5a5Hreddprm+6ergyQdeNwa6/uB5wfejiWme67nPxC6DatZkrE/yHgPG51jXBtdj1qWuki/cRI4S5aQ4yL0IIIUTXoPt5ufbjNyvsgYUxW5swKm5EVrkpmV9tHy+ssTGLYzYvYVCiJiY0L4FxWTPE1s+streuyLODfE8ZF5EJmZcUbO+6yTXXhaFgjzXB12WuSa5/uEpcrYVICYZjnGupa6WLc6x2rXBhHv7j2tGVKWJE1OZS10eu6LWyD9/Pcp3pirnSgYn6qwvTEl4Lx4fXstB1lwsztYWrKWRehBBCiM7Plufk2o8+rLGnV9faqtC41PnXd6vsvdsL7fjbcm371yvtslk1tuQz5gX5Y+v9mGk19uZF+XZgXDUuomk6rXnBWJzgIpKBebnd1Rzz4v/f2CUuzANG4B4XKWOkYRGJecXFfhNdpHhhQlpKb9dvXWNd611vuE53/dpF6tgNLgwIJoLrJpUrFeWuM1xEWVj7qAsTwrXy9VkX18rzXHuqayXK9AcXhoy1411EfbgW0s8wcbwXmDauK921RJF5EUIIITo33a4tsD3eq7KnVtbamtC48HVypX3wnyI76Vu9Gj7k/U+p1Y6psGtmMwcmMCyNX/2Y92ps/DUNXcUUcRHNQeYlAqbiCBdRjHUuog1EYUJI4fqdC+PCnpgDIiMtgfStr7gwGuzxrms/10BXyNauO1wYhvmuI13R5wHTgQHCJLAP6W07uKKQkva6i+cxSj92RSMn/Jv0ONLNWPOOi2uJmhwiOxgYTNZsF2lo/V2ZkHkRQgghOi+DhhfZH96ttv+uiZiQ1f7vdyrtzbsK7R9797TKYG2CGwbZl8eW27XUxCTWD2s47uMqm+DPqcZFtASZlwBqR7hRxwSwnkjE7i5MQhSK+EnD4mYeg8M5MD3NhQL6Q12kpJGWdY2LPaNwLT9xcfPPtWCSSNmKUuOiVobnF7iIDiXXtfCL4G8uUsdIISOiFD0Xhuho1zRX+HziU5Ik9nQRHSIa9IiLJgaZkHkRQgghOgCH51rZ3W4sfjmweQ1+vtTHCi4fZH/5OGZvJSItgVYOsVVTK230eQV2kN9IpDQiF+fasDHliaL+xUuG2LqZ1Tbp8jzNcREtRuYlgO5kRDKIPrCewvwyVyp+5qIwnnWklX3Z1VRBfMgXXVwLKWkU6XPOVNDh63oX58BYUMAWLd7HULzmwgANd33NlYpvu8LoyxhX1ASRAjbChRFjDXumKsqnXuYq11rXEtfhrkzIvAghhBDtnEE9LPZgif1rWrU9c39B4n4k+QPbZAquHGSHzqqxt9cMtbpG8zLE6t+qtKdPzrVfbJPZBG12aZFt5Wtvf6nCRl2WZ4du3XAjKkRLkHkJwKic4yKKQaTiGFe6iAppXw+6QgNCjUlzCtmBjl4zXBiGu13slQr24xqoZeH6L3ZVuIAC/n+5KK4nrYzXme5/frqiYW7Y42MXLZDD10V0hxQ5niONbYgrFZgmDAtGibVXuzJ9SiLzIoQQQrRj/A979aMldtYnMftkZW0ifevV+4sSf79Tdhb9vz72hf8U2+kfV9ukME2Mr0vitnZchT31r9zE/U2zMlGeqbCv3VqYGAuh4nzRGmReAqj9IGWM6AIRCqIr6T6BwESERof9KXBvqqUxYDpI0+J6EG98ppbL/BKhJoZrwoAwxwUIx4aG5BMXrZt7ulLBL5KzXURvSFWjMQA/dK6FUC2vgX1uc2VqPvArF3uwlhqZTNEmfoHJvAghhBDtkO/3sNjwYjtzTtymhbUnFNBPq7YXbhpkv/AlG9wvHT/Qtn6gxC75oMZmhaYFLYvbwgnldscJ/RIfhmZzBp4QmZB5Cfieixtu1j7hovg9XYtiog4U0WMcWE9xfXNyRTEHGAmOQSe7Mn1KQTOAp1xEeF527ewCIiQ8zh7TXbu40oGpwqS878J8kIrG3Beul1bSdBIjCnSBi1qbdDCsksgN5/xv8H269wfjh+ka5eJ9FUIIIUQ7YMceFr+70E5fGLdPEsaFgvtAdRiYKnvpijz7qd+A8KHolme5cXmkyK79pMbmhcalboitr6u1uR9X21WH+n4NOwuxyaBx1LmuLm9eqPegnoO197uYpJ8ustDPRUtjjAPrMTvp6mOisIaZLByDiMJkqpXZ1kVqGeYFYxXWxzAw8gUXe3zgytTxjOgRaW20QMakkB5GYwJcK6lopJ4xx+XvrkxwLS+6OCeRKT6ZCaNNvAbOE5qZsAsa63/EA0IIIYT43Kl+qNjOcOPSEEFBEfOCMVlda2unV9mLNxTYntv2tB0fK7Yr58ZsTjTisjJuK6dU2NVXFHauG0fRYSAD6XxXlzcv+7jC+hKK8LnBTwfREtaH9SJ0A6t1NQWfTtBdjGMQbZkzQWoWbYqpNSG960AXEBUKO5ERUYm2c06G3FUiIURuWM+cGowZQzz/7aIdMyaMbmWZoNHAQy4M0FsuXj/vJ1EcOpphsmgtfYsL00JEZ46L/7B4TJIkSZKkTS/uI67eoadddHeR3TkrZh81Ghcm3IdT7kP542upgam2l94ssydnVNnchGkJ0stmxKz+vHyrj22ZaPTD/DeU6ryS1FZi8DxdgZ93pavX7pC01LxQNxLWdHATnunNYB+iGVHzMtTVFOwZtjdGTXXtYt4L68NJ90zkB1KxwmGZRDi+4UoH5oWWz6RwsZ6Wx0RuGHDJLzTMC9EbIkmZwNky8Z/20JNdDOjExPG6qf9h/1Bvu9gXA8NMnOhzkiRJkiRtGnFzNzJvc/vwlFyrn+nGY4NUsVTmJRSGJfI981wWxmzaPUX25Be6JWqEn2Hv4DyStCn1qovmV2QhDXZ1GjbGvBBFyDRJnn1IjYqal+a8ecnmhSn4mcC8UKNC2hgpbQxxIkUr2byEhfypwLzs4QpTvmivvI0L83Kji9fM62Cafia4FpoEYF4wJ39y8T6QKkYaHSG8UDyHIeI/LpoORJ+TJEmSJKltleuizjavekv7xpUFdsXMGlsWLc5vNC6heUk2MqwL1tbVWt20Kpv2fKmdsHufRNo5f/fZn/OkOr8ktaX44PxKFwa6S6eNYUZC80I4ijSpdPUodNTA7DDckfW8eaRPNQXzUmgzzDHoKFcmaKN8qwvzQvtm2hwDs1tCM0LaGN+ng1oU6lMwEqznUxg6q5E2RgobERL2xhhlghQ2Pmmpc9EemrSxdB3OdnVNdfGJzHd4QAghhBCbnNzRZXb0+lqbXDfEVn/GuIRGJVSqx/2YNTFb/UKpXfWtHon7GCE+b7ifpwFWl695IToRrqW2g9SqdN236NTF0EhCVqxn6jyfRDQFbZEvcnEMOs6VrmMXEFGheQDmhdw+TAhQs0K0hz2ImtD5Kx2YF4zWBBctl0n9IgJEb3WKnYjoYNpOdGWC4ZaYFs5J/QzvV7pW0przIoQQQnyOFPawqoeK7cxP4vZhY7F9aEyaMi/R5/y4tXFb81GVjbitIPG3P+UcGCE2IWqVHEARPOlQrKUVMF2y0v0PypuG8aAgHUNABKM5/c1Zc6aLcyBmrmRqsfxjF+lh1LxgVhjoBER5wlbJtC+mID+d0SI6QkE9bZ2pQbnMRcpYXxevIXx/rnBl+oVEO2YGYrKW7mpEVNIN5pR5EUIIIT4nftbDYvcU22lzYzYjZY1L1JykUprnmQNzZV7iniPT/ZQQbY3MSwA1LnQZwyjQTet3rnRpUXQWI9cOMzDTRfpXcz6JIA2NtXTs4poud1W50kFRPCld1JmQPka6F2B47nOxx2wXncLoeZ0KHseYcE72Ymo/OaqYHWpT5rnYh9de4EoH0ZuwGxsNDTJ1V5N5EUIIITY9m38B41Jo/2SOS10YccF8NNe4hEpe6/usG2xrp1fbS1cV2B5+MyMDIz4vZF4CilwnuYimMPvkDFc6Q0CNySgXpoKvTJbNNOAxCvUgpF9x7MOub7lSwbVyDazj+pniz3BMIOJBmhcT85nRQrevSlcqaM9MTQ57YCh+7gqNFpEcamZ4jv8ASEdL9TowO7yXa1ysPc+V6b2UeRFCCCE2LZtt092GPl5iZ8+L2/TGVLFURqS5Sj7O91w12NZPcwPzWIn92s+pqfri80DmJYAoCy2Fp7hY/7grVQcxalRoK4xpYB2zUtIZh1RgJq5yUcdCwf+hrlSNAeikQL0L5yC68ytXNE2LtDaMEwX0fP2uKxnWk5/KtHv2Id0rOr+Ga6EGhmuhwJ5ITKo6FrqTcS1Eb6ixISqVCZkXIYQQYhNyoFm3o3LsTxMq7d36LzQYjbQmpCVKPpY0NN/7uVK7o6p755qxIToMMi8Raly0A6aOhRoRjMVAVxSiE6RNsWc4ODJqKjA3REjoyMGbm1yQT60JN/8futiD8yW/8ZyT9DIMQJgylty6mWn9RECIhmA+TnYl18+wbziIkigNKWOcP4TIEoblHRcmiBbRdBWLwqcqXAvpaaSNYbyammkj8yKEEEJsQnY263FFnu0zrsJGLq21tVmJvKDosezn+y6N2/wRJXbxsG6d68ZRdBhkXiL0cGEsmIXCzTxdtWgJTNoUxzLr5AIXtS506GJmS/Kbhmn5h4tIBcX5HBOFKAsRD2asYDpIUzvXhSkinYsuYHu7mFyLcSEShBlIvnYME+lqo128vvEual9ogUz0hOsg1Yxr5bVwPbRejsK1YNhudrHHp65/uaitwXSRSse1hNP5GTi5pytThzSQeRFCCCE2If5HerM7cmzgTYX2m1fK7YXl8cDAJJuQ5pqYVOuHuXGptbkPFdt5+w2wL+2YvjZYiLZE5iUJoiaYj+kujqNFMdERoi28Sdzg8/ijLlK1ktOsKGynjgTjQStlOnoxiT4KJoV6E1LTSMViT7qJ3eHCZGASOAedxKhtSVdIT4TmYFfYJQ3DQB3NnS72pkCfxzER1LpgzpLBBNHVLKyLoYCfbmtcy4MuXj+Pk+J2rCtTUX+IzIsQQgjxOZBn1u/aQfaLMW5gFsVtXasMTHQdIuLixuXTuM16rNjO361vkxkYQrQlnda8kFZFwTs33ojZLckmIh100jreRZvi0PyEIt2LG3vqY1J94oB5IQ0rXE8XL+a7JIPpYQ9MUTipPxTREoZKYlyaGn5JdIRJ/ZifsJVxKMwPJoaiukwtmTF1P3VhnMJ0tlBcC9EdTBgtlpuDzIsQQgjx+dHj0lzb6/UKe2JBrS1MaUqiZiVZ0XWYH9e8mM14ptQu9JuSVPXAQmxKOq15IULA1HjSqShY50W2JLyZ58Jc0MkLA8C0+Ntch7uoC4nWuUQhDYsb/TAagjnBSKWC9Csm+bMnqVvPuUa4SN3azUUKWXOgdoVIDnNjiBIxRf8+199dDLpszuvGTPG6DnPxOom+YPi4lp1dpM41F5kXIYQQ4nPmnFz787gKm5AwJGH9S9SchN8nPx4+F9S4LInZ/EeK7fzKpmtehdgUdFrzQmoWBoaaE27KK1zNbWccwk0/bxA1KnTUYI8BrlTdwUIwNXT0orCdov9LXdEi+WTYiz3Zm08zOBfRlJbmkYavl0gN+/A1nOfSXMJroXsa0SeMGNeSqgNZJmRehBBCiM+Zfw6w379Wbm80GpFMRiX5ezTM6hfFbO6Dblz26pu4t8l0/yPEpqLTmpfPE8wDHcIec/3C1dX+Z5d5EUIIIT4/trwoz3Z/rcIe/jRu8xNGJIiipIzARE0LX1njxmVe3D6hxmVH1biI9oXMS5Yh2vEz17Uu5sE0p8C9syHzIoQQQnwOVJoNuK3Y9nylzJ5ZGLM1ibksbkqWxKzuk2pbvDhuKxLmBKUyL4HJmR+3mU8V24X5qnER7Q+ZlyxDehnthOng1dyalc6GzIsQQgixifnXQMu5sdD+/FqlvbQ87sYlMCL+75WTq+yVB4rsxnEV9sSKuK1uNDBhFCZiXJbGbP5DxXb+1t0VcRHtEpmXLNPPRbSluZ3NOiMyL0IIIcQmJG7W//kS+9t7VTaxcUila1mt1U+psJcfKLafndHfYjcU2J60UV6W3EYZDbP6hXGbg3HZRzUuov0i8yKyjsyLEEIIsYk4sK/lP1NsR3xUZe/UBSYkNC7vVNmLDxUl/i6HzXf6XDXIfvlahb2wIDQwyI+ZG7eZT5Tahd9UxEW0b2ReRNaReRFCCCE2AecXWsHTZXb4h1X27lqMS2BGlsWtzo3LS4+VJGa9JUdQul+Yb78ZV2HPLw3MzqK4zXmixC7Ka0h/F6I9I/Miso7MixBCCNFCdjbr8bs+VuBfmd/WJPvkWv9niu1IjMua0LgMSRTnr3Hj8sqDRbbXqWnGHfgf6u5X5tuv36i0sW5cZj9ZYpd8o7tSxUSHQOZFZB2ZFyGEEKIFHJFjA64qsANHFNn1T5TZPsHDaYn3sNgjxXb8R1X2dqNxcdFR7PlSu+upEvuh/zHONGfOvuEm6aZC2/WBYjv86Bz7SvCwEO0dmReRdWRehBBCiGayjVn+HW5c3qywNz6otjVTq+zF4QW2hz/FAOrPcFKuDXu5zC75qNo+WkuL46DGZaYbl+dK7Jbj+tl2wdLm0qxIjxDtBJkXkXVkXoQQQohmsGuODbypwA4YV2Gvh0ZkcdzqJ1fYC/cU2q4HJnUvPTfPhrxSYRcvidmyRGvjoL3xvBpb/FSJ3XZyP/tmsFSIzorMi8g6Mi9CCCFEE+zmxuTqPDtoQqWNW1lr6xvNCHUrcVs7sdJGDi9JRGASdShfM4u9Xm6XLY7ZkuhcljluXEaU2B3n59nXfdmWrBWiEyPzIrKOzIsQQgiRgW3Mcq7Jt/3doIxdXGt1iZoVzEjElLiBWTe50p65Otf2/EUf+9KrZXaxPzYnNDiJVLEaW/bfErvtzFxKWGzzht2F6NTIvIisI/MihBBCpOHr/SzvpkLb741KG7ecVDGMC6YlqsCgLIpb/cQKe2Fcmd20qMbmhqYlMC7vPF5il5440L4VbC1EV0DmRWQdmRchhBAiBb8caDnUuIyvsPGJLmGYkWTjkqQ6Nzjric7wva9fO9jWzKux93yfv/uWJQ07C9FlkHkRWUfmRQghhEhit2LrfU2+HfhWpb22ojaYbh81KkRhQkUfD6Iw4b9n1dg71xXYUdv3stJgayG6EjIvIuvIvAghhBARvmw2IG2NS7JhSWVgAi2NW93bZXa3b1ncsLMQXQ6ZF5F1ZF6EEEKIgB+a5d1aaPuRKrYSU5Iu4pLu+4iWxqzuw0p7+qFi28m37tFwBiG6FDIvIuvIvAghhBDO78z63Jhv+4+vtHEpa1wyGJVUj9f58YtjtubtCnuOOTCHy8CIrofMi8g6Mi9CCCG6PDu5cUmkilXYmGWDbV1K4xL9PpVSmRvfZ4kbmEkV9vz9BfbT4HRCdBVkXkTWkXkRQgjRpTko10rvLLYD3qq0sUvCGpdkQ9IS8xJdiwly0Ub57Ur779Ol9os/m/ULTi1EZ0fmRWQdmRchhBBdmksH2c6jyuy1dZiNYRHjgZprXKJKtd4N0Vp//M1ye2L/PrqJE10GmReRdWRehBBCdGnuKbY9Jza0RN6wQL81xiVU8nFDrH5Nra2fWmGPHdY/MWF/s4azC9GpkXkRWUfmRQghRJdmRIUVP1dqv59aZeMSBiZa79IaA5PCuKz3x96rskdvKbJd9utvucGphejsyLyIrCPzIoQQQpj1fKzM9nYDM6bRwKDQvCQbklRKtXao1a9siLg8fk9BomWyEF0JmReRdWRehBBCiAY2f6rUfv9elb28Im7L1idHYMJ/p1OycfHjV9Xayvcq7cmL8uwHvr9SxURXQ+ZFZB2ZFyGEECLA/yh2f9QNzEfVNsWNR/NTyFI8vr7W1r1fZSNOzbHv+dbdGs4gRJdC5kVkHZkXIYQQIsLVg2yvmdX2UaL7WLKSDUwqQ+OGZ50/9l6lPXxDgf3It9yyYWchuhwyLyLryLwIIYQQDWx+Z5HtPLXSHloZtxUJU0LkhQ5kYQQmNCvJCo1LQ43L2qkVNuJW1bgIIfMiso7MixBCiC5P3Kz/Gbn24/eqbUQi4oJZcbmJWbcoZssTRfyhQUGpjIuvXz3YVn5YaU9cmGPf9203b9hdiC6LzIvIOjIvQgghujoFF+bbAVMrbdTqWlsVGhc0udLGPFRo971dZROXx2114vGoiYmIVDFqXE5rMC6qcRFC5kW0ATIvQgghujL5NxbaYR9V28QVmBDMSTCockKlPXNFvv32hP627fBi2+fdShu9kkhLsoHx9UzP9+cfvWuQ/dj33KJhayG6PDIvIuvIvAghhOiS5JsV31Bof32/2l5PGBY0zOqX19q6KRX2/Om59nNf1rNhtW1BG+V3Km2sP98YmUFuaNa8V2lP3NxgXIQQ/0PmRWQdmRchhBAdmrhZj0FmfYNvm8Pm++dY9bWFduy0GnsnYVpCIzLElr9bZU8fk2M/83V9GpY3svljpfYHf378ilqrCyIuqz6stifPb5jjooiLEBsi8yKyjsyLEEKIDs35+faTE3Ltz180q/FvmxwE+Y8B9uWHiu3KWdU2bS2mJTAvy2K2dlyl3R7MZendsHpDzs2zfo8X2z5Tq2zCkrjVf1RlT/ljP/SnujesEEJEkHkRWUfmRQghRIflLDcOo8vsocnV9sbYcrt03742NHgqJQf3tq8+WWpXzayxTxtTxVzL47Z8fJnddFmufSNYmhZf0P9BNzDPl9p5dxbZXv6QuooJkRqZF5F1ZF6EEEJ0RHpcmGffdwPx4KfMZBlm9UtqbbEbmQsvz7fBwZoo3e4otG88XWLXfVQdMS6DrX5h3D6dWGG3HNbbvhysbQ5EeAa4WpKuJkRXQ+ZFZB2ZFyGEEB2Nbhfk2Q+fc+OyKG7LEyYkqFlZErMlr5XZRb/ub7FgrV3r668vsB+OrrCH59fY0sRaP2a9G5dPa2zeK+V2xa/62NbBciFE9pB5EVlH5kUIIUSH4uRc22lkud2/MObGJTAtiZbFwb+Xx2zu6+V2abFZBesfLrKfvFluTy+M28rQuNT5+o+rbearZXbyrYVWndhYCJFtZF5E1pF5EUII0VHY7Kw8+/6L5TZ8DqliYcQF4xKVP74oZnPGlduVbmKOnFxpD/r3DWliw1x+jBuXaSNL7MRj8qwk2FsIkX1kXkTWkXkRQgjREUjUuJAq9mmYKpZsWpJE97CZ1bZwUU0QofFjFsdtzXtVNnlkmZ3yuz5WEOwthGgbZF5E1pF5EUII0d7ZgnbEz5baAxvUuGBSGBgZVZKBaXzc16+stVVjyu2FK/Ltzwf2ZUalEKKNkXkRWUfmRQghRLvm1Fz70YtlNnxBzJalNC6pzEr0MV+/pMZWv15ho+4oSvzdy2nYWQjRxsi8iKwj8yKEEKK9ssVZOfb9kW5c5lKcHxqX0JxkMi/Rx/2YZTFbM77cXjgux7YJ9hZCtD0yLyLryLwIIYRoj/S4OM++919qXELjksmgRJXqOaIvMZv/Sqmdd/YgiwfnEEK0LZ3avDCddstAW7gY/pRtOAd7c46NmYYbvdbW7sPrC6+lrV5vc5B5EUII0d6gqxg1LvcvSpcqls64RJW0Zv1gq3MDs3B8hV30JVN7ZCE2AZ3SvJS6fuI6wnW+62LX8a69XENdG2MyQjAH/nvK9nWd5jrPxfl2cLUk75W133Md5jrXdZaLPRlshQlpLvSd39P1Dxev+STXHq4y16ZG5kUIIUR7YrOzcm2nUWX2n3nNqXFpSsnH+F6L4zZ7bIVd8rv+isAI0cZ0KvPS2/UD179cI10LXPWBVrnGua5zcXM9yNVa8lzscavrXVd4Ds73mAsTkxhi1QT8gjvK9aRrrivchz1vcf3C1d+ViR4uDBOG5TXXShd7rHONdmGqvu5qiRHaWGRehBBCtBd6nppr279Sbve7cVm1gXFJZUSao1TH+L5LYraYyfpvlNjg4NxCiOzTacxLT9cuLswDN/ArXDNd7wea4Vrq4sZ+rGs/F8agpalVGKTfu8a4OM88F/tzs8751gRfT3FlinqUu4iyfOxiH47BtHzg+tTFdb7s+pWrlysVGBKMy32uJa7Fro9c7DPNxetd77rZta1rU6WRybwIIYRoL+SckWf7fFBlE9dnw7iESj7W917vX9+vsnGTKuyHwbmFENmn05gXbuLvd2FaVgf/3sf1DRc37r92ESnhOW7on3ft6sKMtATS0f7rYp+JruNc27noNIKpwXBgPD5x/dmVyngMdB3p4gafiNDjLo4lDe1bLlK+5riInvCD2d6Vynhs5SKStMiFibrShVn4cvCV18u1YGz4IW+qib8yL0IIIdoLW55YZJUPFduFH1XbrIR5aYvIi+85L2ZTHyiyQ58uSWRoCCHahk5hXoigEOngJp2b9UddP3Z1d4VQo/JN139cRDrQta4qV3OhluZqF8YFw3CsKzpJlxSu/V1vubiOR1wYpyhcB0YrNDmksu3m4tgQIjb8UDAky11nuIpdUfq4DnWF6WYYlWGuKDu6nnBh1t5xYeCi70lbIfMihBCiXfG3PBv6cJGd+161fZIwL0Rhks1Ic0xMqjW+35xqm+D7H+x/wHODUwoh2oYOb16ISAxx3eniJr7ORVQjVcSDG3eK4Se5WEvk5Nuu5sCxu7vedBERwRRQVJ8MBucCFwYH8/F3V9SYMH2XaA0pXpitc1wYkWSItjzl4jpfd/3IFYVz3+PieVLFMAzJEFX6o2u6i3Q26mhIV2trZF6EEEK0Ow7uZ0MeKLbzplfZxysGW11jBKa15iU4fla1TX6u3A7xU/RrOJMQog3p8OaFzmGkhj3o4kZ+reu3rlQQ9fiu6xkXa4mekDrWHHijaARAUT71M0e7SP9KBjP1Oxd7c447XDWuEFLMiAyRLsbNPVGXVLD3pS72wCz9zdXXFYIJm+wiMnODKznqEvJV1ysu9iEiRB5uNrqtZULmRQghRLvkiByrurvIzplVYx+3KPqS/Jwbl3VugObU2DuPFNsBeTIuQmwqOkXk5Wsu0sGaY16+4wojGkQ/mntz/UUXN+OkYFHwT3OAdClY1K284eIcdD0jahIahj+4MDZEiCikT2c6eF20Tw5T4UhXq3UBkZwrXGF0B2OTLr+Wx29zsQdNAUg1G+BqS2RehBBCtFsOz7WtplXZ4xTYb2BQUCoDk+oxUsVq7O3hxbb/ITkpP8wUQrQNnaLmhRfBzT036GHaGN3HksFA7O0ibYxoBoX3FMk3BwwIncE4B2/WV1ypiuiBFol3uYiuEB2hcB/DwfoTXOyBiORkatnMnBaiJaR8Ea3BeEGR62FXaEioZenmSgXvw8muha75LloqV7raEpkXIYQQ7ZKt+1jh06V24Lwae7MuYkQ2MCahWYkqutY1q9omPFKUSBVryWw3IcTG0ynMC6aAiAbtgbmhp1CeeS/R2SasoQsX0Q6K9TEVFNc359MS9sEgzHKF+2eaoktdCQMnMQsU1DMgk3AyRoLHQ/NyoitaD5MMZiVMMWOGCzU3wA8qTH3jNdOcIB3sj3ma4uJ1k8ZGl7K2BNNFu+ZRru/zgBBCCPF5c+sgi48ss1M/qLb3V2FIgrSx9bW2rtGYpDIvEeNSN8TWLonZ6+PK7E++5aacoSaEaIAPDLif7tDmBWgDjEnAYNAume5bfOrPsEgiFdS6MGkfM8EcFWas0NUrXfQkCrUmGB3aF2MYaMOM60sH58OY0C6Z1C7cISaJDiSXu0LzQjF/Jmi/TCMCzAsmhVoaoG6GdDT2YC4M3cvSQWobs2IwP6znB82+2YJUPEwZ71Eo2j4z+4ZaGwwXzRMkSZIkaVOLv098iNfr//rZkPHldtnimC1ZH0RPkBuRZe9W2fuf1th8Nyb/MyqpjUv9jBr76NZC++tWvRN/69k7sb8kSZtMZBBRF97hzQvEXFe5qCkhTYouXcxzIT2Mm/fQfGBswvqR5kCNCPUn1Jdw/H2uTBEbUsEwJnT5Yj0F9XQZw/DQnpnH0F9dmSCl7UYXBoj6nINdgBELWy2TnkVnsnSQTvZTFylcrOd9oCYnG2D8MIB7umgb/Q8XKXvU2GASac9MmhqpehgvomOSJEmStKnEvLd9tu1uR75QZvcti9u8hGkh4uKaV2Or7y20cfv2t1uuGmTPT6u2paGpaTQtEfPyfpV9+o+B9kC/ze0I35cPBvW3TZI2nfhwHHH/TP36s650teMdAj5d+Z4LYxEWuafTAy5moKSrE0mGiAlvVNS8ZMpxxahwEx+msXEzzzwYPqW5PngMHe7KBO2QGUKJeSGahIHCMJCKFXYQw7zQbS0dvEaiH6RwsZ4amkyRmpbAtdCmml/iGEJe5zWu51wYSCJP1OZc5CLixBBNSZIkSWpr0dSGbIsLv9PL7ripwN6aHXMDgmnBmAyz+o+qrf6mQpvy7R6Jv11nD+5m11yWb6+/V2XrGtcFpgW9VWFLjxtoz/vNBn/PyKjQ3zVJ2rTi/2vE6A/q1wlQDHV1SMg55YYeU0I3MDqOceM8wTXGRXcwbtrDmhXMwHAXM16aY2CIsrQk8oJ5oQNYaF6IvBCNIfLy7+Ax1FTkBfPCsaSNYQYOcmEYMF7RyAtpZOlIjrwwFLO5s22aA6aM60l8uuXay0Uob7aLa+OPB7Nm9nOReidJkiRJLRXjAegkyqevqZ6Pir83rPvLT3rZtQ+U2FtLY7YmYULclJD6Na/Gpj9SZA/s1NtO8nX8jWL/33+7p/3jvmL7z8wam70O4/K/9e9dOciu9ZsNOnZS66K/aZL0+YlxJURdOnTkhSn5ODFu8rlBJ12MX0ikRzFjhXQyUq1Oc4WGgroXjslUeB9Csf2BrmjNS3SyfjKYFOpvwpoXbuCJ3iCcI3sgDE4mmNFCgT2vi05nhMrgm64wkkLNS9iFLBXUvND9CwPHen7QX3dli7DmhUGbiMGYhNG5rtEuUsp4/1B/SZIkSWqB+NvB35b+X++XaP1P1gPfp/ubQt0lz+fv1df2erXcnl0x2NaG0ZM6NyNz3YhcP8iO2adfInMgul/iPKfm2dD/FNtFH1fbJ2uH2Ho3Lu8+UGQH/bKhxoX99TdNkj5fxV3cw3fYmheiLgx6DNOowu5eTLpPhhdLof6HLtbSEesnrqYgekFUIdptDMOUDs7N5Hy6jWGSMFK82dzYM32fPRBtkzN1G8N8kXaFeWFuDBEUoBaGOh72YLp+U93G+JTobRdG6m5XW/+gf+YKu42RyieEEEK0muFF9nU3EycML81Y49nIyQNshw+qbLibjwWJFLBA02M25fZCO7a8oclPWo7rb/ERJXbx0+X2wINFdvBXMo81EEJsWjp8tzG6DoTF8cxDoYAnU2RhW9cTLm78mU5PKlYmAxHCJP4w8vKkCwORrlMZkR5qQDAdU12EuDgHUQqiP6F5wUilGy4JnHO8C9MxwkX0CGjFzDWwB9P+SdVK166RqAhmDhO1wEX9SSbjlQ0050UIIURWuH2QfXtihT0wO2YLJ1baI7cUJVKV05Fz4SD7xbhKe3QV7Y+HNURcSAGbVmNT7ilMNJbJaFxCjhpgX9yrb+JcfPgohGg/dPg5L4R5z3BRpE9HLgroMqWC8UuL9sPc+C91UVjfnF9MGKKJLo4jykO0I129DAX0r7pYyw38zq5wwj4DrSi+5zk6j2XqeoaxInrDWmplwqIkXjPmiEGbGKq/uNLV4JCqRt0MezDQkjobHmtLZF6EEEJsLFscm2vbT660u92IJEzIGv/6TpX958SBicyEDT60O6q/5V4wyP44vspGhWliiWPituajKht7bUGiuQwdMoUQHZsOb15IxSIti8gCBoYcOOpc0kHOKnUk3MxjXijEJ3e1KfiFRyetZS7qOTAM6TqO/cZFlINz3ONi4n4IjQVGumgqwKBJJvengr2JktS5aELAp0WhySLiw3UTbeI1Y9jSmaAvul50cS10ZsBIpYvSZAuZFyGEEBvFEf1suylVNtyNy/KoGVnt30+ttAeP7peo/0ywnxuXmwrs71Mq7Y1EjQtpYqwfbPXT3cxckWc//WlOYuyBEKLj0+HNC+lYdArhxhxDQC1Ipu5b3MwztT40L3Qvac7NfFiIThoYaVz3ukgPSwZzRB4eKWx0CGNYJaltIZigf7lIWcNwkdJFUX0yRHrC1LDJrl1c0TQ1fmk/7uJ5uqrxfDKkjFHkT10MJggj1ZwGBRuLzIsQQohWc9kg+/bkChu+vNZWJIwInb9C+fcram3lFH/+stxEpkPlbQV25LtVNml18Hx4zLRqe/bu4kQdZqq/s0KIjkmHNy+kY33ZxY05N/IYhlNcTNZPhloPiuQp2CflioJyamCAehQK7clvpZUw7Y6jcB46k9zl4jykYJHWFf0kB7NAcTzdzlhDZCWsUwnBbNFggNbNrGEmCufk/CEYHAwQKWHUzRCBSX491MrwWogEsc9lruQ1zHOh4B9Th4H5s6s59T0bi8yLEEKIVnGTG5dJlXbv8rjVfca4hMLAxG3du5V226PFduGkCnt7PY8HNS5L4rb2gyobObw40fEyTNsWQnQOOrx5AT5RoZXx+y5u5ImO0O2LlKytXNSK0PXqny5SvohC0L3rAFdYK0LEhMJ/brh5M4jmJKeTYTCIZBDpwBBQ+0INC28c5yGKQ0oY10BUhdSuVKllxS6ujzWYDwwRnwwRycFMEY3BHJEuRsrXD1ypokNEXzAnRIJIITvbRR4wKWQcw3R+roUam6tdmdLpsonMixBCiJayRSJVzI3Lilo3LsmGhbqXpMfWuElZ5Wp8zo3Lsrgtm1xlj52bn8hIUMRFiM5HpzAvQNSEoTWkWGFOKHTHxGA03nS94wqHTPL4sS5efJiKhWnAKHAsKV+8IaSYJUO7RM6DUcLA0O2LcyCiGzzGuc9zpTMLfApEtzIK6WkyQAoZ+2GoSH9jwCPXSQQHE0Vf+VQQ6cH0vODimjkvrz98vdTDsM99LqIw0ehOWyLzIoQQokUc28+2JxVspZuPsF4lIYxJaE6i/w7MSqP88Xk1tmxCud16c75t41vyN1II0fnoNOYFiGhws3+7K6yB4eYdEcXgxp70MibjJqdYEZ25zRV29yK17IeuVNCqmIL9x1xh+2SEWSBVjHSuTF3EANNEXQvREjqThR3IEIM0MRzU2GRqpQxEhzAwN7mYrRLugWizTAMDjMumSBcLkXkRQgjRbK4dZN96u9LuW15rKzdIFQvNSmhYkr8P5eZlXa2tf63chh/WP1EHI4TovHQq8wKkV23tYqgkaWLXBaKdMilf1MekCiNTkE99CiaAQn7MT6Ze8rQrZrI9rZYvdV3lOs5FqlpThiMKhovhk3RMI7XrEhe1NF9zNddwEMnhh0dNC+lodEXDFGEiNkWBfjIyL0IIIZrDZtcX2DfduNy9ghqXaMQFpTIqaczLWjcv7/g+ZzS0UU43h00I0fHpdOYlBBNDyBiTgfh3urksIaw52EUKGLUkFOhnAtOAEcL4IMxGawoDSefi3OE+7NmaX7y8PjqbsQdf27olcjpkXoQQQjTF5kRJqHFJ1K1EzQhKNijJSvH8arqQVdp9RzS0UVahvhCdk05rXloDN/1ELJjAT2pZc+a/iM8i8yKEECIjJ+fadu9U2X0ram3pBhGXVJGVdEpe6/usrLVlvu8Dpw383xwYIUSnQuYlgAGQtEgmvYwOYqRzidYh8yKEECIdWz5YZN+dWGn3uHFZ9Zl2yBtjXpDvtzxuayZV2n2PlCY6jTaVdSGE6FjIvARQp8IvOepeCnhAtBqZFyGEEKnYbPc+9oUXy+zWxFyWjTEuUaUwMHX+9aVyu8PPR3dPpZAJ0XmQeQmg7oQ6EfWE33hkXoQQQqRii2Ny7GevVNjIRKpYqs5i4fctUfKx7Ov7jym3F0/Ktb12/PxqQIUQ2UfmRWQdmRchhBCp2OzUHKsaXmxHvlVlE9eGRiPZhDTXxKRa7/sR1ZlYYW8/UGR/P6cgMXNNkRchOg8yLyLryLwIIYRIy059rODmQjtsUqVNWB4YjrRmJJOS1/s+K/3rlEqbdFuBHbFLbysKTimE6DzIvIisI/MihBAiI/6HIue6QXaYG42xbmCWpzUk6ZS8bojV+z51vt9bNxXYkXuZ5QanEkJ0LmReRNaReRFCCNEkO5n1wcBMqLSJFNg3u2Vy8nPBcb7PpFvy7ch9c2xAcAohROdD5kVkHZkXIYQQzeKvOfaL0WU2LmFGouYFhSYlNCrJ36OhVr/Ov1LjckeBHfFLpYoJ0dmReRFZR+ZFCCFEU3S/s8h2Hl1ut8+ssVkJQ4J5CdUc8+LGZYV/pcbl5nw7YieNOhCiKyDzIrKOzIsQQoi07GzWA+MyqcKeXRiztaFhWeemZGnM1qyM27qUBiYUj/vzblyocZl4Y779be8cGxhsL4To3Mi8iKwj8yKEECItwwtt14luXBa7UUl0GnOtcSMyrcqmP1tiz75VaePW+veNBiZZweMTKuzt2wvsqKP6qzhfiC6EzIvIOjIvQgghUpEzocz+PC9moxbFbH3ChAyzeua9vFtpU/5bYsdclGc/uLvIDqKN8mqiLJibqHHx71k/qcIm31NgR+zZ24qDvYUQXQOZF5F1ZF6EEEJswI/7W+4DJXbo7BqbnDAkGBf/ujBua9+utLEjiu2vXzfLY+2OfS3/lkI7/J1Ke3MZEZhwvYu5MO9U2aSbC+yoPfuoxkWILojMi8g6Mi9CCNF52XJHs77+i7578H1TbPY3NyMPFtnBc2vs3brAhGBIVsVt3Zhye/GqPNs7eT/aHd9YYEe4sZmwOoi4rPGvkyvs7ZsH2dGHqMZFiK6KzIvIOjIvQgjROenx0762wxkD7ejr823X4LGMxPzm4tFiO312jb3TOMvFjcjyuNWPKbOXb8q33wwx6xcs34AD3fTcWWiHT6q0d9bUunGptPfuKLK/HayIixBdGZkXkXVkXoQQovOxxd/z7Huvldt9b1bbe6+W2UNn5Nj3gudSsl13G/ZMqV32ccxmhGlf1LgsjNuno0rt9qtzbc+8NMYlZEezonvdwLxSZvcML7Yj9+hlJcFTQoiuicyLyDoyL0II0bnodsQA++6LFXbX6lpbW7+V1c+N2bL/lth/LhpgO/jzySlk3Y7sb9s+WmKXLHKjgmFJ1K1gXGptvhuX677ezb4SrG2SXLP+O25p2+aYJucLIWReRPaReRFCiM7DFr/uaTuMrrC719Ta6sYIipuRhW5gnimx4efkJSIwmzcsty0PH2A7PlVqty+N2ZKEaQnWr4rbkqfL7JofdrOv+rrNGpY3m5auF0J0TmReRNaReRFCiM7BFr/ta995vcLuXTrEFjcakbB2xTXfDczzZXbfcQPtm75+83MG2K6vlNsjC2KR9a65NfbxM6V2xkkDEzcbodERQoiWIvMiso7MixBCdHy2OGqA7fiqG5dltbY8kfqFaQnFDBaMiRuUWTW23A3OnePK7agJFTbi05itSxiXwLy4wZn6dKkdP9CsPNhbCCFai8yLyDoyL0II0bHpdiA1LuV2Z6LGBROSbFxQ+L0blOVxW+0mZv7qeGBc/HF/bP3sGvvoxTI71vdMzHARQoiNROZFZB2ZFyGE6Lhs8bOe9p1XK+yuVYNtRRg9+YxxiRoYno+uCczM5EobfUeRHbJvbysK9hZCiI1F5kVkHZkXIYTomGy+d1/79rgKu2fpYFu0gXGJmpVQyY8Fa+v8sbk19tKjhbarOoQJIbKMzIvIOjIvQgjR8djiHwPsuy+X2d3Lam1FyhqXpsxLIIZRflxlI48eaN8O9hZCiGwh8yKyjsyLEEJ0LLr9qa99Z1S53bm21tY0WeOS6rno8378vBpb/HSp3XtRg4FJngMjhBCtReZFZB2ZFyGE6DhsvntP+/ar5XbX8sG2LGWNS/jvdEphYNb5HgtjtvS/bmDOGsCgfCGEyAoyLyLryLwIIUTHoMeBA+07Yyvs7sWDbXEiVSxTjUtTih7DPm6EZtfY0pGldvdZefZ9/+OwRXBeIYRoLTIvIuvIvAghRAfg2iL7+svlNnwl7ZCbU+PSlJKPCQzM3JitHl1u/zl+oG3tp5WBEUJsDDIvIuvIvAghRAfg9TL72exqm5owGWHEJZUJaYmSj3Xzsnqo1c2ssdEnDrSd/bSqfxFCbAwyLyLryLwIIUQHYGyFFT9Vakd+WmPvbmBeUpmQ5ij5mCDy8lGNvX5jkR16QL4V+2k3bzi7EEK0CpkXkXVkXoQQouMw8NESO3Rutb3VagMTrouupfDfNbXaXrumwA7082jCvhAiG8i8iKwj8yKEEB2Lfi+X2kHzauyNNbW26jPGJPp9KiWbFzcta4ZY3Yxqm3BFvh3g++c2nEYIITYamReRdWRehBCi45HzWKEduzRm81sUgUk2Ln7s2qG2foYbofPcuJQo4iKEyC4yLyLryLwIIUTHo/zuQrtoRdyWJ8xLslmJGpR0jwU1Lu9V27jL8+3AfjIuQojsI/Miso7MixBCdCDOG2TffrrMLplWY++sq7W6qBFpjMKERiVqVqLfBzUu71fb+H8X2MG+rYyLEKItkHkRWUfmRQghOgA1Zjk3DrL/e77c/jO7ZsPp+otrbMmCGptdhzEJDUzUsCQZlzVDbP2Manvr0nwV5wsh2hSZF5F1ZF6EEGLTsJmrVUMfv2I26Op8229ChY1aFLOVCYMSmJRlMVv+YpndeneBneOm5r20BiZ4fN1Qq5tWY29e4MZlsFl+cAohhGgLZF5E1pF5EUKITcCpebbtoX3tp/5P5qe0hJqnSuyUGdX29pK4rU8YE6IubkamVdvHo8vsnJsL7Qt797TKB4rs0Dk1NmUD8xIqOI4alyuVKiaE2DTIvIisI/MihBBtzN8H2tZPl9k1oyvs+adL7bRf97Cq4KlMbHHsQPsW9S0za2x6wrCgYVa/IGbrJ1baWN/ruB/1tIpgPeQ8X2p/nV9jkxJmJTQxfgz//qjK3rxexkUIsemQeRFZR+ZFCCHajs1Pz7VhDxXblTNqbC7mY1HM5j1TYqecmmtlwZrP8MuBlvOvQfZ/z5TZPcvoKBYaF9eSuC0ZU2ZPnpNnv/Ol/RuO2IAcP+6weTX2fhhtWTPE1s2stomXNgygVKqYEGJTIfMiso7MixBCtBHHDrQvPOjGZVaNzV4fGAkMxYKYzXmp3P7pSz6TQpbrhuS6Att/fKWNcuOyIjyGr8vjtvSJUrv5Lzn2vS+Z9QkO+QxH9bdcN0yHzY/Zh+v9uGnV9tZFBXZw3GxQsEQIITYFMi8i68i8CCFEG3DIAPvSYyV22Yxqmxeaj8baE9fCmE17sdxOLzcrCQ6x73a32hHFdvzUSntjcTw4JjAvs2vsw+dK7cx/5NhXfenmDUekZ6gbo0eL7a/PlNsNdxXaMf6QjIsQYlMj8yKyjsyLEEJkmWNzbdjjJXbpR9U2pzFyEi2eR/74gpjNeLbMTiFCc2GufWNkmV38UZVNTzxPnYqvWeomZk6NjX+pzI72rVta7J8z0GzrGtugLkYIITYVMi8i68i8CCFE9vhfjUtoXJJNS5Lmx2zuY8V2w6gyu3dpzJYnHg8Mz8KYLZtYYSPvKLHf+N69Gk4hhBAdBpkXkXVkXoQQIkvQVWyDGpcw4hIdFBnOXEHB80tqbHGjceExNy++x/zHS+zWy3Ntp50K09e3CCFEO6bLmJetXN919U18lx0Gu37uOsp1vOtPrm1cvV3NhbXfcP3edZyLED57xl0MH2su/CB3ctGu8gTXYa4fuj6PfGSZFyGEyAJhjcvH1TY3NCApjUtUoYkJIi3h+g+qbcIDxXbmMTn2Nd+6JX9fhBCiPdHpzQufLHFTf41ruGt3V6o2kC2B43/iusL1pmuNq941w3W368+uIldTlLv2c/3H9ZGLPda73nBd7uLGv6lPxrq5+EN0sut51wIX+yx1PeM6ybW1q1UTmFuJzIsQQmwkx/e1oY+4cfkwNC6hEYmal/D7dI8hP25VzFbfU2Tn+bb80RdCiI5MpzYvmIy9XE+56lxLXLxYohqtpbvrF67nXBiExa65gTAOq1zcuP/NlemPBM8RIZnqWuHiWPaY52JPDBE/lN1cPVypoDPMtq6bXRy3zPWpi334yvcIk4WB2VTIvAghROvZ7NQ8G/pAsV0xo8Zm10VrXEKDksqkRJ+PPubmZVnMlj5famfs0LvFxflCCNHe6LTmBeOyt2uMK4yMfOCitePG/PL+vutRFyblfdc5rp1dP3Id7iJqEp7rt65UxqOfi6Fek1xrXS+4OHZH166u812hgXnIRQvLVNS6LnGFhudW169d3wu+3u/iWua7znAVuDYFMi9CCNFKDu5jWz9cYpd9kqnGJWpOUilpzdpaW7s4Zu+NLUtE6ZuTGSCEEO2VTmleSLWii8poFzfvaKTrUNcwF9GT1sDNP2aBSAkRDYaBRacZU7/yVxfRFM55n+tLrihES7ZzPetizUTXr1zROpkaF2luC11Ei4jQJNeu0CGG9DRS1cJzJZscjAOvm+ffcv3UtaWrrZF5EUKIVnDUAPvy40V2yfSwq1gYdWmuaQkVro8e43t9GrNpL5TaP/fslX4SvxBCtHM6nXnBHHDDHJqDla4nXaR6bUxLSGpLiLC85qIuhbSxVBGRKhf1KkRNPnERUeHYkFwXKWUYk+Wui1w5rmSIwnAOXgMmjO+jDHXd5uJ5zvM7VzJEnyjgx+AQKfq3q3FwWRsi8yKEEC2j21H9Lf5EqV0xvcbmbVBsHzUj4ffNUapjfN+FMZvzbKmdMapYc1qEEB2STmdeSKW6xYXB4MaeF/YzV7q6keaS7zrNRYrWbNeJrjxXMpgnuo5RD8P5qUeJ/oGguJ7GAZgJUtroLJYKzneViz1WuzBB0egMkaUJLszZ7a4vulLxdddYF/u87sIEtXWXGZkXIYRoGf2Oy7Vfvl9t49clGxfUUuMSKtnABJGcj6rt7berEzWVQgjR0ehU5gUz8XfXdBc361NctCDORntkWi0TCVnnGu/aw5Uu/WwHF/UsXAMdwKhBwdQAdTgYIMwVkZN0hfSsP9JFdIZ9iOaQTgZEci52kb5GYT51PJidVJDqRgc09iACQ63NxnZbawqZFyGEaBndjsmzIc+U2bUzY7agLSMvS2I2f2SpnTeqovFvihBCdCQ6jXkhmoBpeNVFZzGiI+e6eIHZgEL9aS5MAC2ImecSGpJkhrjuc5E6Rk3Lvi6MDtfILBf2QE21rdzTNdkVFu5/0wXUvzzoYo+ZrnSNAYBUOSJG1M5gdGgwQIvmtoQUPczLiy5mzQghhGgGpw6wLz1XYpfOjtmshHkJIiUtNi/h+ugxvteyuH04rtxOP6iXlQanFEKIjgYlGDS36vDmhagLxoA0Km7qmZ2SrRfEjBSiCbNc7E23sUyfWJEmdoGLuhaOOdZF9AeD8S9XaF6YwZKpDgczNsJFihmmjE5kQNMBfmDsgaGiFicdnPMAV9iSmY5kHN+WhJGXl13Mw8G0YfR4HyVJkqTUSnwgdkRv+8rwEvv3rBr7ZPVgW7vR3cb8+LrBtm5V3Ga+Wmrn9jSr5DyOfi9LktQRRf02GUgd3rx8x/WIi6gL9SanuDAG/HKmwxZKFylpCrqXMUxyjgvDQAviTK0meQ5jgnHBTOEOBwa6zBWaF1LcMtWfEN25y4V5+dC1jwuYyB92EaMl83dd6SDiQ9vkcS7eG5oXUHeTLXhvaFLwFRed1WKuMHWPqBMpbUSMuEbS5yRJkqT0+rZru//rbfvfX2RPza2xpY3Rl9CUZDIwqZ5z8zKv2lbfWmj3xbsl/o7wwRh/M1OdX5Ikqb2Kum1EZhIZTmRCUdbRYTnMxTwTbujfcZGSRSthTAxDGsmNo1UyLzpVd69MDHD9xUWtCvvzhmFE0kGdCTfwH7tYf72LmhQevzZ4DNFWOROYgZtcFOwvch3kAowA9STsQYRje1c6qI+hRXK4nuL9b7myAcaLmh1aRvMfEMJA0hiAVtLU63zketNFq2bMjCRJkpRezAp77hs97bn/FNsHi2ts9Qa1L6FSmZRUj7nxmRez+n/mWn3RFonOlHTM5Bz6nSxJUkdT+HuLmnZKIZiTONjVISEli/kroSkg4oGB4Rd1+BiiYJ2b66NctBpuLuTWYTSi5iWTAcKoUGwf1siQqoVxISJzXfAYooNYJjAGrMe8kPKFQQPqb15xsQfmhUhMOjAvu7tGuVjPD55P3bIB5oXuboe4uE5MGubsKRdmi/eL/7Dudd0jSZLUyUVzFKLlfE31fCZxHB9WPfKV7jbzsgKr/6Da6uswI5gXRAQmNDLNMS++dmHMZjxabPd+rXvidzR/i1pzbZIkSe1J1IFjYGiKRZ15hwTXxS/l0BSQZjXXxaf+7wbCSFCDwvMUuVO4TrpTc1LJiLJgNJobecG8YJBC83KjiyL7ZPPSVOQF83KDi9fDBH1mtmAYCJ1FzQtDL9OBeaEzGsXzrKdTGmkJ2SSsaQnF0E2ui2gP9TjR5yRJkjqjUpFqXbIaU4d362v5pw6037xSYSOWxW1NaEDW+9clMVuxJG4r+fdnDEwK08LXhTX26dgyO7vX/4YpJ/+uliRJ6ogqdjEnscPWvPAitnUxOyU0BRSKn+yiwJ3nqB3h36SOhXUrdPE6wpWuxXAUWguTshUey7mIpKSD52gegEmiU9ilLhoKoHB2C2JYZSYYgskMF8wLe9G1DEj7CiMp1LyQu5wOal72cjFThvW41EyRmmyAWcIwUpeTPFxTCCE6LYWFiTrAFnNunvW7r8QOnl1to+qG2HxXXcKEDLX6WdU27aEiu//xYntoTo3NSFkDE36P/LjFMVvwYqmdceKAxuJ8IYToLPRz0QCrw5oXug4QiXjMxc05ZoEicVxZMqSKUQtDLQpzVujgFbYfzgQGgAn2Ybexh12ZJhPTgvIsF/l4C1zU3WCA+KOGgWIPdLwrOn0/Ga6NlsiYFwZSMmwTvuz6r4s9iC79yJUOuo1hesgR5L0hhSvdbJlsoTkvQoiuRs/Lc23P96vt3/cWJgYVN3ue1sX59t2xFXblh9X27jrMx7BAblKmVtuUe4rsxKP62fanDbRvPl1ql0+rsU8bU8iSjYs/vihus18ss7P/kZPILhBCiM5Gh5/zgnnh5p06C27miY78wJUOUqzCtRSU03mFPTJBqJ26kTDyQscuJto3hvuToI0yucvUqXATT9Smp4vznO5iD3SmK1P6GW2GKbCn5oVrxqQBxolrYA+MGFP6070GzkurZtLoqEOhNqja1ZbIvAghuhK9T82zPSZU2LNr3UC8U23jL861P/jjTTWHyXuwxPaYVGX3z62xNQlDEpiSxbW2gijMfYWJZjGNM1n+mmPbPFFsV8+qsflhZCaMtgQRl5ljyu3crXpm/IBNCCE6Mp3CvITzULiZJxKRybzwRyCcOE9LZYrNe7uaAtNDcRDHcVPO8MV0URPS1FjDWmpTSFkLzQW1M5gRnrvaRWvhdNCemTobWhxT+xL+gAiX3ekieoShohYm3R9JOqWFHc5oYECqWnNS5TYGmRchRFeh118H2G5vVtoT6wZbHWZivZuId6tt9Ol59jv/xczv4GQ2+3VPK796kB06rdrGrau19aH5qHMtrLElb1Xavafm2PfiKQYQnzTAvvxIiV03p8bmca7w2IUxWzCmws4paftBxEII8XnS4c0L0Q9aCtN9IDQk1Hikg3QybvzDtdz4ZxoUGULecBhNoZ7jQBcmIhVMmA+L+6mPiQ6F3MlFutpaF4YrXU0IHdTOdWFQ2OdEVxiloc6HVszUwVDIzw8w3dBMzk3HL/bAfBFBypSqlg1kXoQQXYGehw2wXSdX2lPLh9jKMGrC11VDbO2HVTbmLDcwvm6DFLJvdrOtHyy28z+N2furAsMTRlA+qrK5L5bZxXcWJv4gM58sFZufNcC+9HiJ/fsTIjDDrH5J3BaNKrUzzylUqpgQotPT4c0L0Mo42iqZNKl0RZPUizzuYh03/gxwTPcHIgr7MTeGYZEMnqS7WapCSK7lDBf1Jcw6Oc0VvRb+sNAhgT2ooSESkirli+tkkj/XSVE+9S6YlhBmvTBXhedJLUtV94JJwUhwPOuon6G1cVsj8yKE6Oz0PG2A7T7RjcvKWluTqFEJ606Qf08U5V03MFcWJAwMtZOb3VVkP3FzcuvHNTar0bT42lW1Vv9Ghb0yosSOObVf8+YW/CPHvvpcud0wrtJeeqHUzv1Dj4yRfCGE6Cx0CvMCFEiGBfXUg5CqRb1HlBLXP1zvu4ho0D6YbmSAMSCdiknx1LMkF1vyPI8zXZ9zYGJ+74oaE8wCbYLpdsYa9ifSEoUoD5EZ5tCwhujL113R+hm6lVHkTz0LJihVehk/OIwRJojXQtcFHovCawsn9BOlIXe6OSlyG4vMixCiM9PrBDcur1XY4wmjEkRNPqPAnEyuslF3F9lBr5bbvhMq7ZmFseC5IN1rca3Nn1RpD5+eb7/xvdN98JaSMwts+yNyEr9zlSomhOgqdBrzQiexy1xLXNzMM8CGQva4i/kqdNhicOTbLp7nKxP3iZQAc1hIBXvChUEh9Sz5Rp9Pzii+J20MU0HkY28XPfSppdnFRVSHGhVS0ogA0R45GQopw2tl9gw1KQyexDxxvVwX5+A6mcvCvpw7CmaHAn6uYZ0LM4Qx44fIa6HuhhbNXCciUtSSwZwbg8yLEKKzkkgVm1BlI9YMsbUbGJewbXEoHnNzsrbW1q2I28LlMZu7ivktgWmhs9iymC0cXW5X7tI78cFZa1J6+WCtrVOBhRCiPdFpzAu/vGktfJ+Lm3lu2JnlQvTjOReF80QyiHbw9VQXhiOMeHCzzwwUDAN1LbRDjtaqhHDMP10Uv1O3MtVFTQnHMr2exzj+Gleq44E0MWatUKdDVAQT84aL9sdcL00HuE4MCVP1UxV8AnUxdEsjbQzDxDXxOp91MdeFNs1hdOfHruakx2UDmRchRGekx5H9EjUuTy4fYisaoyfJhiX5e9aEa/ne/41x+ajapr5Rbn+7a5DSvYQQogV0GvMCdGUhGkHEgRt6WiFz8x6K1ClaDlNnklz7wYunuB4jwVrSwtJ1LSM6coKLIYzUzYT700WMYnxmydBEIFqjkgwGhmtlaCUzWDBc4T60NSb1jQhMqnk1UYgc0ZKTaNEMV7gHwvww5JKWy5siXSxE5kUI0dnoeXq+7fZmhT25arCta6xxiRqV0Kwkfx8qMC/zamzxO9X25LhS+902TbdTFkIIsSGdyryEkPu7p4uZKre5uLH/t4uJ+kyjT9UljCjGzi6iIUROSCsL56qkgs5f3JhTm3KLi9qSc1w/dVFb01yYuUL05HwXLZxvdjFkk+vkmpoDKWXUt/D6qI/hNWCKqAMi+pPJRLUFMi9CiM5Er+MG2G7jKuyxxihKaEjSGZXoc+H3HOuaXmPzni5NdJNsUX2LEEKIBJ3SvABRGD7Roo6EAngiFPyhSNXZK4TnmfsyyUXty1auTJCqRmE/56DOhPMl16Y0BxoLkBrGHtTIYFoyXWcqMChcP6+TffjanBbQbYHMixCis9DrkAG268RKe2L1YFvdaFwymZaoUqxbPcTWfVRto0/MTfyuTNdyXwghRGo6rXlpDRgeojXUnlBronB+65B5EUJ0Bnqf4gbj7Sp7ZvngyByXFIYko5LX+z6rfL8PquzVCxvmwMjACCFE85F5CSDaQRE9qV9Hu5jhEm1fLJqPzIsQokNzxUD7wn+K7YgJFfbCmsBwpDUjTSnV+sAITamyl24qsAN+1DPRhXJTp/gKIURHROYlgNQvBj3SlYvWx6L1yLwIIToym506wPYeU25vJExGKuMSft8SpTIwrrHlNuLbPY06x5amCwshRFdE5iUgrF/ZlF25OisyL0KIDs1OPe3bz5fZg2kL9MPvW6Lk43zfNf7Y6HK7blDDIGJF+4UQomlkXkTWkXkRQnR0ci7Kt13Hldsjq2ojrZFDE9ISE5NqrRuX5XFb/WaF3fJwSWJGGTWXQgghmkbmRWQdmRchRGeg2+H97ccTKu2RZYNtYdjqeKPNC8al1hZPKrfbz8yxrwXnEkII0TxkXkTWkXkRQnQWtvhFH/veW1U2YvVgW5swL1FD0pSBiT4fmJ/VcVv2dqXdvm9v+0pwDiGEEM1H5kVkHZkXIURnos9TpXbGzBqb32hCouYknYlJfsyPWx639W9V2M1n5iciLqpxEUKIliPzIrKOzIsQorNQ9HCR/f7dSntqYcyWJgxJ1LygZAOT/D1qSBVb+Val3XZNnm0b7C2EEKLlyLyIrCPzIoTo8ByfZ0MfLbET36myiSviDQak0bjwle8zmZfQuBBxqbXFkyvszhNU4yKEEBuLzIvIOjIvQoj2AHNTWjP4sfsevWzbp8vt8gUx+3R9aFZcy+K24pMamzKvxj5YHbfVjWYm2bCE8udXxW3l5Eq7bW/VuAghRDaQeRFZR+ZFCPF5U7Tdlvadn/SxLwbfN5fuR+fZT8dV2QOLau3T0LTQKtmNzMpRpfbgPYX26xuKbK8x5fZAwtiEEZhk+XHL47ZuQoXdfGm+beN7q8ZFCCE2HpkXkXVkXoQQnxu1vax0ZJmdMr7KHnmm1C6MmcWDpzJy4ECreLTU/vp6pT2/uNbWJma7YEz868yYzf5viV13To59z5duyfoTc+3Hb1TaoytqbfUGc2AQNS5xW/5mud1+uWpchBAim8i8iKwj8yKE+Fw4Nc9Kniq1fyyI2Sf1W1n9vJjNuK/Qzti9R0YDs/kjpVb7fLmd8W6VfZyItGBaXOvciCyM2fu+57lDu9nWwfqQ7gf0tx9PdAOzbLAtTxwTRGpWxBpqXI7srRoXIYTIMjIvIuvIvAghNjnb9bHC50rt+IRxCUxEnRuKRTGbdXehnV7bw2qCpVG6HdbfvjGuwm76NGYLo/UtawfbulnVNuGOQXbIvr2tyNemSvvqsX9/+79xlfYI6zEwK+O29u1Ku+33ve2r/nxram6EEEKkR+ZFZB2ZFyHEpqbglTI7aWHMPgrNR1h3gqGYF7OPHyq2M3xd1MD0/9dA+5UbjYcWx2xxuJav82NW/06VPfLfUtulzCw3WJ+OnicNtF1GV9gTftyyqZV2z/VKFRNCiLZC5kVkHZkXIcQmY5feVvRMqZ3gxuGDRtMSFY8Ns/pPYvbhgyV2ylY9LP79bvble4vtyImV9tKyWqtLmBbqVnzt9GqbNb7Cbrqn0H4QnKI59DhjoO38Vrmddlu+7RA8JoQQIvvIvIisI/MihNgknJBvxSOK7Vg3LjNTGpeo3JwsjNu7dxXaBbcX2A3TqmxawrQE0ZbltbbGjcuU+4vs3L/0s8HBKVpKd5e6igkhRNsh8yKyjsyLEKLN6Ws26IVSO+7T0LhEzUs4dyVpWOT6wVa3PG6LlsZs2TqeC45bGbf1b1bYc+fk2h8P6G3FwSmEEEK0P2ReRNaReRFCtDUFL5bbiXQCS2lcwn8nf8+6MNoSPOZ7LH6j3G6/cVDi91VOw/ZCCCHaKTIvIuvIvAgh2oxf9raiJxoiLh9GTUijMpmXqNzILI3ZkmfL7J5f9bKvB9sLIYRo38i8iKwj8yKEaBOOL7DCJ0vsmAUxm7FBtAVhUtIZlVTPDUtMzf/kziL71/aZ58AIIYRoP8i8iKwj8yKEaAvyXyi34+bXBIMkM6WKpVKygfHj1wy21W5gPrivyE72/SsbTiOEEKIdI/Miso7MixAi2xQ+X24nzk+ucUkVUWlK0fVB/cvsuH34YLGd3sOsOjifEEKI9onMi8g6Mi9CiKwxusKqXy230xbEgohLshHZGPOC2HOY1c+N2/QRJfav4/NsqJ92y4azCyGEaGfIvIisI/MihMgar1TaT2bV2OQNIi6hCWmpcQmVfKzvW0cEptomnZtnP/PT9mw4uxBCiHaGzIvIOjIvQoiscVK+1T5UYpcuidv8xBT8ZAPSUgOTfByGyI2LG6Qlz5XYLac2RF42bzi7EEKIdobMi8g6Mi9CiGyyxc59bavHS+3COXGbmTAwGI7QfESNSCaF66LHBcZlRo0tfLrErj85L9EyeYuG0wohhGiHyLyIrCPzIoTIOnlmQ54stQsWYGAwHShqSqJGJZXCdeHaYI+5GJdiu/G4/pr1IoQQHQCZF5F1ZF6EEG3CsO5WO7zEzl0etwXrh1hdWmOSrOTn3bRQ4+LGZcHjxXbT6fm2jW+vVDEhhGj/yLyIrCPzIoRoM44YYN+dUGEjl8RtTWP0JZVBSX48/J5j3LjMrLGFT5XaTefk21d9WxkXIYToGMi8iKwj8yKEaBNuHWTxF8vslA8q7a1lMVvbaEaiJiWTeXHTEhqXZ4rthmP72zeCrYUQQnQMZF5E1pF5EUJkmy2uKrCal8vtgpnVNj9hRDAtUVOSysSECteTKhazhU8V200nyLgIIURHROZFZB2ZFyFENtly/362/fNldvWsGpsdmhC+LorZojk1NmNVra1MPJ7KwPB9YHCocRlRbLeck5OocVFXMSGE6HjIvIisI/MihMgaF+fbd9+utAc/jQURF4yLa0aNLR9Xbtf9t8z2fqLELlkQd2OzVcSshArMjq9f9HSp3XRmjn3Nt92sYXchhBAdDJkXkXVkXoQQ2WDgTfm266QKG76i1upC04IZmV5tM0eV2VVXNXQJs/5m8WfK7KJ5cfskXBM1OrNitvDZYrvx2FzbPrGzEEKIjorMi8g6Mi9CiEaerrGcW4qtwv/Zp+GRpikxyzs/3/Z7s9JGrSL1K4ierBpidR9V23v3FNjZh+VYdbA8QbHZUAZZJibxB+vr/Ou8mC14otRu0hwXIYToFMi8iKwj8yKECNnilXI75JlSu/24gfZb/35gw8MZyT1/kP1peo29vmKIrQ2NCF+nVNlbVxbY3/7Qy0qDtVE226OvbfVAsV24DAOzldXPjtnCRI1LQ4Rmy4ZlQgghOjAyLyLryLwIIaD7iFL7/fuV9sasuK2YWmVjLsqz3/vj/Rqe/iwHD7StHyq2M6ZV2xvrMS3DAvm/J1bai5cV2n6DzIqC5SnZs49t/USJXTqq0saNKrU7z85TxEUIIToRMi8i68i8CNHF2cMNyv3F9tuplfbactK+MCBDrX5SlY26IM/28SX9G1b+jyP62ZDHSuyiD6ptXiLSEmhZrS3/qMqevjTffuXL+jaszsywbvaFYwbY7/2YHYOHhBBCdA5kXkTWkXkRogtzbbH1frjA9n6n0sYtjzdETcKuX9SgvFNlL5460H7jSxNGxN3Flqfl2nZudq6YXhMU3CM/ZlXcllGwf3jfhAnpzvoWoKn5QgjR+ZB5EVlH5kWIrsvmjxbZ76dU2msr4rY+YVxC8xJ0/1o5xNZ8UGUvn5Kb+F3R+4Fi2+H1cntkbswWrAs7hPkx82O2bGy53Yix8XXdErsLIYTo6si8iKwj8yJE16TH48W2jxuXVxOpYsnGJRwYOczq1/rX99zATCy3c9+ttPsWxmxtwrQE9S2zamzWG+V23sWD7CvB3kIIIQTIvIisI/MiRBfjz3nW7+ES+/U7RFxC4xKallCheUE872ZlUczWLa6xNeH3S33NB1X2/vNldvbhvaws2F4IIYQI6XLmpZeLWQPZSEEgn7q3K8c1wEX+dmv25RiOZQ/2Ys/W5Gr3dNHFh30ohu3h+jyQeRGiC3Fp3Ho8UmK/wbgsZ5hksnHBtCQrNDCRdWtqbc3blfbG7QV21O59En+chBBCiGS6lHkpcP3F9VfX1q6NKebEBH3LdaTrKtfNrjNcu7pa8keXtT91neq6yfVvF3syBRoT01yGuv7kOt91q+tS1x9cg12buTYlMi9CdB02f7zIfkeq2LJ4MAU/akqiZiX6ffQxX7/Sj3232qY8VWKH7NXfcoO9hRBCiGS6jHkhsrGv6w3Xg67vulp7U1/sOtD1iGuWqz7QKhc37Ke5MBNN8WUXhudV13JXuA97svd+rnxXJjA4GKYbXO+4wj3Q2y4e/4FrU0ZhZF6E6Br0fKjYfuvGZXTaGpdko5LqMT9mda3Vzay26XcX2P6+7xYN2wshhBCfoUuYF9KyuIl+1rXO9bDrG67WQEoW0RuMwRrXNBfmY7RrcvDYYtfFrpgrFZgmIiKXu+a7MC4c+7JrjGu6C/Pxlos/5OkGumFIdnY94cI4zXO97mIfvi5wsc8DLtqMbqq2oTIvQnRyjsmzfvcX2q/eqbSxjcYlNCOhogYlWSkMDF8nVtlzZwy0X/spmjXPRQghRJejS5gXpivf4sJYcDN/X/BYS8F0cGOOWWGvV1xEYOKuKtcuLowE51joIj0tlfEY5DrZNdO1zHWni2NLXUNch7o+cGG0OAeRk1SfRH7NdbdrhQvDQxRnGxf7bOsidWy9C2NDOlq1a1Mg8yJEJ+Zas25BjcvY5WE75NCEoGRjkk7husja1UNszdQqe/H4gfarvAyT+IUQQnRZOr154Yb9ShcRDkwF4oa/NeaFvTBBmIq5rkNcFNiHYDD4xJAoDOf5r2sHV5QtXT92ERlhzSgXUZGoOcHcUAMzw4XxuMhV4YrCeY92EeVhH15j8hoMzD2u1a6PXH92UdTf1si8CNFJ+ZJZn6dLbN+gxqVxJstnDEn4fVNKNjC+38rBtvb9Knv5kjzb20+p+hchhBBROrV5wQSc4IoaF8QNfUvNCzf93JST3rXWNdxV60qGGpUzXRiGRa6TXNHC+yLXP11EXD51EYFJVY/CbINHXVwvtSzUtURrdIi6ULvD81zT7q5kmEaNmSKKQwSGiFONq62ReRGic7LlPv3t65Mr7flG09LaqEuyoscEs15GldnI8/MSkWchhBAipNOaF9oh/9E11UVaFQYGQ8HN/r2ulpqXEtdlLiIdRDEOc0WjLlF+5QoNE4aBVLAQIjHU3nAtfCUKkwpaHV/gqnOxz3Gu8HyYmINc77uWuoi6pDJSQFc1ojuhyfmJq62LYWVehOic9Ngvx77n5uXRFUNsZUrjEv2+JQqPDQzRsritm1RpL71SmkipFUIIIUI6rXnZzfWiC5NAhOIa18cubuL/42ppwT6RkLEuzARpYZiOdDNd2JvCe87FDXzUMNBBDDPFPte7KNxPBwYlLLq/zhV2MKNNMzUsYfra4a6BrlTwOB3H2OMT1xGutk7DkHkRonOyGcMojxtgu42vtEfqQrMRNSAtNTDJx/h+i2JW93aljXys2H42NZ74IEcIIYQI6ZTmhRkppHVRVE9rZIzMXi5uqFtrXrgJpwaF459yfcmVrtUyBfzMWlnpIuXrABdpZ3T7Ik2MPdBZrkxGglSx8S4M2AgX7Z2BgvwwpYxr4rVRS5MKzkvUhk5kGCHqZ2gu0JbIvAjRuel56kDbZVylPbqm1tYn0rySzUhzTEy4hq9BxGVJ3OrfrrBn7ylM/P77vAbtCiGEaL90OvNCJONaF4XutDEm0kDLze+7PnS1xrwQYaFwdLaL42m1XOlKR5nrbBc1LYi6Fz49JGLCEMnQvBzvoi4lHQzBfMjFa6HAn2GW8EUXzQDYgxS2nVzp4I8/6XOTXJggmhW09Q+amw7S9Ua6vsMDQojOx2kD7ZtTKuyOxYNtVmg+WmVegmPX1dqSOTX24IeV9r3gFEIIIUQy1JJzn00wocObF0wDAyJJpaI2BaNAlALIm+ZGvzXmhXadtERmX44nqsO0/nTgCDEmtEIm+nOJiwhLnusKV2he/ubKBEX5t7swL0RYmJgPRJbCOhaK8TMZBMwRkRlS3lhPnQ1dyLIF5ojGCJg5RMczurDxXr/m4pqJ9EiS1HnE/+vUAdYcO8AOmVZlb27QdawpA5P8nB9L57LnS+29k3MTLeY5B79LOE/yuSVJkqSuLe5jKYl4xrWVq8PC8EhqREKDQkvj6AsiGhA+RxF9S27gqRuhQJ/Uq/B4zpcObuYxJuGwyRuDxzA1RIV4DFGrkgkiLBxLxGSJC1MApI8xiJI9SM/azpUOokZ7uEjhYj1paN92ZYNw2Cav4ybXzS5qcYgK0WltjgtXTG0Pr4M1kiR1bPH/Mn80rt2qu91yb7GNXlJjSxqNS1SpDEzyY0Rc/OvIMlvy0z42vvtmiblX1Cjqd4YkSZIUVfh3gSwiMnxecIX14B0OiuGJLoSzU4iMJDsxZqkQpeD5O1yZCuWTIWrCp4HNNS+0Sz7SRdoa66l/IVJDm2Ru5HkMNWVeCIVRqI95ocgfA4VhIAWO4ZXsgXnJFEXCvNBGOYzUMLU/efZMa+Fa6HKGqcKUIWpqnnQxpJNoEe8VraP/5SISJklSx9W5Lv5/Pmv7nvbQlQU2/5OaBgMSGpG0EZhksca1wte9XmmTjh5ol/fePJFie3pwLkmSJEmKir9B57muclHT/pyrQ5oX0qK4GacOhZtzunjhyigaJ+Lws0AUx4dpX0QtjnERjRnmohYlE6kiL5kK7TEv0cgLhiWMvBCZ4DFEPU4mwsgLaWOYAVLXMAwYsWjkhTSydGBeqJUJIy+kj1FLky1IqaNBAa2niWbRmvkfLl77ONefXKR+MF+GdZIkfb6KuRi429L/JzmGNNyvHNrfDhpTYU8uj9vyRsPiJmRutS35uNreWxG3JY0mJtm0REzOkritf6fKXryqKPEBCL+LSQdIdW5JkiRJ4u8XX7nv5f6Ygv0OlzbGjTyOi3QlohOhKUAMkqSVcCiGNIbPYXD4nu5bZ7jKXZmg4J+OYaRBcfz9LoxIOniO4Zi0JsZ40BEBs4MJita8/N2VCWpeSKEImw/s4wJ+aBTDswfRpEyRFMwdc2eoP+F184POZs0L8HOIivOp25gQnYzd+lr+Gfn22ylV9uzauK0Joyekfc2psZlPl9itp+faERMr7P7Vg211aGo+Iz/Gjcu6tyvtxfuL7afbNHzIIoQQQjQH7rM7bLcxIiZ7uhi+GBqClupSF5/2ZYI2xL91zXJxDG2K+RQyHTQOIKyFOSLaQ6tiIhRcL4+H5z7RRSvjdFCI/7gL80IUg5bPQHSDIiX2wNTs7EoHBfX7u6a4aN1MA4C2dqk/d73rYs7Oj3hACNFu2GxgQzE8H8o0m9peVnpnsR07u8bGuzFZEUZP+Dq10qY/WmRnXZ1vtf6LLu/ogbbz2Ep7tHHNZ41LvRuXUfcX2m57NR35FkIIIaKQ4UQaWYc0L0QVGB5JPcopLmaopBM37aReccNP22AKQo910ZKzOUPQMAhh5IU366suogypoA7kLhfRIIwVqVOYCOa8nOoKzcs5LtLJ0kHaGzUq7INhCgvt6fLzhIs9qCsh0pHuk0tuDHj9FNAz9R/zxI1LW6I5L0K0Q7Yyy72r0PYbX2E33FZk+/pDzTIwf+ptX36oyM55r8Y+SJgRNMzq69yITK6yF+8ssKN+3SMRzg/pefoA2+3NSnti1WBbm5gDg5EJjUuVPfdwcSKdN918KiGEECIdHTry0hKIAIQF+3QpIHrREjArRD9IvWJ6Pq2X081o+aaLQiLORSeEH7owLkAUBCPBPnTsIc87FRgj6mxo+cw+FCeR5wcYEgr5acNMZIfmALRhTgXuFOMWGh1yyzM1G8gGMi9CtDN+1s/ybimwAyZW2NukeU2ttpf/lW+/8aeICqej2zV59v0RxXbD9Gqb22hcXMsG29IPquyZ03MTkdZU0ZMeh/a3nd92A7N8iK3EwCyL2/qJlTbywbJExFwIIYRoDV3GvBA5CYdU3usiYtMSil100sJMfOyiXoUalmQwHcw2obUx58I4RFPMiJ7QjYuaHDqAYYJSEZ0Jg0k5ytXHFYIJwiAsd9EQIJ0J2sb1qot93nT9wBUaqbZC5kWIdsRuZr3/XWAHv1lu49eQuuXmY+0QW/dulb140sBE5PYzBsZ/SXZ/pNj+b2K5Pb0g5uYjiJyQ+rUibisnVNjdh/ZNtG3PNAW/x0EDbZfJlfbU6lpb/k6VvTK8wPY4UDUuQgghWk+XMS+0C27tkEqgNoWb8okujAfdzVLVjtBZ6zIXa+hOhsmJRmgwQf90YW4QbUGZFJoMNwW0gON6aQGdXDuCKaFxAM9TX8Knn8lwQ0KHMswW18Psm6aaE2QDmRch2gnf8t8D/863AyZV2GtLam19InKCCfGvq4bYmver7eUzBtqvfWk0hazPyFI7YF7MXlsaCwrzOc6Ny8c1Nmt0hV1476DEB0C0qW+KXlcNsl8+VGIn315kP/FfXKl+3wkhhBDNReYlgE8CScsinYHC+HAyfwgRFQr7ac1GyhfG5GgXb2AIf/yZ3fKOi/M84kp1HowI3b9YM9pFy+bop5dcx9UuanSIrNARDdMTJcdFNIamAOzDdSVHXzAOoQHimkgR2RSfeMq8CNEO+LpZ3s0Ftv+Echu/nDbFgQFpVFCLMrnKRl3uBsMPyft6dxs8qsyO/iRuExpNi4vjp1TapGfK7JQ/9N+gvqU58EEKs66EEEKIjUXmJYCIBFEQIiukWWFCktPCMDBEOBgQSSSDtQxVo+if2SvUqISDMplz8kdXNNUrhDoUWilTg0Ix/ggXaWC0QCa9jQ4K1MVwDgrzeTxVqheffDJw8//bOw9wS6oqbS/AJnbOffvm0MAYR0bHMWHCwZwGI4qKApJMoGD4GcWEARGQrDCgSJKcg4SWnKHJTc5NaLrpnPjXe+5ZbXGok6tOh/t9z7Oee++5dWpX7dp77fWtsAuCA5mC8FDkz3tcSAWJyAznolC/lJDlBZEXQVjF+PwoGwNxubHTbl6SRlxCigTl3m676Kfj7LunTLbfz+m3p1YW2fv/5vbb4hldds3Rk2yXtvL1dYIgCILQCgwZ8oJRD1nAmD/N5T9dkoDMxFvreQcM2/xSpF8KdiYjFYv6EbYwJvLxeFGedYGMsH0x5KQcWYAEEV35vQvbL/P2fArvuT7+hmxwDRT7Q5bKbafMTj1sBkCEZ54LaWh8n/M85QKp4RqpieGdMbTbCoi8CMIqBDUuh46zHW/rshsXkioGCUEgK/GyyJAigVniBOXFfntufp/NTZKaRQO2+MoOu+iACbbNzhPq215ZEARBEHLAkCEvkABIAeSEaEbpW+YhE+zoBQnhGHYmK/eOErY3/rzLcS73u3A8wkspiers5MK7XqqBNC9Szyjgj7f/I2yPzFbORIsq7QQE2OXn3S48RHZD410unAPiQsrYT1wgYa3cklTkRRBWEd5sNvKw8fa1GV12w5wBW1GIuEBESglL6d8cQ7QljvfPnumzJy/tsD/9aqxt5adOiyILgiAIQqsxZMjL6114r8oRLpCL0pdMUnNCEfxBLtSaQCAqvbme2hHStthZjJdNUoTPW/iJ6NSzyJOaBvngmiAaRGxI+drUpZ5dwajHoV6HDQJIf6Me5v0uyZqcVkHkRRBWAd7Edsjj7as3d9pNCyAlEBGISRpZKf07pEhcZvXYY2e32QFvGrZ2LwyCIAjCGochQ15qAdEJSAR1Kye61FuUKgxC5EUQWowvjLWRf6bGpcNuLGyHXCQhBSlHVJL/i7/5nstdPXbz/uMK+lCpYoIgCMLqBJGXBHh5I8XyZ7iwdai29GwMIi+C0EJsMcU2Pmy87XB7l10/f8CWpUZc4u80iWMSxy3Y1F68v9v+sfeowpvwlTImCIIgrC4QeSkC4kL6Filg27poR53GIfIiCC3CFmajDh9vX53hxKVijUs1KT1+c3tp0TRbel+3Tf/N4IssRWAEQRCE1QEiL0WMdaGI/z9ceIeK0DhEXgShBTh0lHWfOtm+cVOH3bQQ0lGpxqWapB1fJEIzuu3SQyfYlz67kbV5s/XU4gmCIAhC1hB5KYJthHlbdKu2E16bIfIiCC3AT0bZJ6a321UriUYlIlKrpBEYl1s77KL/3qTwTqtW7lwoCIIgCKUQeREyh8iLILQAW21ob7t4qp1eSBNjm+NKJKRWKf1OsYD/tk77e/swe403KwePIAiCsCoh8iJkDpEXQWgNxhw80T52c6edt2iaLWuKwKQdu5m9tKjfXrqr0869cKp90NvTzmOCIAjCqobIi5A5RF4EoXXYYNcR9oEZXXbB/Gk2PzV9LElIyknpsZvaSwsHbNHMLjv/kEn2nmJbgiAIgrCqIfIiZA6RF0FoLTbYYaRtfWuXnb14U1uwYlNb8Qpikvy7VFKIy9IBW/JAt52376hCnQv1gIIgCIKwOkDkRcgcIi+C0HoMo4D/+i67aPGALX1ZBCaNoCQ/T/7txGWFf3Zft519wDh7L+cdPL0gCIIgrBYQeREyh8iLILQeo/Yba1+9vcuuWcKLKim0T5KSIC9BVkr/RpzwLBywFfd22nl/m2DvL55XEARBEFYniLwImUPkRRBaiDdubFMOnWC73tlj1yzmRZUQEcgL0ZckiUkjL/E/P27RgC18sMsuKEZctKuYIAiCsDpC5EXIHCIvgtAivHpD63DissfjvXbPkk1taYGsuCzrt+VL+m3x0gFbvpKghCRJS1GW+XHUuPx8lL3bT6t3uQiCIAirK0RehMwh8iIILcAuG9sbz2yzAx7rsftXRlrYLtl/v7XTzj9qov3ipk47c9k0W/GKGpgQP5Yal5nddvb/TbT3+WlFXARBEITVGSIvQuYQeRGEfLHObybbm/7RZkc81GvPF4hJUeYN2JxHeuzEPw7WrLT9YIx94I4uO3/+gC15xXtg/PiFA7aM7ZBV4yIIgiCsIRB5ETKHyIsg1Ib1t9rEJu4wxkYV/66KLc02PHiivfcf7XbiU702ZyVxcTKyoN9m39Vlx2y7SeFN+IENdx5jH5zRZRct3NQWRloZsniaLXyw2y78rWpcBEEQhDUHIi9C5hB5EYTqWP8Lm9i7fjPOfnrMRPvaPl22YfHzijhlsn3wtk77x+w+m18gIUXiMqvPZl/VYQfvPtpe54eVEpENvjXCPsKb+OM7ywfspft77LyfDxKX9QcPEwRBEITVHiIvQuYQeRGEylhv+1H2rps67bSZ/fbY7Z127WETbVv/fOPBf6di1AVttt2D3XbFnD5bXiAtxfqWx3vs0es77ce/H2ebFo9Nw0Y/HW0fvbnLLn6+z5Y83G0XHz/RtvLP9QJKQRAEYU2CyIuQOUReBKE8hu05yt59VYedvGDAFr/0antp7oAtv77Drj5yon1+CycpxeNWgq2Qz5hiuz7YY7csL9aqILOdhNzVZbf8o8N+uO0mNrF4eCVs+JNx9pE7u+wPfr6PFT8TBEEQhDUJIi9C5hB5EYR0DNtuE3vXlZ124mK2MIaEFNO4FvYXCMxVR4yzLziBWRmB2XGUdf99in3/6V57oHBs8fgF/bb0hk677FdjbTtnO6OLh9eC9d5sNtJ/KlVMEARBWBMh8iJkDpEXQXgl1vvUcHvHDR12yvxp9uJK4kIkpUhIXhywpTd12D8PHG+f8eMhFz0Xt9v+/vkTK15OXJZd027/PGK8fXpTsxGFswuCIAjC0IDIi5A5RF4E4eVYb4fh9k4nLifPHbB5UatSIC7xpvsiMXnBicmdXXb5le32oxs77KhZffZU4XjIjv+c3W/PXTHVjvnjOPvIOBEXQRAEYehB5EXIHCIvgvAvDPvuKHvX1e124kJqXErftRLkJf52ErNowJY/1mOz5/cXXy5ZjLo8M2CzruywI988zF5fPLcgCIIgDDWIvAiZQ+RFEAax3ueH2zuvarcTlg7Y0iAhryAuSfJSKn788gFb8lyvPXR2m/3+3RvbFsVzC4IgCMJQhMiLkDlEXgTBicsnh9vbbuywk1+cZnNXRlCClJQSltK/41j/ObfX7r9wiu26zxjr9POuO3h6QRAEQRiSEHkRMofIizDUsd7Oo+2d13baSXMHbP7LUsXKRVvKfe6k55lee+inY+xrfl69BV8QBEEY6hB5ETKHyIswlDFst9G25fQO+9uiAVtSiLgkyUgaQan0P//+iwO26LpOu+LI8faZ4jbHgiAIgjBUIfIiZA6RF2Go4lVsh0yNy+JptqiQ+lUpVSxNUggM2yQ7EVp6XYf986BxhRdZDiu2JwiCIAhDDSIvQuYQeRGGIjagOP/GLjtp7jSbU7XGpZokjy+SoBecwNzcaVccON4+55NseLFdQRAEQRhKEHkRMofIizDkcMxEe901HXbqAnYVq6XGpZqkHe+EaL7/vL3LrvnDOHu3N6u35AuCIAhDDSIvQuYQeRGGHK7stLc+0WPTFw/YsldEXOolLiGl33XysmQzW/Fkr938xwn2SW92o8HWBUEQBGHIQORFyBwiL8KQwy2TbJNjJtpHH+2xy1ckCUhIvQQmiEt8zwkRtS8PO3E5ZLztsNMmNtGb1bbJgiAIwlCDyIuQOURehKGK9Y+dZB95oNsuDsLxCkKS/LucJEkLP6mfcbm3264/dKJ93dsZO9icIAiCIAw5iLwImUPkRRjKWPcUJzCP9NgFi/pt7itISfLvcpIkL5sPRlwe6rZbjxJxEQRBEASRFyFziLwIQx6/HmufeLbH7kuNvpQjMfG/+L9/d8mmtuyRXrv1N+Ntez+tiIsgCIIw1CHyImQOkRdhyOOXo+1jz3Tbva8gKCGlBCaFuJAq9kCP3bT/ePtau4iLIAiCIACRFyFziLwIQxkTzp1i2z/TZxcuGLA5LyMj5aIwSdLCz2KNy8weu+HI8baDn1PERRAEQRAGIfIiZA6RF2FIYqcRtumxk+x7D/TYjMK7XookZH6fLX6i255eBDFJEpgkcUH4zI9f6sc82mO3HTG+UOMyZvDsgiAIgiA4RF6EzCHyIgw1rPe9TezVJ0+2A5/otSdWQFqKkZaF02zxnd120QmT7HcPdNm1S3iJZRqB4Xf/fMlmtvyxbrv1t+PtayMVcREEQRCEUoi8CJlD5EUYUvjqCPuvc9rs8Kd7bFZEWyAiL/bZkqs67Kwfj7OPfGeMdRw43j70UI9dtpK4JAVCs/lgjYsf9/U2s3HF0wuCIAiC8C+IvAiZQ+RFWOOw20bWvu0Ie6v/Wle047Qp9vGrO+y0x3vtuZXExcWJy4s3d9iRvxln7/LDNhg82tY50493gnJp4UWWHBs/nbw80Gs3HjXRdvLjFHERBEEQhHSIvAiZQ+RFWKPwP8NtwmmT7bvnt9tJJ02xb315Q+so/qssdhhu46d32Kfv7bYr5vUXCYjL8gF76YU+e/zODjv8K8Pt34qHJ7HucRPtow/22D8Xk0K2eWE75BWP9djth01Ucb4gCIIgVIHIi5A5RF6ENQZfMBt59CTb7c5uu2PRNFsyu9ceP7/N9viwk5PiIa/Ax0fYuLOn2G7P9tr9S6fZskLKlxMXJyMrHuqxhy6aaj/5/GjrKh7+CjijWf+ASfbhR7rtysWb2oLHnbjsP952mGLl2xQEQRAEoQCRFyFziLwIawTebzb2T+Nt97u67NZ502xFpG8922cPXdlh3/dDXll3soH1X9hu+8zqtZkrU742t5fmD9hLN3fZDae12c4/G2tTi0dXwiZHT7SPn9Rmvzpmon2z12xi8XNBEARBEMpD5EXIHCIvwmqP97jy++sk2/XOLpuxKFl/Uvz9mV6774Ip9r3eTf5FKr4+0t70j6l24BP99kgh2lIssn+u31bc1GmXOxn5gh82evDomrC+CxGaKYW/BEEQBEGohrWKvGzkgqHR6/Jal393eY1Lt8tIl6yxiQu58eS1v86l36UewyXAexy4Zs7B9XLOjV3qwTCXyS6bunCezV14uK9yaTVEXoTVGp8bbuOPm2S73ebE5WWF80lxYvJMnz187lT79ilTbLN9R9s7z59qx8ztt3nJd7jM6bfnruuws34zxj7tp153sAVBEARBEHLCWkFeMND7XD7l8iOXY10wnG9zuczlcJevuEAyMPKzAJ5SjPQDXS5xudrleJdvuNCRtRgxHMOxu7pwzVe5XO7CObmXWr2xw13Y0egnLqe7XOtyrsuPXd7pAslqJURehNUWXxhrI4+cZLvf0WW3L4pUMchK8n0rRfKy3H8+22MPXz3VTr+x3S6YD3Eh2lIkLvP6bM65bXbQNhvbFluabVhsQhAEQRCE/LDGk5d1XDZz+ZXLXS7PubxUIgtd7nb5u8sHXJo1Mohq/MLlJpf5Lsm27neBiLzDpRJRWs/l/S7HuTzkssIlzsE5b3GBjEDKKmGCC1urXuzyjEvyWp52+YfLti6NRIQahciLsFri/SNt7J8HU8WocRkkIZCRIC4pBIafTmAWv9BrSwp/F+XpPnvwoin2v98cXtAHgiAIgiC0Bms8eSHq8l6XE13ucLnAhQjIUS5HupzsMsMlDPrzXTi+0fSOTpefuTzpstjlGpdjXP7kcp7LPBfaOcVlC5c0QFz+y4VjOMezLlzXES7/53KdC+egjX1ceEhpGOWynQskCvJzr8tJLpyHn5AizkMk5n9cyK9vBURehNUO79nEJp0w2Xae0WUzFkNQIuKClCMvIUFa/H8L+mzRs312/eXttqefVrUqgiAIgtBarBXkhdoWCmUx0PGCUt9CRAaSwK4/X3QhMhEE5o8uVd/jkAKMf9LCMMyXuJzmgnHOC+i4Dups/uxC5GSZy74uaTsIUaDLNbzoQrRkPxe+C0jx+rALaWhLXSAk3FdptAjy9R4X0uK4JyI1X3MJosNPjCuIEf8nnez1LvRL3hB5EVYrbDfKRh87wXa9rdNuL9S4QESCmKSRltK/E58/22svnD65kJ46YvDsgiAIgiC0EGs8ecEYp1AfwsLPNEAItnd50CUiEZ90qSf6QjsUwp/hQpTjAZe0aAZRHepNOOYGl4+4JAEJCeOeaznThSL9JKhhIRWMNDgIDGlopakpkCIiQERuaIsUs9LUsAEX6mfmusxygcy0wuASeRFWG2w91kYeMcF2I1VswTRb/ooalzSSElL6Pyc9c/psAe9x8VPnsQmIIAiCIAiVscaTl1pBsf5fXIiKYMz/0oWISa2AAH3VBQK0wIU0sbToDcft5QKpoNaGqArpXQF2Ptvfhf894rK7SxqJYucyUr8gOE+4sJMRkaQAhfgRTaLQn4L9UnDeD7rc48JxpNS14iGLvAirBd5rNu5PE2yXijUuSXKSJslj/LtLBmz5C31265Xttoc38cr3wAiCIAiCkCeGDHnhRr/nQhE7hjzEIEkqqoFULyIgkB9Sub7sUm4XL6It1KvQzlkupGsFKNKnRoW0s7Nd3u6SBiI0P3Uh/Yzz8Hu8fRtSQhSFNl5wYbMCanHSQMH/hS6cg80E2MUs79oXkRdhlWO7jW3y3ybYN27vtNudcJSvcYnPyknaMX6uZ3tt5jmT7Ts7Jd4DIwiCIAhC7hgy5GWsy84uRDGCVNTjNX2zCxsC8N1/umzpUu4dKtTgUItCOhfF959wiWO5Bj7nPNS99LiUA8X4EJTlLhCnIEGklbFLGed4ymUHl3LpYKS2HOwCCeJcvDU8b2NL5EVYlVjnq+NsBO9xmdFVocYl/q5F0r7j53QC88j5bbbH0RMK71gSBEEQBCF/DBnywpbC33LB2MfoP8Glnpx1iugfd+G77AxGGlo58MJJdvxi5zFqY3ZxoR6HtC9y5TkHQjSlUvSHKA0EgBQ03iVDgT4g9YydzTjHoy4fdylXv0ME59suXPscFwhTte2Xm4XIi7AqscH2I22r27vskoWQjGTEBamXuCQl+d3ieR/qtpl39RQ2DBEEQRAEIX8MGfJC2hf1J7NdSLViJ7Baa144jh3LIuWMov12l3Joc4GYUCRPWxAWSAoRE+pdgrwQBUnWsZTiP114N80iF6I+pHyBN7hc6sI5qMEJUpMGUsR4zwsv7KT4/1QXNh7IE0Sa7nMhQsUGBoLQUnxnnG12TYcd+UyfzVlZ55JGQGqViLyUkJel/bb0nk47/b6uwtbngiAIgiDkD7KpfuOy1pOXt7nwwkYM+Btd2Cms1t3GiNCw+xdkBMIAoYj6kzTACCEmj7mQrkW0gxQ1vnOIS5AXIkGVAEkhXQzyAnFiwwDwVheIAeegjoW/ywHyws5qvI+G46e7QIqyAulw1P6w01kQNNLdiDix3fPHXIj+bOzCcRJJNWGsEKnEadDI2OH4Yd8aZe85f6od/3yfzVrCLmNBYEpJSC1S+h0/1/Jp9sJdnXbOD0cWIqRcb9q1SCQSiUQiyUZY3xEykNhNd60mL5AUyAfvVcGA56WS9dzsGJfdXOIN9ie7VHpjPSlq33FhN7Foj88gNaST8RnCOSuBd7+wqxlpY6SgUS8DqLdhhzHOQXpWJTLCW/4/6hJkh/fBlNskoBFQP8POZ6TNfN6FFLY/uFBfc6cLL9nEuGPXMzYykKy5Qupk2udZywfXM9v69evbhyavVxg3W7vU2zbfee+7N7FvnzLFrpzdZ4telj4WZKQWElN6jBOXRf7ZZVPt9vdtbD/wdiDoHyi2K5FIJBKJJB/5kAv2ANlQvGqEkopKZRxrNLgxCATG+/Muu7rg0a0VhKfY0rhW8kKEhajKwy4cz1vzIS8U9fLmfz5DqpEX3v9ypAuRF8gLtTO8b+bdLkQ1OAfkhc0EygHywgMn4sLxpI+9wyULcC2QQF7Yx7ttqMMhKsX7bSCKvCCTdv/mwu5up6xlwjgISft/HrKq2uT5IXm2y7lPdDn+PRvbGWe22dU/GmMXr79OYfzweS1jKPqGmrYjRqxjx//vOLvtiW4nL8nUMaQWApNCXPjs72029+0bFsY51/TX4s+065FIJBKJRJKNhB3Cbr0PuVzuspnLWgdSTyhY5yYx3nnT/H+41AOIClGPSBujAyvtVAZR+a4LkRd2FjvcBUJDlILfOQdSLW2M2pSjXSAvEAHeoA9hINJBMTznIG2sUr495IVoSJAd0seyys/nWqjvgQlD7r7pAsEiWkRfcW3sdEbfIfwvT/lGUVrRFkI0jy2zeQFqq9rc0YX22GGuFW3SxldcaJO+5Z7TjstCuLevv3F9+9Nxk+355/rtpes7bcX2Iws797E1eLV+5n8cg0fm+/+9kZ2z3zh74vJ2mzOnz5a9jIDwsxJ5SfvfZvbSwn5bck+nnfG9MYXIKm3RH6169hKJRCKRDGWJ9XZvF4gL9d+lL3FfKwBRiZc5EqWgeL3et8yTX0e9SexUdprLFJdyIMLyYxeO570wvIeF1DNqQsjR4xwIBlmluhuuHY8z5IVr/6wLeJMLBh3noGCfNLJyoOblcy68W4Ytl4mQsJVznoAsUbBP1KXSZgJrPH430sbuVvvGD1kBQtoy/GGsjTy93d55dluhtqrWOrGGcOJk+7f7uuzwxQO2sEAyXJ7ttSvPnGyfctZfy32/6oo2m3ZWm311ZrddtKjflsZ5grSQ8lUgI8W/U4lK6d9+7MIBmz+zy07fd0zFGjNBEARBEPIFQQU24Vora16oMfmZy3MuvFWfWgx2HasX7AjG9r/x4slzXAZcyoEXRh7gwtbEbFFMFIZCI4xc3uwf5OX/ufB5OfDWfIgX5IUaF/L4waYuPDDOQXSHyEc50CYec6IgEKk/u/D9PLFKdhvbq83GfX18RVKZKX49wfpOnGg/OGGSfdYfRKVd4zLDj0bYwJ6jbJudRthb/EYh1bnixHbb6MRJtsvdXXbjUz12zuETMq2Xehm2H26bP9BtRy0fsDlJ0rBiU1v0bJ9df/pk+599yr9byfYcZyP+ONk+eUOXnbyw3x5fsZktSJKWpQO2ZE6fPeYE5Bb/OXsleUGSBCZJWoqytN+W3d9jp+0xohC1bMmzFgRBEAQhFZRz/NplrSMv1LSwy9YMF4x88uPe4tKo5xgjPF5wya5lFMmXM2IIYZGexk5jt7pQyI7XmDQrCnw5B8I2b5WMbXZEgwTwNn5S1aK2hbQ07odzcE1Ek9jtKA2Qo1+4LHAhlYstnKe65ImWv+dl37H2vn+22zEzOu2QLwzPv3jr4DH26mun2lGP9dij97oxfMHUQhpX3hGY9jOm2E8e67Pb3ci/4ujJha2zc4uEvHeEjTt6gu3mxOV23pey0I3/+7vtvEPGZR9N22OUvWFGlx03f8BeeBmpQPzvZf7z0R67+Zyp9iU/vLSf1919jH3w2g47+PEeu+25KM4P8e8/1GOzru20w57us60vmWLvv7Td/u/xXpsb/y+0k0Zc/H+L/bN7uuyUoyYX0jVzjTwJgiAIglAVa+17Xkit4i36GPh3u5By1Uy6DZ1DqhapVze7EF0oV/RPxOReF9omckKaCcQFQGSIxlALQ6FvvDW/FBAj0sogHZyH98N0uABSwX7vQiSFWpi9XHiQaYAcUUTPOYjSUKPBdsZ5opXkZd3fjLZ3Tm+3Ux7rtRVz+2zu9W7E/nxcfgVcJ0yy11zXbofM6rUXMX55g/t9XXbr2ZPsy1vX9+LTmuHMdOrJU+wHj/bZPS/926BR/XC3XXLqlMJOV5mnkb1nE5v010m26+1ddsdijPgiESDlysnM2Se3Fch8jOmmcOQU2+KWTjvGicuCQjtBHJJEokgwnHBce9aUws52BbJ+0Hh7401d9t0buuzip/qK3w/x7zzZa7OcFJ19ebvt+dlN/qXgfjDW3nJZux37RG/xPTBIKXnx7y8YsMV3ddnpx4wvEBdBEARBEFY91kryQhE5UQ3SrUgZ450rhJiaAQX3bPsLWYgIRtq7XjAkKSiCdEB0KNBPRleoN2G3BKIpkKBPu6SBe6BYH9LBTmOlnn2+x85hbKN8sku5OhZ2FiP6w3ko1if6lDdaRV7WP3C8veMfbXbqc302PwzWuf0275oO+8NPx2WfHvfb8Tbt2nY77IkeJy5hVLtg1N/bZbefO9m2+9WYQm1TZnjfhtZ59CTb6+k+e+ClzYttFg3sh3rssv3HF9IG69k9ryK2H2lj/zLJdrm1y2ZAzJLtIcv8Xmd225n7jCuQ9GaI0zr7TLA33NZtR8/rt2Wl7bwiCoL4MU/12nXHTbDtDp9oH/fnfNyzfTav8N0gIf77nD6b81iP3X5Ju/3uPSMLEctXREx+OMbeemGb/eW5IDDJ9v13f6bznZSe+eMxhXdECYIgCIKwemCtIy8U47MTAYXsbItMTlyPS63Am5zmUSbaQc3JtS5ETa5wSXu/CpEUXixJyhg7nLFDWNJwYpcydiqCBEFgDnIhDSwJDEIiO9e5QDrYx7p0h7Dk9s9sDBAvsEyCh8uODLzgEjJFHU5pW3mgJeTlJ6Ps3W6cnvICxmsYn0UDdJ4br7d02UH/voH1Fw9vGvs5Gbqu3Y5w43mwXqLE2F04YCucwNx2wZTCLlRZRUPaj51ke7uB/vDylDaXDNiSR7rtij8OEpiy9SC14gtjbeSRk2z3OzvtVr+f5YV+jfYS7S4esEX399h5+wxGJBpKpfrsJva6GV127CInm4X7St5bEBd+JkmMH7O035bM7bVH5/faIwv6nbTyveLzX+E/5/Tb82dNtT//zPvkkEmFHf7KXd+rfjfW3nxBm/11Vp+9kCQw3q8v3dNtp+0xvEBcmu5XQRAEQRAyw1pFXkgloU6EbYEhBuzUVStx4bt4aPdw4f0rkINSowfDn/SthS5sAAAxSnr3ibCwQUAU9kMuSrdwIx2MdmIHNF7kCPFIRob4/6kutEPkiC2V2a0sCa6XLWzjRZi8rCeZ2kKUhlqYO1z4P0QIItGQoVkncicvPxln7758qp3kRue/iEsYuAhG7IDNurHDDv7ciIqbK9SEQo1Lux32dK89X2gr2gvjuviZG/wv3ddpN1/UVnimzUZDpp40xfZ+stdmFu4RSd5j8T4XT7PlTiQuP7Gt8DLShp/vlmbjj55ku9zVZbfO456S/Rr3Ge0O3uvie7vtnCMm1V8D84NR9obbOuzYFynOT95XaTvJz+P3Yl+XyiM9Nuf6Ljtleoft+O3RhRe81lJYv87PRtqbL2mz4x4nDXBzJ0De1r2d9ve/DNa4ZJIaJwiCIAhCZlhryAue7ve58KJEiAtCzQvpVrz3YbsUYQvhIBd46HkhJFEKdub6uQtbHpcCgwaiwPmJeJDaRZoY73sgskE9C2ThRhfeAprmgafmBOM2NhMgrYst3/DY806ak134nGgJBKhc/Uavy29diOKQPsY2yN9zIdrDVs1EiTgPBIcdz0oJUF7Ik7yst994e8dl7XbyU4lUsZcZuiH+v7n99sI1nXbAb5uogWH73ms67I9P9tjclcZytBHGdhjX/j9SyNjR6uw2+/I2DaaQtTtxOX6S7f1In91bmir2Cin+78Eeu/j4iQUCQ5SwLmy1iU08foLtcnuXzVjCOZOEAkneY4gfU4hQdNkZfq0QmJqI05HjbYub2u1oJ0gvf+s9ktZOfF7ms/l9NvfBLrvswg776a6DkZK6sfcYe9v0djvhQe9v7uePTo6L/xIEQRAEYfXCGk9e8Iyyo9ZWLuzwhbFeqxDZgCxwDmpGMLapU+F/1JOk1YeQQsIb6yFJQRrifEtdXnAh8gNhqmS4xossb3EhikOaWfK6eJs/Bf0YY5WMQtLUDnXhbf6QHVLaOAc/ecs96XPU6tSTOtcsIC+xVXKW5GX9/Z24XDLVTn0+Ii6lxmypkeuG/Zx+m399ux3wnfE2rXiemrHPiJQalzh3tFXabhCYbptxbpttt9+4+t4rRI3Ln524zOqzBwvEJc4bUtpeQh7uscsPGG8fdiZe885nOzjBOmaS7VquxuVl7aW0u9Q/83s9q4YamHW+ScSl046Zx0sj09pJ/l0qyesI8THwbK89ccwE+2nfvza0aAgH+fX/arx9638Ga2TqJoCCIAiCILQEazx5ITVkCxciIOy+FQSgFoEwkCaGwUVuPNsYRzQE45tIThp4vwbvu9jXhR3ISBMjvYvULCIhH3CpZdcp2mS72yNcKN6f7fKECxEUNhl4o0u12gnun6jCri68PJOIBwSK3c6I2hBhwqhrZfoLqXtcB+Tl/XyQBUgV+0e7nTybiAuGbymRCMM2aeAWj5vfZ8/f0mUHv6WOGhh2LLtmsMYlPVUs2ggpadcJzAp2ITtvSiESVu05Btr/Uq7GpbTd0r/92MUDtuThbvvnYTXWwDjLHHXUJNvtTr/O+dNsxcvaizaSf8dnJe0ummYL2Ub55+PLvzD1S5vY67yd4xb2l0SwSs9XSVLaXjLNFvk93/inCYVxV0uqWCr+zQnLawejkw2fQxAEQRCE3LFWRF54KSS7bxHJoFi/VsGofJ0LxgrRDaIT/+sCgeCN9NV25oIUkEaG0fQZF8gOqVz1GD94yEldw8hnO2fIDMX5EJt6QM0M20OTNkQ6HNEh8v4rvQQzF7x6ffvkwDB7ZPS6BTKXCXnZd5y9a3q7nfR0b0qNS5rhW2rk+nfm9NszbKP8tRHVIzCHjbbXOnE51Nt7eXF+WltJiXaL3ynUwHTbTecO1sBUe6nk1BOn2A8e77X7CveYjCxVajf5P/8OaV8zu+zy4jbKZUmrd8L4P0+wXZ1Q3ObE5ZXtVWuzpN0F/bb0/k479/jJhfmw+Ws2sv/40Ib2jk+Psved5gTugS47ZR7EpZ52yknyO97Py/1v77frLm0rbAWe6W5vgiAIgiCsVlirCvabBYbe7i4Y3Ye4tLsI9eFVvxhnOx8y0eb8bJw9+tlNCkSqGQyjxuXSdjvl6XI1LmnGb5pR7N/lPTBOSg44sEINzIlthV3FDnmSVLEiCXnZeZPnLJXSdv27pJARgSGFbOux6RG5fh9rf51iez0GcUmrcanUbun/it99sNsuPnqCfWrCYO0WJJlUKKIxG+w80vpPn2LfvK3LZizlO0lCgZTeR6mk/Z92/bO7u+zKv0+xQ85qs+POb7O/n9dm59zZaXcXjq+3nXKS1rb3211dds1XRtgHtlHalyAIgiCsrRB5KYJoCWSFonvSrShAlgFUH9bbZri9/apOO2HJgK1Y0G8rru6wg7cd1XC9zTBeQHlxu/295hqXUkkxcl/0c93Yab//5Wh77bwum7xiM5uyYlNrQ85pt9fe0FmocUkvzk+eq5yUXpefY4H/zXtgnIR9JdoKOWKSvfqYSfZ9alzY6vcVbdbSbspxy/wZOIG58Y8T7Pu7jLJP/HicfWTPMfbBH42yT54y2f7wQLfdx5vrX9YeUmubSMpxtLuk35a6LFvqv/NemMJxaf0Zkvh+TVL6Xe830uyIIv16ou345jIkURAEQRCENR4iL0Xw/hWKy0kn4+3hhTd4CzVj3Y8Mt7e54X/C/Gn2fIFouDG5aMCeusmJwusa2DDAje13s6vYbIhLOcM3/q4kyeOK55nXZ7Nm99iV83rtIjfgL18xYFcii/vt+nn9NnvlsfH9WttKSnyn2CYpZPP7bGa0FbKo367ze3y0cGySoNXbbunx3iZ1N8/12KPP9dpd3sadLnfM9t+dDD67mGPjHpPnSP5di6S0G89/5e9xX2ntlX6/kqQdXzznnU7GTptiPzh4snVtUXuNkSAIgiAIaxZEXorAU/salz6XmndqEgpYd0cnLtd12olzBwbflbHSSHWj9YV+e/radtv/6yMLfVsVO0+w4X+eYP99VUdhO+T0GpdajV2knMGbuMbCNSd/VvpuPZL8Lu2VthXC36X3GL/XK8nvRptpUtpe8lrrkbTvcW6XWT227JEem3tPjz10S6fd8GC3PVWIxNB+fLfcOUoljkke6+dZ7j/v7rKZJ06y72+zYaH+TRAEQRCEtRciL0JTGLbraHvHFR3214UDtqRgiCcNzqKBOaffXvjnVPvN7yZU3+1r+5E29qgJ9tuHeuz51PNVM3LTJGnwhhQN7JdJlkY9kvxunD/aiN9L24zvJf+uR5LfTd5TaZvJduM6G2m39Ht+Tt5878Tlqhmd9qdL2+yA46bYXj8aa186d4r99IFuu9IJ7cKV15R2jjSJY+I4/+5C/3l/l9177CTb+xMbF14SKwiCIAjC2g2RF6FhrPuRDe1tVzpxWcILB0uN0TA6i5/P6bU513fYb7bcwLqL30/FRzeytj9NsN85eXmmYGDHeUqN13qk9HvF61zcZ4uXuKGNLObngC2gTmPlcUij7aYc7+dfsnhgsD3/nZ/z/BoW8a6Ulx3bSJul3yneI89mOW+yH7AX/O9B8d+Xedv+v/R7TX5WSVKOXeb3OLPbTttnjL39hl4bdfo4G7HPFNuYd88cPMGGHz7RPnrFVLtgrvd9zc+39HO/N+p17u22e4+baD/cbXjhvUmCIAiCIKz9EHkRGsK6nxphb72+006YizEcXvykAVpibCJz++2pm9pt/zdvULYGpmf7kfaZkyfbX5/ssVlhgL9MSs9dTdKO9et9pteeOGeyHf63ifaDM6bY90+ZZHue1Wa/dIP45kX9fkxp27W2W3pc8Tze3ovXtttJJ3pbp0+xvc50OXWyfeeCNjvojk67u1CD0ihZSzt280J/z76kzQ67o9s+vWKabb1S+mzrmzptj5s77ZaG2k37v98n57qn204+fELhPUjltmne6NDx9sF/ttuFs6sRmNK/keJYu7PLZvoz22sXJ7vF8wqCIAiCsPZD5EWoG+vtPsbefk2H/e3FAZu3MrUraWiWSsLwfKHXZl011X67xyh7g5+rc+/xtuWlbfbZ+7ps75u77EgnRJexExapRyu/lyQSpeesJKXHch6XWb02Y/pU2+uNwwrvwmGzBl5OyPtBOs/1a5nZbRc+31d8aWO0XUu7cUwcV/z+k732pJOF3+0zxt5abIv38iAjXrO+bfb3ybbj7Z121fMDtjyM81ecq5Ikj+W7/kyeHbBZl7Xboe8dvMc0jPrTRNvB273Jn+O/CEzyXKXtlPu/f9ef15K7Ou3UP0+xdxTPXwmv+s14+9A1U+28Z/qLBKb0nkul2A5bO9/XbTNPcuLysQ2be6u+IAiCIAhrHERehLowbIfh9vYrOuwvi6hxCYMXKTU0k5/F34gbqXP67IUrptpRh06wfc9vs7Pv6rKZ8/oThjs/Q/g78d3Cz7S20iT5f//uCv85q8dmXtxW2FVuxOAtvRKnTrYP3N5lF79IZIA2a203+T//Dtv3Pt5jT1w51fbbcaxNLZ4+DcP2H2dfcIIzfW6/LX3ZfVdqDylpk+/6OZ67xInLa4YVXsJaFltaIY1rxxldduO8ad7/fB+Jc6a1W/q5H79wwOY7+TyzSM5qxn7j7KNXd9j5c9LSDpNSbGeRCzUux020H2y3ceH9NYIgCIIgDC2IvAg1Y70PbmhvdWOT4vyXvzAyaWSmSfJ/xe8s7LN585zEuCxewv/5PHHOZdNshQvvC6H4+zEnPINvu4/zRJtp7aZ97t99ptfuP2OyfeMbowrRj7LgJYcnTrSt7uiyS2b3FY360nOXnj/5d/H4R3vtment9qs9x1VPbdrCbONDx9vnruuwq7x/B4lc8tylbaZ95t+Z328vnjvVDt5q40Jka93Bs5fHNhNsOBEYUshe8d6XtDbj96IsHrAV93bbaXuMsbf56XhfUs2gDuYP4+wjpJAViGLynpPi17TC5e5um/mXifajnTaxicVTCIIgCIIwtCDyItSEwRqX9go1LmlGZ1KSx/FdzhHnSfxNupYb0re7AX78pZ32o1m99rmHOu3DV0y1X9/XbY+tPD7tvPF3/B7ixz/Va3eeNtl2fstgulYtGHasE5gZnXbB7KiBSWu3tP3iMY/12CwnLj87elLlDQqScGN+5FHj7bMQmLkRiSrXXkj8f/PCrm7PXzDVDvnKxvZ6P125mpNXYMvhNt5Jwddv7bSbF3HOcu3GZ4gfw7F3d9nJx40vpIrV3F4JNj54vH3wyqmFVL1XEhj+9j69y4nLKVNsr69tVHiZrCAIgiAIQxMiL0JVrL/naHvHVR32t3lEXJLbF5czbNOkwnGL+23poz1288O9dtwT3fYLN/i/vMVG9mZvmzqUAj6+gfU5+fjFQz32GOlfK43c0vMmfy8Sjlk9dsel7barn2bl+WrFOZPtA3d02vlz+mxZGNIvazfZfrE9UsWuaLdf7jOqduKSAMb850ghe74/0WZpeyH8z5/JcwP2tBO8Q99eJVWsHN5uNuZoJzCkkM1lF7K0dqNf/X8LBmyRE4rTDhkkLs1ivf1G24ev6bDznu2zRSvb9p+Lvb2Z3XbfCZNsb9W4CIIgCMKQh8iLUBGv2tuJy9WdduLigWItRhiwaUZtNUk73o1UDOGrptrpe46z93qbZT34u46ynhMn236P9NgjSzBukeR5k+f2//ECw2d67b4L2+wb/vWyNS7VcOIE29qN+osL2/umtRvtuTzea09e2WH7NbkL1rADxtm2NzqBccJYvgameC1+zOyL2+2QajUu1bCt2SaHTbSdIDDzS1PXQry9RQO24L5uO3OvMfZfxa9mAmpgrmq3C+YXIzBLvS0nLvdQ47L7JgVlJQiCIAjC0IbIi1ARI+/psV/Nn1ZS44IkiUK9UvJdIimz++y5m7vsh8V2y+Kbo6z7lMn2q/vTUsiS4p/P6rWZp062nb49suZUsVTsZrbB8RNtq9u77JIXSOcqbbP4NzUuV7bbLw6qocalGiimP2JimRqYEP/MScacc6fYwdvUWONSDduMGdyFLLUGxmVJf+H9KqcWa1xeNfitbNButtFB4+3DV7fbP9i4wJ/xo2xlrRoXQRAEQRCKEHkRKmLDs6balx7osZsLxnPSgI4IQD0kJu344nkf6LY7TppkX/Y2hw02XR47jrCB0yfbL2b2FAlM8roQ/+zpXrvzrCm2qxvETRGXBNY7YYr994wuu9AJzKBRn5DHe+zp6e32czf8e4vHNw0/EUTiczc4gZlTWgOzub30fL89d/FUO2TbwRqXzEANzLFOYG7ptFudOK18RvzOdsgnTLZ3Fg/NAxsd4QTmwjY7/NRJtudnlComCIIgCMK/IPIiVMXoA8badg922w2LpxVrITCeg4iUkpFKUnq8n4tUq0d77PYjJxRSu2r2sH9xhE07bbL98uFue4xzFK6Ln37eWb1292VTbXc/bOTg0dnh9Kn2IQjMi4l6lCd67Ql2FfvhaOsqHpYlNjponH3+5k6bPpttlKk5grgM2NOXtdthxXfVZI7Xj7LRR060He/stJsXeJ8u7LfFM7vszAOzqXGphnW8Izf3n+MH/xQEQRAEQShA5EWoCaP2HWdfdAJz/ZJN3YAukoS6CEzpcX6OJZvZ8seduOw/0XbwNuo2VL87ynpOnmy/fqTHHoXAkH7GdsjnttnOYxoozq8R6xw/2ba+o8sum9NnC57ssWeunmq//vrGNqX4/zww7MBxtu1NHXb1vAFbPL/f5l7kxOUNw7KNuJSisI3yBNvl1g67yUniOT8Z3dSuYoIgCIIgCM1C5EWoGaN/Pda+dE+PXZ2McqQSk1Ip/R/f9XM80Gs3u1G+o1v9DXvY2dHrjCn263u77blne+2Bc6bYrs3WuFTDlmYbHj3Btr6wzY47a4rte/gU6yz+KzdsbTbytIn2NSdmZx832f7wvRH2Fv+46RqXatje+/KoyfbOI6cUalw2HPxUEARBEARhlUDkRagLow6eYF++u9uuDQLyMoJSSmLSPuM7Lvf32k3FVLFxg6duHN8cYZs6afnm9HbbpbeO1LMmsd5eo2yLz+eTKpaKnw+3CXuOti2717dN/c9Mi+UFQRAEQRDWAIi8CHVj1P4TbLuHe+zGRdMSReRpRCWFuLD97WM9dscRE20nP1fTxCUB0pkUGRAEQRAEQVh7IfIi1I9RZmN+Nta+9GCPXU/dSmoNTJK0IH7MMmpc+uz234+zHSebTSieThAEQRAEQRBqgciL0DBG/XasffluamAgL0FggsSUEJdCqliP3XzIBPvGcO0iJQiCIAiCINQPkRehKYw+dIJ9eWa3XVcgKGzjW0peijUuD/baLX+eYDv7d0RcBEEQBEEQhEYg8iI0jVH7jbMvFmpgNi2++yRBXJZsaiuocTl4ou3ox2ZZ4yIIgiAIgiAMLYi8CM1jlNnofXmRZa9dt2zTYg2My/LNbDkvoKTGZZoiLoIgCIIgCEJzEHkRMsPo30+wL9/bbdPjLfAP9Nj1h2W0HbIgCIIgCIIw5CHyImSKUYePtx/+s8MWXdlp846dZD/xzxRxEQRBEARBELKAyIuQLbYebtt8aGN76sMb230fGG4fL34sCIIgCIIgCM1C5EXIFuuZfXL9dex+l2v8z60GPxUEQRAEQRCEpiHyImSObVzuc5nu8n4+EARBEARBEIQMIPIiZA7Iy0yXK13+mw8EQRAEQRAEIQOIvAiZQ+RFEARBEARByAMiL0LmEHkRBEEQBEEQ8oDIi5A5RF4EQRAEQRCEPCDyImQOkRdBEARBEAQhD4i8CJlD5EUQBEEQBEHIAyIvQuYQeREEQRAEQRDygMiLkDlEXgRBEARBEIQ8IPIiZA6RF0EQBEEQBCEPiLwImUPkRRAEQRAEQcgDIi9C5hB5EQRBEARBEPKAyIuQOUReBEEQBEEQhDwg8iJkDpEXQRAEQRAEIQ+IvAiZQ+RFEARBEARByAMiL0LmEHkRBEEQBEEQ8oDIi5A5RF4EQRAEQRCEPLDWkpcNXSa4dBZlostGLkL+EHkRBEEQBEEQ8sBaSV4mu3zMZT+X01zOcOEm/8eF/wn5QuRFEARBEARByANrHXnZ3OVXLte7zHd5qSiLXG5w2deFY4T8IPIiCIIgCIIg5IG1irz0uRzo8qLLChfIClEXoi83uix0edrlly5dLkI+EHkRBEEQBEEQ8sBaQ15GuuzqMttlqcu5Llu5jHEZ4bK1yykuRGAecNnNRTUw+UDkRRAEQRAEQcgDaw15eZvLBS6kiF3tggE9zCWwvsvHXe5x4ZjzXP7dZV0XIVuIvAiCIAiCIAh5YK0gL0RQvufyggvEhEL9sS6lmOJypMsCl8dcdnQhYiNkC5EXQRAEQRAEIQ+s8eRlHRdqXY5zgbjMcfm8Sxo2dvmyy10u1L+c6DLNRcgWIi+CIAiCIAhCHljjyct6Lu91+YcL5OUal7e6pIFj3+kSxz7i8h4XIVuIvAiCIAiCIAh5YI0nLxu4fMllhgvpYMe6bOZSDvzvVBfIy1yXz7oQvRGyA+/TCfLyfj4QBEEQBEEQhAzAi+fXaPJCKtieLk+6POdCvUulbZCpezneJcjLTi7adSxbfMDlXpfLXf6LDwRBEARBEAQhA7Ah189cLnRZI8nLcJdfuBB14R0u/8+lzaUcRrv8nwvkZZ7LHi7jXITGwIYHRLPY7e3txZ8/cnnchWjYd134PG+h3bcUhd/f4ZJ2XFbC+WnnzS60mXZMHkJK5H+6QAqjz/MW2oy+Tft/1hJ9y32qb7MV+pY2GbfcZ97zJIS2VkXfRptp/89Dom/52eq+pc20/2ctPD/aZMy2sm9pS32bjyTvs1V9G3qvVfog2betep4I7dG3tN/Kvo020/6ftayKvv2oy0kul7j8m8saB4znP7hARoi+7OUy2aUcIDt/duF43sD/Axdy54T6Qbrd61wgj/90ucrlUhdICy8KRR50uc3l9hyF9u5wYSMGhL/TjstaaPNuF9pM+38eEvd5p0sr7nNV9i3bmq+KvuVnq/u2Vc8Tib6lzbT/5yG0xVwZCn3LfQ6Vvm1Vm0j0LT/T/p+1cF/c46rs27RjshbaTI6htGOyltK+TTsma6Ed7nOo9C3C72nHZC3cW7TZqvsku4fsqekum7qscYC8HOxSK3nZxEXkJTt0ulA39BOX/3X5vsvRLqEoIDOnuZzhcmYOcrrLWS5XujzlMsuFHEheSJp2fFZysgv3xgtRaZdr4Fryuk/OS63WDS6kR1JTxMYTefft2S7XujzjQjTtfJe/u6Qdn5XgTUEhrXBhU4087xGJvr3V5XkXFhrGUJ7tcu5zXHiez7o85MKLdbmOtOOzEO6FeXG9C/oPAkNf59m3jCHulUWNrexZTHkfF5+lHZ+F0If0Jc+TuXKfC+M4776NMUTfov/y7tsYn9wfu2ze4sJ95923PD90O+OW54ruy6tN7i+ENpe73OySd99yn9wX85K+Zc4wXxnPacdnIbSJ3mFeom8x0LjHvNqMfmVuMIZYy65zYW3Lu2/pyydceKk4Ts9YP9OOz0Jok/WSF5SToXOTSyv6lvcJMobY3Zb7pG/Tjs9KWJtpk/HDWnaFC32b1/PkvPQtJQIPu2CDM4bo1zzbRJgrvPIEx3mlOvfVFrw9//cuy1wwIiEjlcgLxwd5IW0MsjPBRWgMr3IhmsV7dUjJgxx+xAUjiX7+gsubXAhhElLMWiKNgC2wGdAoYtrfwiXt+KyEF5yyqxrsn4Wba+Ba8rpPzvsfLqThkeN5iMunXPLuW8KzO7tgFLG1OLvHtaJvv+hC1I4t0PO8R4Rz0wYppxBSigAZQ3m2y7m3dOF5YgxC+Nn5kGecdnwWwr3w7L7p8qgLepO+zrNvGUPcK7WILHD7ujCG+Czt+CyEc9OXPE/myh9dSNfIs80YQz92YUH9uUvefUt7nP8gF8g+ax/3nXff8vx+6cK4/bULui+vNrm/kF+5oBP2dmlF35IGwxpG337LhfnKeE47PguhzQ+7MC8xQHEGco95tRn9io5njkCadnPJu2/Rcez6CgG9zOXrLqQd5dm3tMl6ebgLxjzvBWxF37ITLrqd7JOvudC3acdnJeh32mS9vthlWxfmZ17Pk/PSt59zOcYFIsMYol/zbBP5kAs2CWv2Gpk2hrGM1x/vCGzzpy7tLuVAfQs7kkFeSGtCKY1yEbIDhsKfXHgWrRpUKAUUE+2yKUMrwPuF8AIe6tKqHes+6PJXFyJc3XyQM9Z14XmigFlUIaitwGtd8F5jJLUKRBDxjO3qUskBkhUoOOR5QtCYK63aOOR9LpBuSEyrgIGCV5CdIVsxhtjI5TMuf3FhQxecLK3Ap12IiuJMaRWo28TTiXHGfecNnt9XXRi3vOi5VWAMEX35ROGv1oB5Sd9u5bI+H+QM9A7zkrrccu+ryxq8QoI5cqNLq14dwXw8wAUnJwYp60zeYL38octRLjinWgHsU8YQ0QEM+lYAHcB6/TeX1/BBC0Dkg+J5SPC7+aAFGO/yW5c1tmCfBX93F0JWEBi8UBiV5cBOZLA1yAv5cijhViiloQS8KkwevKyb80EL8AaXI1zwlLUqDbDXhTSRwwp/tQYYuyglyAspe3kDUoZnDq8Ki02riD5Kl5QUvK2tAuQFAxvywjaMeYMFPMgoc2VDl1YA8oKB3UrysoMLEUrISyvGEOsC5IWdJTHMMNBaAcgLqSmtJi+kU0BeWkGAeX7buzBu2a2zVWAMkdLZSvLCvKRvIS84G/IGeod5CTFsFXmBODBHcMS1irwwH6lVxlOPF70Vzj/WS8gLDs5WkReIBGPoahcia60AOoD1Gju3VUY9NSdEm8kIeRcftAAEIsiSIMLUKpKWKSAeLFJ4DcjZZIGkiDwNTFKMXFKLIC/kW37cRe95yRYYR4SEGViv54OcwXNFAWKo0G6HSyuAtyFSm1rl2f2kC2Fvoo0DfJAzWLB5nnjIjnTB29EKEP6mxubAwl+twVdcSIVhIa8Uvc0KLDI8Tzy7zBVSWlsBwu3UhpEy2ypgkJGjjKe+FWOIWshIJd3HpVXEcDsX6my+UfirNSA9jnx+UnS577zB84PgM26/7dIKrzlgDFEnQYpKK4BdwLykb0nnakVUC73DvMSohyC2AthQzBEcGrzmoBVgPhIBwWuOs7MVxJD1EgMbo56U71YAos8YotYPJ2ArgA5gvaauiIyUVjhuyJQgM4OI4dZ80AKQYYPjmBfTl7P5V2ugOMlNJccPQkLhGV6SNDBBWLi5WQr/KMJrVShvKAGjHi8ZL6tshRHIItPjgrKn3TEurQAhfpQh0btWeXZRRru44DlqRXSA++J5YnRSh0J9UyuAl4w6CRwTrQK5wRhIvFi1FWMIfcTzxNBlrrTKwGahIdzeqkUG4NElRRdDpRVjiL5kXaBeC8OzVc4F2sRYoT6iVWBN+44LDpxWjCGeH95Vxi359a1y/jGGqLFplQeb+2Je0rcYR63I0EDvMC+JaFEH0gowN5gjpP20yoNNm6wn6FtIRSvWT9ZLnNWkH+IcawVwUDGGIIf9fNACoANYr3EwsI62wrkw1QVCiMOoVdEeiCEOG8h+K+zMXAADY8cxdieClGDcpT0wbpZiP7w37HyDIqz0ThihMaD0UUY8g1YtbNFmq0gEWJVtroq+bYUSDNAmC1wr26StVXGf6tt8MNT6lrZbhVXxPGmLvl0V9zkU+nZV3Wer2qSdoXCfgPbUt2sAuHjYNLu8EH0hpzFt32e8J4QpITiE8cidbZW3UxAEQRAEQRAEoQBSISgghLzwbgje8p7MrSZ8Rm4wdS5LXCjublVthCAIgiAIgiAIwkoQQSGfMV4Sxo4vbFHH7i/k4u3vQnE1Rf3sTkBe6RobahIEQRAEQRAEYc0GW6dRoMmbhnl7PrIg8TtbI093YQvCVmwpKQiCIAiCIAiCUBakihFpIS2Ml9wtdoHAQGh4BwxbAbbiPQOCIAiCIAiCIAhVwZaGvNmdgny2c2TbOLaWneaiVDFBEARBEARBEARBEARBEARBEARBEARBEARBEARBEARBEARBEARBEARBEARBEARBEARBEARBEARBEARBEARBEARBEARBEARBEARBEARBEARBEARBEARBEARBEARBEARBEARBEARBEARBEARhiGOqS+/gr4IgCC3Hhi7oodEu6/KBIAiCIAhCGia77O2yl8tYPhAEQWgx3uXy/1y2dtmEDwRBEARhTQSLWLsLRvU6fNAijHHpcRnh0sp2W41JLt90edjlGpf/cmnV/a7N/SqsPWCcooemuIzjgxZhPRfmJ0JUYm0F/ftal6Ndnnb5gwu6t1WQHhLWBBCNxA7qdtmYDwRBWH3xaheiAhjYm/FBC7CByxddjnL5vEsrDZZWgojLbi4zXF5yechlR5dRLnkCxYtxgsHyby6t6t9Xuaw/+Ksg1Az0wTtcfuiyvUve8yPQ5bKHy89c3u3C+F0bgQ443GW2C3roKpf3u+QJDME2F9YX9BAOslb177CiCEI9GO7yBZc/uryXDwRhTQQGIDUKm7sMuIx3yRswfhbxD7iwmE5zyVvh/4fLyS63u/zKJW+PHB7OT7hc7bLE5WyXt7nkiQkuW7l81OU/XfDw5p3zTRu7u9zhgsGAzHH5q8umLnkAkvIhl5+7HOtykssJLge5fMUlj5obDM0tXSC/v3H5vQvj6Esur3PJw6M90YX58WWXXV24t/92Ya6ubR4z9A76ByOQuckCmyfoP9p6jwvpRcxNxnKeCJ1wqcu1LoydvAkMxvT3XO52waj/nQvOhryAHkefo4fo1y1cRrrkjde4HOrygkvoIe6Xe9/IJWvgvEDHftcF59SJLuihP7ns6fJmlzwcHBDRj7mQmosOQvgdnd/vkjWIJjEvP+yyk8suLp9xeacL6zhRvbUFjF2IKPoVByd1U3nfH3qPOYJeh2i/wSXv+cL5Sauc5XKaS952ibAWA6OTRRSFgHeuFSCdCQKBUfRbl0NcCLP/wOVTLijJrMPgGAcs3r92OdPlny7nuRzo8lkXlEVewJBmYVns8qjLPi4o3zxAasjHXTBSYhH9P5e3uOQJFkxIEh5H+vhNLnmSwkgVgxByn/Nc6F9+v8/lgy5ZK3+eGV5kxk4YKUmhXQy017tkQdyYAxhjzBPG6gKXZHsPuvzZ5asukKYs5gzeVAjR913Od3nChX4lFYb7xrsMYXy7C/M4C/Cc8Bx/2iUv0pkGjGsML6IR6J/DXCCHjCvIYta1U/QthsnXXejHC12ucDnV5Scu73PJi1AwF/F00h5jh3mKB5TC8jwAScGQvteF9h53+ZFLnnoWovA5l7+7MF8Yw50ueYK5zvq10GWFy4suoYf+4pL1eGZ8bOMCYZnrErogBOfN8S4Y/Fk5GTgPRiYOmxtdStu8zmV/F3RuVg5IjFxIKPMSss29ov/QsTxb7AYyC4h4ZeW8Ib2aeU/dUqvqJrG5IL84iX7qQkQC2ddlOxfGV9YEmL7lPrG3cPRd7oK9cIwLhPiNLnlF97nf77gwR5a70D5jK28HsrCWAeNjB5fLXIgMMIjyZvssaizeTBYU/TIXBjE/F7nc74Lxixcgq2vBm4qBQmrRUhfainb5+04X/p/XQofRi6f8OReUPUYn3oesvfQoOYgLz5N7g7jgmYNI5J1qRCTreRfaxRijzbwiL4whDMxIFaNdPI8sovzNQodHEGKeFRgbkE48RtwjgsEyv/gTw4W2+Z0Ft8+lGUBEMHwgQxh+RNAQ5giKP8Yvn1Hrw2IOAWimz2mTcxzhAllhbtAWbXJf0TZGBAse6XnMrWafM31F5IqUP+6j2b6rBq4XowdjgbnPfdGXPEPuGb2Ekf8NFwhOFkCXoV+PdHnSJfRQtMs10KcY33kQGO45HAyMU9rlHrd1ybqwHMcCJP8eF+4Nhw1ps/RlnusLRjbEmnHE+EXn4gjLCxidGJpBVm5wgTjhUOH5Xu8CIc8qvQrjGkcb7XB++pa20UEIn3Ed6ISLXIicNqv3eV6QCLzkRJZogzYR2okxzPil3nBnF55/M6C/WMcucOG8tEN76KCkHsKxQvSbY5slTRjP9Bdr18UuOITyjkzybHAocA+MV+6TvkT4nc+I6uNgySoiwnkYQ9wj/Zi0hfjJOIJ045zKY/1mjcHm5DkyVtG1kG3qVEVghJrAIMIbHx76GERvdckLpNx8yyW8ceWExZ1IRRbXwoKJx4gFNM4PiWBhTYb573Jhwc3S4A0Q9cGYfswl2oPAYAxnRWDwaERaCEqISATe3X93yUMJlYJFOhZPvIJEDPJA1LhgdNIWRIWUDZQfXiP6mOvAiCBdLwvQtyzKMYaecUHBo4T/x4WFLgp149nyv2aUMfdJnQBzgXNC6vHwch0IhhnGAv9DaJsoIp66RkHaAnMg2uR+MbYZp/u5EInBsxttMoeIVrDQNWqU0kekpHF/nPMpl1+65BWZBBAX+hJSGPeSJtzf/7rQL82CPmLMJHUOYxVDO/7GgJjuQmpOHgs5qWqQ/GgPAwnCRE1cVqly9BXzMFI5uT8iIHlGXAIY9zwvDDCcDOjcZg3pcogal2dduE/WNCKkGMA4L/icNZXfs4pQEhHgedEeOh5dzz0SicEg/YXLbS78HwcD+qDDpRlAeIncR9QXnUMfQ+zxoKMfkuv5rS583ug6il0CKcRoh6BwzitdiOz82AV9E04qhHWOe0ZHkWLWKHBOhYORviXlOs/USvQl0TFIYVoELYSxzLXg1GB8NwPuhbkezk3Oz88HXJK6kOvB/sKRlYezAYcJ95VsLyIwglAVKAlSGFBwGAwMIhQBC2weg4hJgJIN5QrzZqFGGeFdxgAlHBwGIEYSCqsZzxmhXwzdMBAwkLg/cmdJmUDJnuHCIsP/UYqkbmQdpYC0sbAlDRUEpZFFChmLI0b0P1zwxvE86U+IS6tACB9PDveF4svKY50EBj2e1UgVI7JEW0TpAPm74VnGMCQywDhvBhA/jD7IULTJnIEYhYFJG/xNn8dCdJxLo4YTaRCkYMRcoWbg2y7MV4gUwrzA44jSx1DjOEgHBkyjhmLSOCI9AyOFe6f+BSOI/0Nu6ON41ixCp7t8xKWR9Ab0AvnW9G/MQ0gT95FHbRj3gjEdeoa+4/qJ/KBvSMMjpYr/IRhmRIqbMWK4D86PfuWc6Bmiy5Be0kW4VwyUaBOdmAf5Z8yg/2gDAy3aw5jJIuKDI4bxEY4FCAx9nXc9T4Dr5xlybzgQMLDzSP+JGpcg8pBcSATEjfFMXQbRUP4Hwcgii4A1hLQ7CCfnPccFkpu8PwxwiGOQCfQk6UGNAmOZdMbQL6wvkCT0GmskXnwMXPqZtTzIxs0ujRr+kGjmBGsj50If0Z/MIaIr6EB0Dc4UIlscg6DvefaNOuu4J+Z5ch4GgcmKfAYYC5BfSGE8T+YMupw6ItaXv7kwruJamKPUpjQKollE0Ii2cj500VkuEELukU08IOPRJvqRmq085g+RpFLHUUR8sD2bXbOFIQKUAh6HWMwxShhERGWy8v4xGDF+mKy0AXEhPIvyjZxrFCV1MAe4xLUwoUkPaiStAQMPAzBydGe6kLqQTEnhuojuYLxwTaQfofyznrDcWyhk2kC5YwRzXZFCVkrSak014BlhVBIG5nwsIKQAYsi3EijAMGjxxkE0sgL3iEGeJC54sEmJS9bysABhcEPgOAYDo9lIGuMIonuLCxEdUhnKRQQpEg6CynGNFrFiBEFqGSsodRY0jO40cP8semE4EEGEnDdiOLB4R2SAZ5iWr4/RQn0ckSbSNjgWIU2FyF8jBIZ5SGSCyG+0j8FE3nfWhcB4OyNihZcVUgHxjLx5xi2OAKJMLPCMJQxQdFMjRhG6BL3DPOdceJHxPCZrTdBvkH90FZ5Qro++zBoYf+S1Y9xj4CLhUceowSubTE9BB9Wqh7gHjNiIoEHieX6t2oUP0KdEOmgfXct4zrKmB12AccyYifmGY4Hnm4xwEP2kP3nerDtEFptN+6FAH72Oscu9YWymrc+s56xnXBvrKA6ORsCchKSd68K5MDYZo2l1NKxvEIxYa7nGS1xwBNZL2tB9kHkiV+gXDOi0vmNcQbhxPsZaCpnEAKdmoxGyiM7kHnl2kUXAfM06AsOYZC3jOTIX0dlkpGCboGPQsTgv+Ix6n4iSMO7on0aMe5xQ6HTOg14jsoXOTY4hxg62SBBvdDpkMWugS0l9pA30YkRpmVPYnqyvyevK2pksrEXAY0ZqVRgOEYFBYWaRchSe5PCUsDjzN4tBEgxYJgteFYyXMBzwUtQLjFY8VZASJj+FuGnRANpEYVE/wf3TD1mnOHCfKHcWMpQR3kjqCiI9B4OXa4XA0N8YbOTCokyq9T8LB0ZH1H9gNJCHXalQFOXHfYdx0qxXEGDgB3mBVKR5W7kXrheSgZGIl62WtjHcUfah5BifRFwYn0klx/kxPMOopiAaYtfM/XGNeFUZj6SLUSdRzpOMFxJjhrbxUiXOdmoAADMPSURBVGLo0DZSz4LDQoORCXEhDQNvZzmg2DHSIn0l5gx9Uy+4T86B4JErt2DT54xRjDYiNBzPIky7RFEaWWw4J143CEykFEAuMICZB1kAwwtPchgmjNO0zRXQV4wbPJMcx3ijbxohwjxLDDmeC32FIZvmyUXnMLa4Z4wajssa3D/3jE7EEMZRQ9oK94iOjBQyCCg6C5KK8He18YtRhe4MMgSJIeqdZuwG6PekHqqm66qB8YqeDwOfyGtaXzM+MSCZxxC6Wu4PRLph3CPPkzlQul7QJn2BviCaiNHYLAkn2kDEjmdHlJJ0rjRwb+EkpH2eJ5+hg+rpX54HczkiERj0kJlyoB+p3WCcczyGKNHFeutIWQNZv5hzOIzYwCep45PguZEuzFoa0SEIDAS20rVWAvoee2C6C+djXgSBYe3KAtg4EEz6CuMdgpa2pjCe0QMRycR2IHulkQ0KSOuGJNEmkXOiMGnrIv1GBgztYa9Qu5o1IJeQYtYMxiokLSI+zC3WgLA90f2QYGxUxqQgvAIoV3LNQwlgyENgUA7NAi8J6QR4bzg/ir2SR47BTVic68CwZ+LVG31h0aQ2gAmLF7zSnuJMFAxdrg3PPcoFZZKV15BJyPa6TFAIHGFTlALpchgr3CdKLPKXD3ZhZyf+LmcoB1iY8NJAfsJw5p7ZgCCtnoaFluJ6UuaIuPEs6Ce8Ic2ExyFnEQInZap0sSY1jkWBhRxvGcJ9kjpTbWFHoeIp4tws3nj9WbzTFjV2ysIwY/HjedKHjUQDAnj9MKAxQiBF9Fu5yBzpIfEMiK7t6ULtC4LxUWshOuOfyCT3itFQ6X0RLGScP8YRQtogZK/e8ct3WFA4B4Z0tSJYDNYkqeT5c93lDKtq4HlGbUgQmEdc8MRmUQND/zM2OS/zjTFbzmhlYcdwwCnAgs8OhY3s2MfiC2EgysHPcumU3Du7C5H+grGCsQTJR7KqR0EPYdjxjE9xITpLWhG6jz7hcyJOkGHax0jmvvHeV7sG/o8OgXTjQGH+oXfTcvXpW7aE5X/seMQmDehdIlKQyUaNFNph3DJXST1kzUlGLOlj5hbzkmgl98Z4xcgmIldpvvBdomE4E+gryBG6Je15cn+cD8OfsQORw1nXDFgDGRcYd6Q2QorTgK6LMR6p119zISqGE4T7r0Ufolc+6RIecvR1aXZAEvQzY4pjQzC26438EMHimrl20maZo5WMdeYvepdxHc5A9B86u1EnJOsgYxHSwvmCwPBZFhEYIvToNc7N3Cv3LAH3EHYZ4xqiVi4KXwnYPzjUWMPQ2eXGAHYW5IFrI5KGzuOecTZmRR6Y++h4nJ08a+wUHB3YLbSL7ckYxhbCjmENJJWu1dkkwhoEFlqiHiygDCIMCLwpEJhmvGIsCngXUEgs4ii0ShMBZYWRiBIiJIyR3UjhIYYsExUFiKFVDngh8Dqy6OIRIE2HSUW7hOcxntMM5XqABxMjDzLG9dCfnBdPXihdFieUJIYoiz+LaqXrTgIlR0QnPOEYZ6QeRb9B5lhAScvDE0ybLKx4oVlc8QThRaTP0jwy1UA+bowbzpVUNIwf2sWTxv+TgnHI/9iuu5xCxXtHzQfPCKVWyYhk4aG+KKIveJab8dyjzBm7nI/xwXxIC6VDIjH4oqif54fnihA8z4Jrh6xBYqqRRJ5BGPA8G8ZgORDdwRDjOUIeIDwYOIzjeo1tjBXGD0YsZDFqiSoBgsOziXFH2414XJMIAkN/c07GFSS72QgM0UgWZvoKw7VaTRjtMT85HscL6Xj1RNAAY5q5jz7D+C2n95ifGJiMM8YQz5QoAoY9BjkLeTN9GmCOcz8Y4RiyAGcKhg3ecp4f/8PJgnGBQQGpqtV5RJ9C0iKVBycMUdlI/UFPQQqJnGIcRbSfsQ7hxxPLPGqkZo4+JM2Y/iPlkrUs9B/tE5Xl/KFvQ+gPdCJ9U86QRCfi5KIeibkckfJyoF2cLJwf4xfC1IznPsgQcxxSwDNLA04x7iXuLfQPfUJ/M/6JSFVzBqDPcLjRFufhZzkvPGsZKeDocu4VHcR3WO8Zv/UY/OgT+orrJXKE46KWNG6i3qRVhRMHOwMS3ijx55ojAsM6yTmpheOzZpx8gGfJ2sD8IspUiZzRt+jDeA5krTBv69VD9CvkC91cSe/hLAkSirOVPmXjGBytkHXW6WYJHGSFtRD9DhljXnB9zN1kdgW2UDgDcWaroF+oCJRa7LrBoEERhcHYqAHP5MTbgCLA08BiXulcTFgGKseiOFDGjewchaGAomFipBnGtMP/SJEpLaYPYaEjWkDospKSqQYUDp4kFnUIVdw/hiq1GUzWaJMFCq9lJY97GljwMbTjXiIdjTZYuFl0ow0MFRaXZLtcG4tzpDvVA77DNbN4kd7Awsc9YjBi8EcbKCz6FGIaxilKHMKDF7iccccCxhiqtgMdzzSZU4syhDCwGDcCvgfZjjoJFlWMdYwwDDoMJsg50Sw81ZE6x09SucJjxmcIz6CaNxHDB2M9+geDC6OqdM6QxoTnGsOaeYqheJML3+FZEtWq5zkyRtkpjvHH4o/HtpbvR61RGKKQcAhXM546FmyKVqMPMGRI+UqLJtYKxhDeeJ4BizEewErg2XMfEQWCyDRiDDEm8ZYSReX3UvBcY1enuN9SgUTgjOCaK+nOaoCIMCYZmxhRgBQxHBv0C4Z8tIluQDfVk/IUnnAITIx7xiWRA/QQ+ghjOtqgb9FDYfAiGMGktFWLOpeC50U7GOnoNxwXMW+4V66D86OjWN8gitSFcCyfM8YwtivtWsU9cK5q5Ip+YKzRB/QpY7kZzzERKaJacf2sSfQzhiRrGz85BsIbTiScEOgB7pGfEVXFcMajjQ5LG4+AeY9Ox2jkO8xtSEXpM2GOc1/oeJ4lESnqL+PZE8lDr5RrpxTcC/o2IlwUqtfabxyHrQIBj7axG+pdywIY1RBp7JaYF4whCEwzRJT0QxykjFP0dzWgX5O1aozxco6+SkB34ZApp8P4HBKa3LSgVKiDiahwo2DusL6hg3CShYOBVE7WVsZnsk3GMw7JWkisMMRBegWhyjBGUER4QvE81cv4Ad/B88Wkw3DnPNWIABEHFkDa5zryKGDF+ERRwvBZEJITJincP0SKCE1pnU6tILULg5p28GSE8kGpkz4RYWSERYDFCW9SvQgCEwYCxjapERCKWLxoizQAQu3hAcVg5X94LFkA6y3Uw6jES4MhghGAlwYijDczDLLw5EQaA16nKA6kjyFOLMDlQN/XYhCjWOk/FhwMNTzXtUawSsHY5T7oJ64TYQHhPvBkMaa5RxbsIIIYC9RL0C7RMMZxRCa4Jrz+hPHL3QtGGAQnxgQ/MbYhZShwlDyGC30MOeO5Qq4wtIkYxnUyzuqp0+BYzhkGF0SmUkpDEhzH8+N7XA+RAwztRvQFoG9Ka2BY7OjTRlPImGss3sw3oii13Bu1L5GPTTpiM9uxlusLHCgYkxiY8ezSBGMbo6cRvRBA30EuMd7phwBOHpxWzN1oj7mJLqnX00o/RwQGvcJ4gBhhCEdtFgJJwehFDzHWYo4gRGkxWOppGyOVORI5+5B6nChcC+MxCBL6HocV84X1CF2Y1I3M53Ltcm+1OrHwUrNucG70McSxUWBY0h8xRuhHPOSMYyKmpP6yRjNGWGOYMxihRLUhUZAyDO+4TxxppJsy9soBPUP0KvQakbHY9ZDxgp7Fqce8D1uBZ45eZL3hb54j6Wq1Ru6YIzi8gjTh5EKH1rIBDCQ1WafD84dwNbN5TBCYIL7oN37nHtM2EqgFrGPoHnQZ0aFqOhJbISKKOP6Yk42kjlVDEOR4lmnCfMZeYN40Sia4du6Be2EtTOphonsQ/XACIjjkcK40SkKFIQa8bSgulAcDiAHNQtNI3ncABYyRS7i9micc44W81RjAOxU/KwUTn3SKRhQJXnMKGmOHHBg/94iHF88A70SInc/CmKsllSYNeKxiG1+8Q+H9wAvD4h2eqhB21QoCUC8w1PluGANBTFjQuD8ULwQSQkXqGooBDyvKnuMiulAPUWMxg5Bg8ES0DAV3hQvnxGDAWGBh4lmxMLIIosQinQxlRu5rM55lwNgi6kDImXsn3N/MO4O4HiIrGCJcZ/QlxIFr554ZH3xOn0P8SZWDSKKoUc4YF7GgQ/AgP5UMh0hZgkxG39CnGGEYKSzuEWHD4OR5QT4YzzFm8eTXY+iyOPCeirhOiB/e/loIEEYdhkxEqDCQSRdqxEMYCGOUew4Cwz1Dyiql7FQDiy4e9Fq8hxAwyD/eebyOXE/aIsp45nk2Qtb4HukxkZ5C/2N0oocwOknpivtnHOCtrYeUJsEzYi4yZjCcAPMFow/9FOMYwenAOCNlrZy3thLwekP6wxMewtggfYWIKAYTegivOTsyQjwgGRjgbABBBK4Wh0WAaALjnnboT+YizhjmEfcGAWUucxyGKVFT2kD/hQ5mnhEJq6fdNGA0s45wHdwPxLPSnK8GxiI6IWlcsnZBKiDY4SSCmEL68aKzjtMm6y4RI9Y09E/0b7X1nCwJIhjRHu1A9tBBeM0hpZGlwbhlHNG3jFv6HF0EUaznvlmXIR2xLqNncebUsi7wTFlT0MM87+kuzaYboS+ItjBvuB6eJ7+zjtZL7JNAB6Gfq+kM7hsSjm7l2bN2pNVPooOZp1xTI4Y+cxAywT0yB9EHzFPWANK7GGf8D6Ffmb88q3qBrsSew1HAXIvIGv0MSYsdRUMYQ7SPzSIINQEDCsUfRi2LEAsDCo+J0ihYLGv5PosrniZYOAs2gz4JJjVGKQs/XiTCj/VcFxMc4x1DgRoBPFQspihA2uI+UcJx/1wL+cK1epGSwLhn4UHxsUCzsLGwEH1AybNwshCwUIT3EzJFmkWEVesBCwgeqzBwufZICUsD982zDeMFrx4LXq3GGM8CIyDStVhI+Z12uQ+eT1q/0Q8YGHwHYavLZr1KjAEWhdgyFM8hZKbRqBnACGfxJzUM5Yphz3mThhnPkPmSltrE8ycVBmLIsSxELF7lwNjE+OOZxfhLExYAihmZqwBjA88gz5FoUKWNKtKAkYHnmfvj/HjHMSprWaQxqNlqk8WG50/0KwsPIYQBYyyMM/qj2V3I6N9adAXzCAMUAw2PIxHg0nGEvoCYQzYw3ur1SOLJxzjB0Ieo0d/MeQwR5gf1DXgjg8BgdBIRagSQ6nifFoSacUnbYaDStxAW5m44PdBLeM8bcRChb7ivIAZ4/DFQ0tKuIAtEhkKHMAYh5fUYvjxXxi86FV2Lc4FUJuYD/VZuPpDahHOCe0ZfUZfTjGEKuBaMbqIh3A9ptRjSja6d6GJ0BusVRAFdwpxAB0VEBSHqix5IAzosHEo8E4xyrrMc0HuQV4zVmH9pQj8zB5gLfIdoBamO9HsyNSjAelGpH3DqYbDGesSYJK24lr6D5OFo5HvMGZ4lY6vSfVYD9gCRM/oB4se5IwJTapckUYkA8zxrWV+5Z8YnpBEnCuta2tqBY5A5zTqDXVTr2h1A15AVAYFhUwgcHehv1m3Oje1D7Q1zhLHDMZFSWguxDEB4cGxBThmLjFX0AdceNS44OCBPUQPDGMfxiv5q5jkKQwgYYqQThOJiEBE5gAXnPYgoAsfIw0gkbSapAJkskAsGNP/HsEDJVovolIJ7wPOHsZu2OJMmglHP4oDg9WAi1wvOTV0Akx4FQLoR98Qii4LFu4vXG48fJCe8WSy8pJQQgam3v1EIeL3wQqFoKm05TX9i4MdzZqFHedWjlIgu8TzC6EHoM/ovzVgJ8NzCuMF4q3SdtQIFCfHkWjBiMPBr3e2rHBhbXBsLFt5/zsn1BiFB4VYyKllQwjCDANVigDIuMdQxDhgTeE2RMKYht8kUP0go85M5AfEgNQhjm/FXq5eMSFG8U4JrZYHBCKsWRWGsMGbiHvHU4RxoFizCEGOMoBgnEHw8gkkCgyGOIVHvol0JnJNFlegaiy2Le7IfMayJdkXqJR5pDI16gaGMrmGMlkY5uB/qvTCWMJwgrERWG3GiYPRAhCAv6HXmPGQGI5FxhSMBwkEqEpEmjCXahMBgcGCc1gOuHc8q5BODm21RK0W8iIRE+iFjGL1Vr74lXYt7Yt4zVhD6jMgwzzMN3BdzCcIE2aB/syDezF9qbxgbkCLuP/l80enccz3EEEIN4YSkQWRwEjD+uE8cfRC+cnqbvocUcCzXRCpaNacO4wxSTkoY94BDirFCFIB5COmDIEQ0EIOd6Fakb6EP0EvMG8Y4zwevPccwV/hempGPoyAiuawjzC3Wx2rrIP9nrY1aJhxikGL6jNRv5gB9Xs/aBnhGEJiYh5wbMsO8iGfKeOd+uF/aIvoFYUan4tRolLhi+8QGENQDJckp94Gdhj7EWckYxmFAP6Ofar1Pro17ZMxiE5VeKzqKsRVptNgm6EYIBaSY+0Xfc5+VnhHXg0MGcssaQYYGjlbWT/oVwgJR4jrIxGDM0R7RoKi/bsYRKQwhwK5Z1FBaDCIMXBRJ3mE8Fj0iAChKJmPSSGMAs7CFsc2ERonUS15qAROJojEUKJ53Jmu9QLkxSZnw9COpTKTksYCwuKFoUOAoPxQ6C3gQGPKlISHh5agHkB76pZZnxWICmaJNFh6K/OvZpIDrx1iOtCOE3Gx2WqoESFukuJHWgOLPApAi8mVRiCyCLF5ZIDzipCsmPcUY15VIGkZhLMa1khcWEEghixUGAukURAgxOolIlBpYGPOE+hljkCqIbxg6PN9awMLDdyJNjjEKma0ld50xSpoT32PcYgRnsdAwtiAwGMER7cIAj3omjDIMMYzDeuu1KgHCxjxgocVQIyUlyAtzi4gwzxLdgLEM6Wtkc5FqYFxBNjBMMOyJFFeK3JUD5IidftCpGAvoTYw8xgvOFIwWwH1jeCXHAHMJAlBKrqoBY4Xxi8GK4V0JPGf6mAgQ85a5VS6KUA4YpjyXiFQhPKNK6UM8Uwwz2kUHMoeqXWstwHhkvjIX6UO85knCjTHP/ZJGkxaxLQfmFEYy14hBj1FHf+GwgGiUA4Yl0f54psyZWtZMjmHsYKRSZ4MeYq7F9stJ8sUaxnpDShDtoAeI8BCZISrEXELfUzuIIw8ChtOjdFxxrbTFmsl5WOtxjrH200Yl4GAKo5d5y++0iWeflC+eL/qkXnsBAz6ZQsZchMDgwGDcQVJIt2eu0Bbt8hPCQ2SWtPNq154GxmfUM0LqWXcA6wPrAMQmUvwR5jdzh0wA1plGHB1poCYlUssYbzh1IBvRt/QFkWqeUTnSxP1zTRAXCDD2QkQnGb/MBfoSoNcZZ/EscV6xBjCXayVlwhAHiosJT851TI4I4+UFFDu5yLQFaQiPPMoS4hJkisnDAsDCW80r0wgwwFC0LPIoX5RFvcAYwGsTHjKklLgkgaHLvQeBwaOC8VoPmQjQdi0eHwzW6FOUc1qKTDWgbFCYYWCinPCqVHouvIgs0pQgxfUs4pXAeIAEomRZ+PBMVYse1AvGQhASrr2cV5n7j2JpjoUc1mt88uwxWJBy94GRi9cR0ogRxqLJ4sAiQypFrbU/LHYYJnFv9CELE+l/lXaB4tmF0UKfE5nCuMoCsVBzThZw2mBeUEsAOWN7X7yC/B1GeLOgzVhomf+x2QaGFUZpGFYIpA1dwf+yBos5TgAiCLTF88XoI0WmHkQaXMzPOBdRylLSh8GEcRtprAgRGIzjeg0Hjq/lOxiTENLQe4whxnO9RALDFMKNjuU8GMx4hssBAkyxMsYRz5nITRbjFr0O+Yp6AeY/hjqgbot7JaIHueL3Ss6PcqBviKZAnqs5RchmCOcChLs0o6EWYMCjgxjn5dYVdFukItKn6A5SBvm7VFhz0Bk4CcNoDdAfpKJGdJvxgB5jraqkyyHZODdK2wphzLP24uAqF40rB46HwKBb43zoc0gLYyg5X5ICMcZmosa03nUcgx8dx3nQxehmzsGYxjaKiHSpMI8iMlYpva1WEA3BwZjWVgj9jhOH9a5c6iWO6dj+OYSxC1ktTRPFUUgqHHOY49BdOHKaSRsWhhjCqxssmUHEZMSgqDedoBYwaFloUW4sJrQDcUFRx2RlMcBjxuKTB1DO5GhjXKM08HA1UrQPCcBIjwlL36F0CCmX88QwwYk4YbDwPbxJWRvfAYxraozCKKReAu9GI2QQMsbCRX9xLn4nTJymPCHF4Qkk5QHjsJ4UikrAAOeeosCV/sZAa8TzlQaMMZ4fRjPn52c5Ysu4JX0OIo5HmDGcRVpKKZgHLPYszrSFNyyiacyZcDiUkuU08LxYpFmYIwUHzxhGFoZd2nPCMxuGGkLf83wbiRKUA32M9437ow3SCTAAw9POvUOgs4rAsGDHvMU4YcziaWWxjftE8Ejm5cyhTZwZ8SwRjCSMz3rSLDE4SY+KWgIMDYhLObLHufHqBtmhzyHp9EkeYE6UGkeMOYgb60GtYOwSnYzNQOg35hzkvXTs8zdRpjCOEPqFbINGot2lYE7GDkqcFyM00gR5pqFzcTAQKa13MwrGBs48zsFaSSpPmnEMySGFKhxUCHOV1BzISJYgAsGaHe2EoA+YN8wnHHlhSyCQG9IyS20JIpysC1G/iZDSyPPl+ZQ62NBN1IfEsdxvtMl4CEcZQkosRna9ZCIiMJCy2BmL5wgh5HeICn2L84fxi07ic/Qo10b9Tr2OQWrhICO0AzljnU3ulMdPIiA4q+jbZCSGKAz2QzMRGGwBomcxpxDGM1Em+pbnF/eJQEghamn3SSpoMkMDBzT3VK6+Db2Agxp7j3skipXF3BSGEKIGJgwHvFQs6HksZoSRYdxMCJQAHjiUbxijDHj+X8kT3AyYrBAIjF7aQ0nhvW+kPRZIPG7sW4/hgKGD4VuJHGBkY6iRAoHxz8TOyvAuBYQMogThQDBY6vV2BiBYeIZQ3ihrzofHFsWHwsGwQDDoWZTCm4yRjPGb5T1irDB2uA6uh7S2eheqSmCRDg8jcwJjEkOdPkBp471mbhDyZ/xwHbFg5pHiiKHEGGXOsNBhsDFfY+cerhECTr/UQkwhKNRn8fyY65yDnxRTspiS4oe3FKMYDzPtYShyn+H1xniAwJAPncWzxaFQWgODMI7CY8994gnFQGwWeKYjmoRRQBoDxhN/c5/RL/Q594/OKOeRbgSME+ZTGA3oj+hbCAxjC2Oglr6N9CiIHpJMFUsD5+S5nuMS98nzxHjIKkIa4D7xqAf5Dd3BT3Q9BKYe3UsUlLkQ28Zj3EF6SZ9knkQEgb8jmkdbYQySZQCBgRw0A/QNEUscCTw7jHp0H/MPA5QIQJBDjHnITT0vJGX+sWlNOIswaLknSAA6iPaJYJCOg+HHMaHnuV/GVZrHuxkw10vJC6nXzA/0CesadVw4QpLGMGtAWmE+c5AIPpHVuE/IHimQ6FIcq+ggxjLrWDgyGLM8cyIstMmxkHUIBf/n/onk1JKKVgr6l2wKrjmuH4Fksa6xlqGnWHOoj4xxiG5q5FUIEAEMfqJP1B8lN9hBH6CjiZQypuhbxm7cJ0IkEudKIzqY79C3SbKEHqAGmDlL3+KcZedUxjn/5znhLGOsl4LxGJFR5jZjsxqBZgzQ39h8OFWUNibUDQwCDKLw4GC8kePayKSoBBQY4U6MISY8yio8j0Fc6vHG1QMWFhQPRnzcJ54FFFItXutScC8YuigdDAGUSy1GNIsP95ilwV0KPH14qvGicJ8YD+wW04xyYCFhwQ5DBEVG3ioLGl5CCC9eq/AOsbBhnJSmDTQLFB73hpHHgsZmCFlGPCDYkOpIp+R+8EyjjFm0MBTZjCG8faQ/UAxM/+QBFnHuF4KP94/rYL7i0Y3UC+YSC1+tW4hyj1GwG5618PJRuwW5xwAj8hTkgedOfn8YZfQ/fZ+Vk4M5GBEYzs/4wgihr8O5wbOgL5o1PiHaLMIYCtwPqWIQUX5nDBMpiPQx7hPDJKtUOQxsjD12qgrywKKffBcC90mqXC2RJvQQRIiUFwyNWjZUQAdRl0b/hlHIfMVAa2Qr93JgPEJI6VfawahlfDFeaROvK8Sxnig7BhckNjz8EBT0OOQbRxjpLfwdbeChJurM73GfrHXNEjUIbUQDGJ+sawAnB33LHApCCgknOlar8wg9TV1WkACMW8g2egYdRDSD9NkgLsxR0oLp23iezFciNlnoRsYY4z8IP8K8IGuDNEe8/xwDWeUe2QwkUtm4dozuNPIGcY3ttMOApi+xBUiNog/5GTqK+cKzZK2FtNMm/c25WZsiJZZzoMMbyR4hhYwNVSBBnIsoMDYD4455g02E/sRpx/oWL9/kGaCbua5awfzgHnlmzPlkFBa9B2Fl/cR2oW9Z+5LpbbQJmW/EZsJ2QZfGOsZ8gfBj93Gf9C33gj6ACEcdKNcI6Sy9T64TpwtOXGqBy6VblwJnGmOU9gShIbBQMvhYbFB6MOmsyQug7iKMkRDC+yiCRvKDKwGCgGJjQpJuRH1LeHYx/PCINUOWmHhEW8hTZcKvaqBAWDgxfDB0uU9+cp+NRl2SwJPHIk1xcRgHacKiS6pTloZQgGeKty1SQmgLozdLrw31SRisySgANVIYBEEYEKIfLHSVPN3NAiMptoimPWowAAQVYxMHAP/jeUAg6/HEEWXZ04V5EWQtTVgsSenAgwphiUUWAwZPaVYbMnDdzCdIFeSCgnD+xvMaOgOjlUW3mQgMCy/PLZluAlnCGKV/6UPSWzF0+R9GQkRgGgFkCWOHuYlnOpm2R+QHY482ue8YczwPoii11MDQF3hJ602rY95gsESbjKVmCQyGFnqclBb6M4xpSCFGN8QN0hREDUO13jRh+gQyUOohTwrEFAMaYw8PN+QQQ5T/MYd5vs2kqaD76aswukkXC0KEIca4ZXOaaBNHD5u01KqH6Q/mZhQ2I4x9dBCe8Bg/kAOcR+hESCzGY3jvMawxPGs1JMsBnUsaXtR3QkYxuolupIHjISU8W45HV+PNTwPEh76CCKFnor9KhflJKhMRl7RUKZxHpMuFPoTkoMfrXRcgQ5DEaBcnTjmnELYD5AE9yLHorHpSPtGb6JVwCCHcPyQMOynNoOfekxE3xgORmWrAOUQkBOcGY6V0y376nkySNEcu36MeMNYIxhjkJxnp55kzHriWZsebINQFJjnKnMmXtbc8CQZ3ctLgfSPiUs/iVSvworCoY9SVGp14g7JOk1gVwODDm0u/sjhGyhOCwY2XMataAYCSwoiF6LKYEPYnfI6nmmeJoc3ClVcEDZBSg+eaRZoFkkW7Ho9XLcCww5jEUCBShxcVQwVPL0Ytyp6c3bzHEIsERizt4VlO1mAwXzHCItqFIUMEhkWk1mgiizWLM5EcFiUMHowNBGOF87HYcRzAcOQ6IiJD30BgiMBk4ezACQAZJO2RsQZwPjCHgzTRNsZOo+Oa85KOEVuEYkjj/cVAi3vg3JCkiF5yn0Fg6jWIiBThEMJzjREWbdK/OANiVybSEzGAgqhhFKUV3mcJxjmGPWOHNjFQIFj1RrfoNxxFkBN0TqSacJ+kxuA8Yo5i8OBRZqyF0UYqDASmHp2BQcW8hyAQacGYI70HY5+cfZ4VHvpI5WRXJUhT3CdEAPLRDIGhfXQsBifXkTRyg4hj/AaBIwJDynCtKWREXdHp9B/jkHbQQfQpxBvdR/omGQWAOc9cZSwHOYwITDNrOvMFwzaiKURCIEWsO+XAs0RvRXQRQhDjPA0YvMw/1hXScNFDPMtwkqHjIKyVoik8S5yv3DtrPA6XtDq+SoC4Y9jTJn1OpKsSGFeQdNqkDgfSXiuYY8xv1hTaizZZVyqlXOEcwInE+kf/Eumotv7xDLlWxnwyrQ9hztO3oePTwDrEWKY9xh01gpWepyCsdWDbUZQxniMWOBh9XjUuKC5yKvFkMNExHPgdwyWvyFKrgXcGxYJ3mkUFJcp9smixMQEe+qxDshhvhHoxKklvwDDBCCMFD2JRSQlmAZQmkR3Sbcg9xqOdNXnhHvFoM35oA1KGwYWXkzELgcOjnjdYdEgXgBzQt8k2Gb9cIwQm0mgwfDGA64nAYFBiFGAsYcwS8aAmizoa5kkYgIBz4r2LxZM2IRUQGMZhVkiOWa6PtBUITBifGDWkDzVifHI/bDfOIs494KXFcEpGT7lPHDmQpIjQML+IyKHD6tEdGESxUQl6D2MFQ4A2kwYg5ySfnDEWJIe2MQJ59nmAcR71RmFkc5+k3TAeagXPiHFDXzIGg+hHNCtpRNL/6ApSvSK1qhECw9zgGpn/PE/0EMYjc5NxmyTwjCf0FZGmiFrgRKO2pFEHBM+KKDeRaAhf6finfQgMKUARUWCeEglnTlcD4wE9S9SCSCEkkz7jWdEejjmIUJJMM4bx2pNuxRjiXlkLKhVPVwPXgd6BePFsIYnoh2ogSoJDi2eMI6haFJFxQQQF/YIe4lmSsoV+obYUB12ltYw1gOgedgV6gjTKWoligHHDrn+0ib7H4K8E5i/jlrmNLoGM1Lr+Yfcwz9BlfJc5w7VX2ho7QEQRgsZ6T51KNT1Iv+HUYgzRHmMjHHK17LjK/IUEQyjpG3RvXnabIKyWwLuIMiefHmWY5wRAqbMwkaOJB5miVLxxWRYyrmqwsOBVo6YFQwEPPYYki0uWtSDlgAHBwoZyq9Xb3yy4ZwwFCo8x6ljwkiHsLMF94SEjEkAaAl5w+pVrWF0QEZiILrKQYujXuo1yKXiOScKSBlIe8FCG9xwjGy9wVjUwpeD5RgQm0pwwBCEX9UYJuDc81EQp8SZDwMvt2oPBRQQmUiYihayed79gVGFgQ0JILyLSjFHE3CkF44r/YbSFYR8pZHlFYHjeEYEJI5soAQZzrTtlYRwxDtG1pHNBYvgdgynNsUB/Y5QnCUzUwDSyJuDQQA9V8gZzjcwJathoL+4TAlPvGAJE9lnPGJdEC9PahkwEgYn7JFJNpLPWFDLOAdnBqIcw8ZO/yxnJOCIgjGxCESQYAkO6UTNrAkSRtYWod0R7KgEdwZhivkI+2Na5HtCfzAUivZBEdHAlPc/cYV4yryFtOEmrkY9S0KekgeOwYlzUkirK8aF7icDVmnbJusUcIWuBfkIgTKwz1cB94lCjb7lfCHs1YPdAeNHTEDTaZi4QjcFRU4kY0rfMHRyGjCmiY3npekFYLYGxidccFp9HTUQaWAxRpGtzLiYGAoqa/O48azCE1RNBYDDGWESjBgbjsdKi1AxYvDDkI4WMNCe8gFluo1wKIkrcFwSNNoPA1FMDA3khDYb0DLzDlQxeAGnAoxrprngeIW711MDgSMHg5FzJKEQ5cG4cLsl0rrxTyHAGYEBFm9QPQGDq0dM4UkgLw3tcbRMLjHIIDJ7fIE1EYIgY5+nUYk4kNytgzjB36o3i1erAwOBmvFEnEmQfD3Y9Rfz1AnIIgYFoBGmKCEwz6yCGNdFo1vFkxCcNtMNajy5i/PLel0bAXGBdw5FQzUGGgU7kmfslgkg0sF7gVMBeIDJaLVoEMPwh6xj1kLRad35kfpBmSQo77/Ih7ZBoEw7Xat8nzZ70zEhjxnlZC+g/7APaQA9BvHHo8lm158lYhZzRt7TJmBaEIQNyOZmkCjkKQrbAgMdb2EwNTL3ACwyBiToNSAUEhs/zik5xP9xXEBjIBAt5raSdvsAoQWpN8cBAgTxgENEmhA2PMJ7waot+o8BQZBvsIBNEtyBqeaWQAQgMaUkR3WIskdrSSGSiFvAsMDAhMFGnQe0AEZi8nE2QedIQITBRbwAJhqjlVcNGmxh7eMuDNOGtr3cb5XoAOcTTntzZjnqgZmpgeF4YvaRLVYvO0j5pXDF+0U1pjhTOhRHNXEqLRgKiakSNqhn1/J85QhoWOont/NN0H/YHEROcAWn/5zykMCbTdMuBcxGdhaTRv6TtpekV9BPOF4gHOoN+hDAzt7hv+obPkLRrSgJnJbUuQfqpjUrrWwgS+pKoVblzcgx2Wdr3k+B5Enkj1YzaHOpe0s6Jk4axznqUl24UhJYDpcAkEAQhW0AWWCAxEqIGJlLIkoX+WYI2ibSQDhU1MBj4EJgsa2CSYEHE2IHAhJHNfUJgavGec80YXtUMoSRY2IPARA0MkaYo4s8DtMm5SSGjPQQywTXUStTqBcYIKWQY9hEl4D5Jua33ZYu1AsONGphzXIgSkPITEZi8Nv7g2WPUxdbcCN5kUmjqqfWpBxHxi8Jn2mSeUsyeVwQGIxoCE5EBBAO7mRoYwByqxTkBMcW5wL1S91Ja5I+hTrSBZ0/dJhGPckY0z6yWNiFMEEN0AtHV0gggfzO2iESRHlbOGVDrPUJwqKMlUklEjdor7isJCA47k0Eked6MMe4nzbivpV3+z4YRQYS5j9LUV+6TTQtIK0M/o7/KnbdWXch9QlzQgZCnUnIHwYSQU0/YSEqvIAiCMESBAQ+BSdbAYADnRWAAnj0iEeHJZoGLCEwewMCJCEwQGIxPFsy8vOeAaA3kIWpgIGrcdz01MPWCKAH3mTR4uYa8IjAYVOTQE4EJzy5F2hSJ5xUliBoYjNggwexq1GgNTC3AkCMLgPuM2pBIIctrDOG4g8Aka2AweKmByWPHTUANDASGGpjYrCBqYCrtapUFSGWOd6FAiJPjBwOf3byo0+S60FcYx7VEOyqBNCjqrsKhkWyTOiUiT7EbHn1PGly1KFIlBEEkYojeg5wkI1uMX0gUbdEmuwxC1qtFOqqBORo7JuKgShJ97pNdP9kRlP9T3J9GquoFtbSQXxwakLHkmIUM88oL2qJN5i/bwCv6IgiCINSE2IUsCAypGxGBqSfiUA8ihSxSqyICk2cNTGkKGcYDO+HkFZkAQWCSNTDcN2kv1TymjYJzJ7dRjghMLTn5jaK0BgbDHgKTZ2QCo660BiZPAgMYQxCYIN7MmUZqYGoFRisEJl5QSJsUbUNg2O0qD5BmFDUwyRQyIjB5buxCH/LSV1KN2JwharYwotkhbroL10LKIBECatBKozP1ArIPOUQnUJsWRBSDni2eIRm0ybimhoMarWbIC/qUuQJhIlpJCllEtTDuIS5sqU2bzF9SQSHNzeph9C2b9NC33EfMyyAu8dJOromNANikpJEXdybBdbO7HmmzbKIQxBASDHEJUsh9ojvYrELkRRAEQagZGA4YYRElICcbAxhjLa/UTRZUIhHJdC4IDMX91fK4GwX3w30FgYFMUARbS1FxoyAFAyMlWQMTBKYZQ6gcIEXUwHCfYWQn3wOTx33SJilkGPZBYCCHUQOTBwlmjEQNTBjZUQMDgWnWW50Gzhk1MJEqFzUwed0n54z3wESbkCZSbvLY3h4w54kQsI1yRH2iBgZjO482SYdjjDJ+iPwwP4isQFLYsYpr4DlDbPDq11qDVgk4LpiL6AOIAgQfQkTkIYxrrgfjmuhFFs+XFFne48S5cRJBWiAKbKsfkQjmLalxzOMs5itkBd2KrmW+cA2kipGGd5ULbUIKGWNEo7LQ+bTBduP0LWmA9DVt8oJQCDht8j8cSmxckMeYEgRBENZiYHxGDUxECWJhYavTPKIEnJO8dXKsw0DCwOe9MERg8mgTQyBqYMKwp03IRV4RGBblqIHBoKdNyATvgeFa8gBtkp7Ge2Ai/YcIDC/2w0DLo28hYqXbKJPvjmGfVwSGKEFaDQye3bwiExiwRCUxzLhHhDRE5k5eERiMySAwQdRwNPAKgVreA9MIYheySCEjXY4UMghMHhskQIri7ezsxEXbRAWowYn0QJ4zhDVtS+1GQPoU0VecGEQmGEvUfgRxIdoFIWdcZ+VogKwQ3eD8bL+OfoUsxZvwmTvoBshbVgY9ZJ4d69A/RK0gf9T7QAqJxiCMLbaoLrcRQr1g/lG0zzpCRI2oFdG7IC6QQsgbDqW8nFWCIAjCEEDUwFBQygKDQUhEJs9UHGpg8H5GBAbjBeMzrxx7DHcWTBbOIDC8T4PtWbPw5pYDUY9kChmeTnb+ybOWIGpgkvUopMOUFiZnBQz7SCGLHcFIg2F71jyiTABDNrZRDiMXIxsjN49ISCBqYDD8aJOaAnasarZWoBww8Nj1ihSyaPM2F7bQzes+2Ro8SWBok5QnriPrNok+QFboR8Yp0S3e8RabB5CCBLnIirgACBp1JxjY1F3Qt/FWeYgLmzQQcckyWkmf4lSgDaJ2zM+oN0EHQlyy3tiD9DDqliAO1NPQt8wR2kTHZ01cAPMAxwVRfPqU9DwcC7QJcaG2Ej2siIsgCILQNKiBwchmkcOQYHHPy4sdINLCYkbaBEWqzb4krxaQqoD3HDJxpQt59VkaRmkg6sHbvLlPvLv1vim+ERCBwQjDcCG3/SsujW5/Wyt40ebJLhhnvKyOFKS80g8BxAjDljQnoiAQGd4fk1cqYIAIDDUEkF9qMtgSFkMxL2DocV947ulb6lIgaXneJ4Sel7MSDaFvuV/eNZI1eWF88L4U0tMgSlHjAwkmVYznm/UYoj+JBuDEICUvSGEyVSxr8Kww6sNxEqmARH9IryLikjXQa5BcyANEMPqWn2zJzZjKOvrBfRJJ4/nRTmx0AVGMmkpBEARByAzkWrNFKIYuufx5e8cwhFi0MeYhLhj0ebfJ4gqBYctbdjLCI5pHOlUpiIZQl/FFF17qmPd9YpTQJm/rJ1UE4tKKNjFwidpBXDCe8u5bCAzPkZ2NSPOp9kLRLIAxjRG2pwvRJeol8r5P2iTyQYQUgz5Lb3k5QGC4PyKFeMvzIPnoAMgCjgSMXAQyQaoYaU55Re5wWgSRQIh+EFHjWvKYJ9wnqXex+1e0SY0LUeg82kTXQVBwDEWbEXEhnSsv8ruDS6Q5IhAXavGYM63QtYIgCMIQAosZOeiE/lu1yLBok0KVd1QgCYxsCoWb3VmnHmCE0betbBODiUhWXuliaeA+idi1gkQEIA+kOOZljKWBtujbZrftrQcQFvo270hhEkSU6NusIy5J4MAgwoOhC3EhVYzIUul7SbIEb+SPVE4iBBAXUh/zihSiT9kW+DoX2iQyQcSFVLE8nQoQhkhPg1AQcaE4P89UWTZboL6PNlXjIgiCIAiCIKxVYNe/iLxESlzeBI0oHUY9uwDmlRKXBOQFwjTdJTZFyfPdTwFSc4m8kL7F5gQQl7yjdtTRUO8CgSFFVxEXQRAEQRAEYa0B0SRSmSATvGskr+hHEuz4xzbJRAVIrcobRFdohxq/KFpvBUj/JZIFaYK4tCL6ARGkdohNCPhdEARBEARBENYakPbHbnjU2uWZzpQE75vibf1sWZxXXU0SRHVoi9QxUsVaUbMESFXd3YUan1bcJ+D+6FsIolLFBEEQBEEQhLUKGPbUoLWyNou6Pt7+3oooDyBtCiKB5FnjUoqo72tlbRZklPcQibgIgiAIgiAIgiAIgiAIgiAIgiAIgiAIgiAIgiAIgiAIgiAIgiAIgiAIgiAIgiAIgiAIgiAIgiAIgpAbzP4/jxL8YJoBbEcAAAAASUVORK5CYII=;" parent="1" vertex="1">
          <mxGeometry x="40" y="60" width="815" height="683" as="geometry" />
        </mxCell>
        <mxCell id="bC0aUjiaJx9NKDZwFzf8-5" value="Average time per operation (cycles)" style="text;html=1;align=center;verticalAlign=middle;resizable=0;points=[];autosize=1;strokeColor=none;fillColor=none;fontSize=36;rotation=-90;" parent="1" vertex="1">
          <mxGeometry x="-264" y="360" width="590" height="60" as="geometry" />
        </mxCell>
        <mxCell id="bC0aUjiaJx9NKDZwFzf8-24" value="Processors" style="text;html=1;align=center;verticalAlign=middle;resizable=0;points=[];autosize=1;strokeColor=none;fillColor=none;fontSize=36;" parent="1" vertex="1">
          <mxGeometry x="400" y="738" width="200" height="60" as="geometry" />
        </mxCell>
        <mxCell id="bC0aUjiaJx9NKDZwFzf8-29" value="" style="group" parent="1" vertex="1" connectable="0">
          <mxGeometry x="180" y="120" width="58" height="20" as="geometry" />
        </mxCell>
        <mxCell id="bC0aUjiaJx9NKDZwFzf8-30" value="" style="whiteSpace=wrap;html=1;aspect=fixed;fillColor=#ff2600;strokeColor=#ff2600;rotation=-45;" parent="bC0aUjiaJx9NKDZwFzf8-29" vertex="1">
          <mxGeometry x="19" width="20" height="20" as="geometry" />
        </mxCell>
        <mxCell id="bC0aUjiaJx9NKDZwFzf8-31" value="" style="endArrow=none;html=1;rounded=0;strokeWidth=6;strokeColor=#ff2600;" parent="bC0aUjiaJx9NKDZwFzf8-29" edge="1">
          <mxGeometry width="50" height="50" relative="1" as="geometry">
            <mxPoint y="10" as="sourcePoint" />
            <mxPoint x="58" y="10" as="targetPoint" />
          </mxGeometry>
        </mxCell>
        <mxCell id="bC0aUjiaJx9NKDZwFzf8-32" value="&lt;font style=&quot;font-size: 30px;&quot;&gt;Single Shared Counter&lt;/font&gt;" style="text;html=1;align=center;verticalAlign=middle;resizable=0;points=[];autosize=1;strokeColor=none;fillColor=none;fontSize=36;" parent="1" vertex="1">
          <mxGeometry x="238" y="100" width="330" height="60" as="geometry" />
        </mxCell>
      </root>
    </mxGraphModel>
  </diagram>
</mxfile>
